<?xml version="1.0" standalone="no"?>
<!DOCTYPE svg PUBLIC "-//W3C//DTD SVG 1.1//EN" "http://www.w3.org/Graphics/SVG/1.1/DTD/svg11.dtd" >
<svg>
<metadata>
Created by FontForge 20120731 at Sat Jun 29 13:13:09 2019
 By www
Copyright (c) 2014 by Ryoichi Tsunekawa. All rights reserved.
</metadata>
<defs>
<font id="GraphieW03-Bold" horiz-adv-x="410" >
  <font-face 
    font-family="GraphieW03-Bold"
    font-weight="700"
    font-stretch="normal"
    units-per-em="1000"
    panose-1="2 11 8 3 2 2 4 2 2 4"
    ascent="800"
    descent="-200"
    x-height="470"
    cap-height="664"
    bbox="-186 -210 1076 925"
    underline-thickness="50"
    underline-position="-75"
    unicode-range="U+0020-FB03"
  />
<missing-glyph horiz-adv-x="620" 
d="M54 0v664h512v-664h-512zM127 623l183 -254l183 254h-366zM99 588v-512l184 256zM521 76v512l-184 -256zM310 295l-183 -254h366z" />
    <glyph glyph-name="uniFB00" unicode="ff" horiz-adv-x="693" 
d="M593 710q61 0 98 -16v-120h-5q-16 11 -35 15.5t-38 4.5q-32 0 -50 -18.5t-18 -53.5v-52h135v-111h-135v-359h-131v359h-192v-359h-131v359h-78v111h78v46q0 89 45.5 136.5t133.5 47.5q61 0 98 -16v-120h-5q-16 11 -35 15.5t-38 4.5q-32 0 -50 -18.5t-18 -53.5v-42h192v56
q0 89 45.5 136.5t133.5 47.5z" />
    <glyph glyph-name="uniFB01" unicode="fi" horiz-adv-x="608" 
d="M418 0v359h-196v-359h-131v359h-78v111h78v56q0 89 45 136.5t129 47.5q56 0 93 -16v-120h-5q-16 11 -34.5 15.5t-33.5 4.5q-29 0 -46 -18.5t-17 -53.5v-52h327v-470h-131zM484 535q-35 0 -58 22.5t-23 58.5q0 35 23 57.5t58 22.5t58 -22.5t23 -57.5q0 -36 -23 -58.5
t-58 -22.5z" />
    <glyph glyph-name="uniFB03" unicode="ffi" horiz-adv-x="931" 
d="M872 0h-131v359h-196v-359h-131v359h-192v-359h-131v359h-78v111h78v46q0 89 45.5 136.5t133.5 47.5q61 0 98 -16v-120h-5q-16 11 -35 15.5t-38 4.5q-32 0 -50 -18.5t-18 -53.5v-42h192v56q0 89 45 136.5t129 47.5q56 0 93 -16v-120h-5q-16 11 -34.5 15.5t-33.5 4.5
q-29 0 -46 -18.5t-17 -53.5v-52h327v-470zM807 535q-35 0 -58 22.5t-23 58.5q0 35 23 57.5t58 22.5t58 -22.5t23 -57.5q0 -36 -23 -58.5t-58 -22.5z" />
    <glyph glyph-name="f_j.liga" unicode="fj" horiz-adv-x="608" 
d="M549 -44q0 -78 -37.5 -117t-106.5 -39q-20 0 -35 2.5t-32 7.5v118h6q15 -12 35 -12q21 0 30 12.5t9 38.5v392h-196v-359h-131v359h-78v111h78v56q0 89 45 136.5t129 47.5q56 0 93 -16v-120h-5q-16 11 -34.5 15.5t-33.5 4.5q-29 0 -46 -18.5t-17 -53.5v-52h327v-514z
M484 535q-35 0 -58 22.5t-23 58.5q0 35 23 57.5t58 22.5t58 -22.5t23 -57.5q0 -36 -23 -58.5t-58 -22.5z" />
    <glyph glyph-name="f_f_j.liga" unicode="ffj" horiz-adv-x="931" 
d="M872 -44q0 -78 -37.5 -117t-106.5 -39q-20 0 -35 2.5t-32 7.5v118h6q15 -12 35 -12q21 0 30 12.5t9 38.5v392h-196v-359h-131v359h-192v-359h-131v359h-78v111h78v46q0 89 45.5 136.5t133.5 47.5q61 0 98 -16v-120h-5q-16 11 -35 15.5t-38 4.5q-32 0 -50 -18.5t-18 -53.5
v-42h192v56q0 89 45 136.5t129 47.5q56 0 93 -16v-120h-5q-16 11 -34.5 15.5t-33.5 4.5q-29 0 -46 -18.5t-17 -53.5v-52h327v-514zM807 535q-35 0 -58 22.5t-23 58.5q0 35 23 57.5t58 22.5t58 -22.5t23 -57.5q0 -36 -23 -58.5t-58 -22.5z" />
    <glyph glyph-name=".notdef" horiz-adv-x="620" 
d="M54 0v664h512v-664h-512zM127 623l183 -254l183 254h-366zM99 588v-512l184 256zM521 76v512l-184 -256zM310 295l-183 -254h366z" />
    <glyph glyph-name=".null" horiz-adv-x="0" 
 />
    <glyph glyph-name="nonmarkingreturn" horiz-adv-x="333" 
 />
    <glyph glyph-name="space" unicode=" " horiz-adv-x="220" 
 />
    <glyph glyph-name="exclam" unicode="!" horiz-adv-x="275" 
d="M60 664h155l-16 -450h-123zM138 155q35 0 58.5 -24t23.5 -59t-23.5 -58.5t-58.5 -23.5q-36 0 -59.5 23.5t-23.5 58.5t23.5 59t59.5 24z" />
    <glyph glyph-name="quotedbl" unicode="&#x22;" horiz-adv-x="451" 
d="M62 664h126l-12 -299h-102zM263 664h126l-12 -299h-102z" />
    <glyph glyph-name="numbersign" unicode="#" horiz-adv-x="650" 
d="M593 266l-13 -90h-120l-25 -176h-99l25 176h-118l-25 -176h-99l25 176h-120l13 90h120l20 142h-120l13 90h120l23 166h99l-23 -166h118l23 166h99l-23 -166h120l-13 -90h-120l-20 -142h120zM256 266h118l20 142h-118z" />
    <glyph glyph-name="dollar" unicode="$" horiz-adv-x="650" 
d="M572 216q0 -85 -54 -132.5t-159 -55.5v-88h-65v87q-131 4 -208 53v140h7q71 -64 201 -70v121q-110 7 -160 48.5t-50 124.5t54.5 132.5t155.5 58.5v79h65v-77q119 -5 177 -44v-140h-7q-52 55 -170 61v-118q112 -9 162 -51.5t51 -128.5zM210 453q0 -23 19.5 -34.5
t64.5 -16.5v111q-84 -9 -84 -60zM359 151q87 9 87 60q0 23 -20 36t-67 18v-114z" />
    <glyph glyph-name="percent" unicode="%" horiz-adv-x="762" 
d="M185 674q72 0 111.5 -45.5t39.5 -119.5q0 -73 -39.5 -118.5t-111.5 -45.5t-111.5 45.5t-39.5 118.5q0 74 39.5 119.5t111.5 45.5zM544 664h102l-428 -664h-102zM185 595q-28 0 -44.5 -22.5t-16.5 -63.5q0 -40 16.5 -62.5t44.5 -22.5t44.5 22.5t16.5 62.5q0 41 -16.5 63.5
t-44.5 22.5zM577 319q72 0 111.5 -45.5t39.5 -119.5q0 -73 -39.5 -118.5t-111.5 -45.5t-111.5 45.5t-39.5 118.5q0 74 39.5 119.5t111.5 45.5zM577 240q-28 0 -44.5 -22.5t-16.5 -63.5q0 -40 16.5 -62.5t44.5 -22.5t44.5 22.5t16.5 62.5q0 41 -16.5 63.5t-44.5 22.5z" />
    <glyph glyph-name="ampersand" unicode="&#x26;" horiz-adv-x="645" 
d="M426 37q-65 -47 -166 -47q-104 0 -162.5 48.5t-58.5 136.5q0 115 112 181q-64 76 -64 145q0 81 52 127t142 46t141.5 -44t51.5 -119q0 -58 -32.5 -101t-104.5 -78l112 -128q25 44 25 110q0 8 -0.5 16.5t-1.5 16.5h126q1 -8 1 -15v-14q0 -122 -72 -203l101 -115h-170z
M268 410q52 23 73.5 44.5t21.5 49.5q0 26 -20.5 42t-52.5 16q-33 0 -53 -16.5t-20 -43.5q0 -20 10 -39t33 -44zM268 106q46 0 85 15l-131 153q-27 -18 -39 -38t-12 -45q0 -42 25 -63.5t72 -21.5z" />
    <glyph glyph-name="quotesingle" unicode="'" horiz-adv-x="250" 
d="M62 664h126l-12 -299h-102z" />
    <glyph glyph-name="parenleft" unicode="(" horiz-adv-x="403" 
d="M362 664q-146 -167 -146 -383t146 -383h-133q-74 79 -113 178t-39 205t39 205t113 178h133z" />
    <glyph glyph-name="parenright" unicode=")" horiz-adv-x="403" 
d="M41 -102q146 167 146 383t-146 383h133q74 -79 113 -178t39 -205t-39 -205t-113 -178h-133z" />
    <glyph glyph-name="asterisk" unicode="*" horiz-adv-x="466" 
d="M300 313l-67 133l-67 -133l-94 67l107 107l-149 24l36 108l132 -67l-23 148h116l-23 -148l132 67l36 -108l-149 -24l107 -107z" />
    <glyph glyph-name="plus" unicode="+" horiz-adv-x="650" 
d="M383 16h-116v226h-226v116h226v226h116v-226h226v-116h-226v-226z" />
    <glyph glyph-name="comma" unicode="," horiz-adv-x="275" 
d="M85 145h135l-121 -251h-106z" />
    <glyph glyph-name="hyphen" unicode="-" horiz-adv-x="370" 
d="M42 340h286v-132h-286v132z" />
    <glyph glyph-name="period" unicode="." horiz-adv-x="275" 
d="M138 155q35 0 58.5 -24t23.5 -59t-23.5 -58.5t-58.5 -23.5q-36 0 -59.5 23.5t-23.5 58.5t23.5 59t59.5 24z" />
    <glyph glyph-name="slash" unicode="/" horiz-adv-x="425" 
d="M284 694h116l-258 -774h-117z" />
    <glyph glyph-name="zero" unicode="0" horiz-adv-x="650" 
d="M325 674q132 0 204 -89t72 -253t-72 -253t-204 -89t-204 89t-72 253t72 253t204 89zM325 550q-66 0 -100.5 -56.5t-34.5 -161.5t34.5 -161.5t100.5 -56.5t100.5 56.5t34.5 161.5t-34.5 161.5t-100.5 56.5z" />
    <glyph glyph-name="one" unicode="1" horiz-adv-x="650" 
d="M353 0v506l-205 -115v144l230 129h114v-664h-139z" />
    <glyph glyph-name="two" unicode="2" horiz-adv-x="650" 
d="M563 0h-473v130l161 127q50 39 83 68.5t52.5 53t27.5 43.5t8 41q0 42 -30 64.5t-87 22.5t-109.5 -21.5t-90.5 -60.5h-7v148q40 28 94.5 43t111.5 15q125 0 192 -52.5t67 -151.5q0 -40 -10.5 -74.5t-35.5 -69t-66.5 -71t-102.5 -79.5l-71 -50v-2h286v-124z" />
    <glyph glyph-name="three" unicode="3" horiz-adv-x="650" 
d="M481 336q48 -23 74 -62t26 -93q0 -91 -70 -141t-195 -50q-71 0 -131 17t-95 46v147h7q16 -20 40 -36t52 -27t59.5 -17t64.5 -6q61 0 93.5 23t32.5 67q0 38 -30.5 55t-99.5 17h-91v117h79q71 0 101.5 16t30.5 53q0 43 -31 65.5t-90 22.5q-56 0 -108.5 -21.5t-87.5 -59.5
h-7v147q38 28 96 43t122 15q116 0 181.5 -49.5t65.5 -139.5q0 -50 -23 -87t-66 -60v-2z" />
    <glyph glyph-name="four" unicode="4" horiz-adv-x="650" 
d="M534 0h-139v120h-349v117l343 427h145v-420h85v-124h-85v-120zM196 244h199v253z" />
    <glyph glyph-name="five" unicode="5" horiz-adv-x="650" 
d="M340 430q115 0 178.5 -57t63.5 -159q0 -106 -71 -165t-199 -59q-72 0 -132 14.5t-97 40.5v140h7q35 -34 91 -52.5t125 -18.5q65 0 99.5 25.5t34.5 73.5q0 49 -38.5 72.5t-122.5 23.5q-44 0 -89 -7.5t-80 -21.5h-7v384h436v-124h-315v-124q56 14 116 14z" />
    <glyph glyph-name="six" unicode="6" horiz-adv-x="650" 
d="M372 437q52 0 93.5 -15.5t70.5 -44t45 -68.5t16 -89q0 -52 -18 -94.5t-50.5 -72.5t-78.5 -46.5t-101 -16.5q-137 0 -212.5 84.5t-75.5 239.5q0 84 21 150.5t60.5 113t96.5 71.5t128 25q57 0 102.5 -11t75.5 -32v-139h-7q-60 58 -157 58q-75 0 -121 -44.5t-56 -126.5h2
q30 27 72 42.5t94 15.5zM345 114q50 0 80 28t30 76t-29.5 75.5t-79.5 27.5q-45 0 -80.5 -17t-60.5 -54q5 -63 42 -99.5t98 -36.5z" />
    <glyph glyph-name="seven" unicode="7" horiz-adv-x="650" 
d="M268 0h-164l347 540h-388v124h541v-130z" />
    <glyph glyph-name="eight" unicode="8" horiz-adv-x="650" 
d="M494 343q109 -44 109 -162q0 -91 -73.5 -141t-204.5 -50t-204.5 50t-73.5 141q0 108 111 148v2q-91 45 -91 154q0 89 68 139t190 50t190 -50t68 -139q0 -98 -89 -140v-2zM325 550q-57 0 -87 -20.5t-30 -59.5q0 -41 28 -59.5t89 -18.5t89 18.5t28 59.5q0 39 -30 59.5
t-87 20.5zM325 114q65 0 100.5 21t35.5 61q0 42 -33 61t-103 19t-103 -19t-33 -61q0 -40 35.5 -61t100.5 -21z" />
    <glyph glyph-name="nine" unicode="9" horiz-adv-x="650" 
d="M301 674q137 0 212.5 -84.5t75.5 -239.5q0 -84 -21 -150.5t-60.5 -113t-96.5 -71.5t-128 -25q-57 0 -102.5 11t-75.5 32v139h7q60 -58 157 -58q75 0 121 44.5t56 126.5h-2q-30 -27 -72 -42.5t-94 -15.5t-93.5 15.5t-71 44t-45 68.5t-15.5 89q0 52 18 94.5t50.5 72.5
t78 46.5t101.5 16.5zM304 343q45 0 80.5 17t60.5 54q-5 63 -42 99.5t-98 36.5q-50 0 -80 -28t-30 -76t29.5 -75.5t79.5 -27.5z" />
    <glyph glyph-name="colon" unicode=":" horiz-adv-x="275" 
d="M138 155q35 0 58.5 -24t23.5 -59t-23.5 -58.5t-58.5 -23.5q-36 0 -59.5 23.5t-23.5 58.5t23.5 59t59.5 24zM138 470q35 0 58.5 -24t23.5 -59t-23.5 -58.5t-58.5 -23.5q-36 0 -59.5 23.5t-23.5 58.5t23.5 59t59.5 24z" />
    <glyph glyph-name="semicolon" unicode=";" horiz-adv-x="275" 
d="M85 145h135l-121 -251h-106zM138 470q35 0 58.5 -24t23.5 -59t-23.5 -58.5t-58.5 -23.5q-36 0 -59.5 23.5t-23.5 58.5t23.5 59t59.5 24z" />
    <glyph glyph-name="less" unicode="&#x3c;" horiz-adv-x="650" 
d="M584 155v-127l-515 222v100l515 222v-126l-352 -145v-2z" />
    <glyph glyph-name="equal" unicode="=" horiz-adv-x="650" 
d="M57 491h536v-116h-536v116zM57 225h536v-116h-536v116z" />
    <glyph glyph-name="greater" unicode="&#x3e;" horiz-adv-x="650" 
d="M66 445v127l515 -222v-100l-515 -222v126l352 145v2z" />
    <glyph glyph-name="question" unicode="?" horiz-adv-x="497" 
d="M229 674q114 0 178.5 -51.5t64.5 -142.5q0 -75 -46.5 -123t-151.5 -82v-61h-128v142q100 21 142.5 47.5t42.5 69.5q0 36 -27 56.5t-75 20.5q-57 0 -108.5 -21.5t-89.5 -60.5h-7v148q39 28 92.5 43t112.5 15zM210 155q35 0 58.5 -24t23.5 -59t-23.5 -58.5t-58.5 -23.5
t-59 23.5t-24 58.5t24 59t59 24z" />
    <glyph glyph-name="at" unicode="@" horiz-adv-x="774" 
d="M568 224q0 -23 7.5 -33t22.5 -10q29 0 47 32.5t18 95.5q0 58 -18 105.5t-51.5 81.5t-82.5 53t-110 19q-59 0 -108.5 -22t-85.5 -61t-56.5 -92.5t-20.5 -116.5q0 -62 22 -113.5t60.5 -88.5t92 -57.5t116.5 -20.5t119.5 18t98.5 50h5v-77q-89 -57 -223 -57
q-82 0 -150.5 25.5t-118.5 71t-78 109t-28 140.5q0 78 26.5 143.5t74 113t112.5 74.5t142 27q78 0 140.5 -24t106.5 -67.5t67.5 -103.5t23.5 -132q0 -48 -11.5 -85.5t-31.5 -63.5t-48 -39.5t-61 -13.5q-68 0 -87 59h-2q-17 -28 -47.5 -43.5t-71.5 -15.5q-36 0 -67 13
t-53 36.5t-34.5 56t-12.5 70.5t12.5 70.5t34.5 56t53 36.5t67 13q38 0 67 -13.5t46 -38.5h2l2 45h72v-226zM393 181q42 0 67.5 27.5t25.5 72.5t-25.5 72t-67.5 27t-68 -27t-26 -72t26 -72.5t68 -27.5z" />
    <glyph glyph-name="A" unicode="A" horiz-adv-x="737" 
d="M519 112h-305l-45 -112h-155l283 664h143l283 -664h-159zM365 494l-101 -255h205l-102 255h-2z" />
    <glyph glyph-name="B" unicode="B" horiz-adv-x="648" 
d="M508 338q110 -36 110 -153q0 -92 -59.5 -138.5t-176.5 -46.5h-311v664h286q118 0 177.5 -46t59.5 -137q0 -102 -86 -141v-2zM345 396q52 0 76 17t24 52q0 67 -90 67h-136v-136h126zM377 132q91 0 91 69q0 71 -100 71h-149v-140h158z" />
    <glyph glyph-name="C" unicode="C" horiz-adv-x="637" 
d="M386 674q69 0 116.5 -12.5t87.5 -39.5v-162h-7q-32 40 -80.5 61t-109.5 21q-48 0 -87 -15t-67 -42.5t-43 -66.5t-15 -86t15 -86t43 -66.5t67 -42.5t87 -15q60 0 109 20.5t81 61.5h7v-162q-40 -26 -87.5 -39t-116.5 -13q-80 0 -145 25.5t-112 70.5t-72.5 108t-25.5 138
t25.5 138t72.5 108t112 70.5t145 25.5z" />
    <glyph glyph-name="D" unicode="D" horiz-adv-x="722" 
d="M338 664q171 0 262.5 -86.5t91.5 -245.5t-91.5 -245.5t-262.5 -86.5h-267v664h267zM329 132q105 0 159 51t54 149t-54 149t-159 51h-110v-400h110z" />
    <glyph glyph-name="E" unicode="E" horiz-adv-x="616" 
d="M496 271h-277v-139h349v-132h-497v664h497v-132h-349v-137h277v-124z" />
    <glyph glyph-name="F" unicode="F" horiz-adv-x="598" 
d="M496 386v-132h-277v-254h-148v664h497v-132h-349v-146h277z" />
    <glyph glyph-name="G" unicode="G" horiz-adv-x="700" 
d="M407 542q-51 0 -93 -15t-71.5 -42t-45.5 -66t-16 -87t16 -87t45.5 -66t71.5 -42t93 -15q45 0 86 9v113h-146v124h289v-326q-48 -27 -104 -39.5t-131 -12.5q-85 0 -153.5 24t-116.5 68.5t-74 108t-26 141.5t26 141.5t74 108t116.5 68.5t153.5 24q75 0 131 -12.5t104 -39.5
v-162h-7q-85 82 -222 82z" />
    <glyph glyph-name="H" unicode="H" horiz-adv-x="734" 
d="M514 0v268h-295v-268h-148v664h148v-264h295v264h149v-664h-149z" />
    <glyph glyph-name="I" unicode="I" horiz-adv-x="290" 
d="M71 664h148v-664h-148v664z" />
    <glyph glyph-name="J" unicode="J" horiz-adv-x="512" 
d="M456 239q0 -249 -249 -249q-108 0 -181 52v156h7q24 -35 67 -55.5t90 -20.5q59 0 88.5 31.5t29.5 100.5v410h148v-425z" />
    <glyph glyph-name="K" unicode="K" horiz-adv-x="673" 
d="M219 0h-148v664h148v-279l244 279h187l-297 -326l307 -338h-195l-246 282v-282z" />
    <glyph glyph-name="L" unicode="L" horiz-adv-x="580" 
d="M71 0v664h148v-532h335v-132h-483z" />
    <glyph glyph-name="M" unicode="M" horiz-adv-x="949" 
d="M730 0v500h-2l-192 -500h-134l-186 486h-2v-486h-143v664h222l178 -463h2l178 463h227v-664h-148z" />
    <glyph glyph-name="N" unicode="N" horiz-adv-x="741" 
d="M216 493h-2v-493h-143v664h203l251 -446h2v446h143v-664h-178z" />
    <glyph glyph-name="O" unicode="O" horiz-adv-x="760" 
d="M380 674q77 0 141 -25.5t110.5 -70.5t72 -108t25.5 -138t-25.5 -138t-72 -108t-110.5 -70.5t-141 -25.5t-141 25.5t-110.5 70.5t-72 108t-25.5 138t25.5 138t72 108t110.5 70.5t141 25.5zM380 542q-44 0 -81 -15.5t-63 -43t-40.5 -66.5t-14.5 -85q0 -47 14.5 -85.5
t40.5 -66t63 -43t81 -15.5t80.5 15.5t63 43t41 66t14.5 85.5q0 46 -14.5 85t-41 66.5t-63 43t-80.5 15.5z" />
    <glyph glyph-name="P" unicode="P" horiz-adv-x="642" 
d="M364 664q251 0 251 -221q0 -220 -251 -220h-145v-223h-148v664h293zM357 355q56 0 82 21.5t26 66.5q0 46 -26 67.5t-82 21.5h-138v-177h138z" />
    <glyph glyph-name="Q" unicode="Q" horiz-adv-x="758" 
d="M510 11q-60 -21 -130 -21q-77 0 -141 25.5t-110.5 70.5t-72 108t-25.5 138t25.5 138t72 108t110.5 70.5t141 25.5t141 -25.5t110.5 -70.5t72 -108t25.5 -138q0 -79 -28.5 -144.5t-79.5 -111.5l117 -152h-162zM380 122q25 0 42 4l-110 144h161l60 -79q22 27 34 63t12 78
q0 46 -14.5 85t-41 66.5t-63 43t-80.5 15.5t-81 -15.5t-63 -43t-40.5 -66.5t-14.5 -85q0 -47 14.5 -85.5t40.5 -66t63 -43t81 -15.5z" />
    <glyph glyph-name="R" unicode="R" horiz-adv-x="669" 
d="M219 0h-148v664h298q251 0 251 -217q0 -160 -139 -201l159 -246h-174l-135 231h-112v-231zM363 363q107 0 107 84q0 85 -107 85h-144v-169h144z" />
    <glyph glyph-name="S" unicode="S" horiz-adv-x="590" 
d="M310 674q63 0 120 -13.5t88 -35.5v-153h-7q-33 34 -86.5 52.5t-116.5 18.5q-55 0 -87 -19.5t-32 -53.5q0 -14 6 -24.5t21 -18.5t39.5 -13.5t61.5 -9.5q66 -7 111.5 -22.5t74.5 -40t42 -60t13 -83.5q0 -100 -69 -154t-197 -54q-166 0 -247 58v153h7q47 -39 107 -59.5
t128 -20.5q124 0 124 73q0 15 -6.5 26t-21.5 19.5t-40.5 14t-63.5 9.5q-64 7 -109 21.5t-73.5 38.5t-41.5 58t-13 80q0 100 70.5 156.5t197.5 56.5z" />
    <glyph glyph-name="T" unicode="T" horiz-adv-x="595" 
d="M372 0h-148v532h-198v132h543v-132h-197v-532z" />
    <glyph glyph-name="U" unicode="U" horiz-adv-x="690" 
d="M634 283q0 -293 -291 -293q-287 0 -287 293v381h148v-371q0 -171 143 -171q144 0 144 171v371h143v-381z" />
    <glyph glyph-name="V" unicode="V" horiz-adv-x="697" 
d="M276 0l-262 664h159l177 -473h2l176 473h155l-262 -664h-145z" />
    <glyph glyph-name="W" unicode="W" horiz-adv-x="1010" 
d="M637 0l-131 423h-2l-132 -423h-150l-205 664h156l130 -443h2l138 443h127l138 -446h2l131 446h152l-205 -664h-151z" />
    <glyph glyph-name="X" unicode="X" horiz-adv-x="721" 
d="M25 0l235 339l-225 325h179l149 -226l149 226h174l-226 -325l236 -339h-179l-159 242l-160 -242h-173z" />
    <glyph glyph-name="Y" unicode="Y" horiz-adv-x="699" 
d="M276 0v272l-272 392h179l169 -257l169 257h174l-271 -392v-272h-148z" />
    <glyph glyph-name="Z" unicode="Z" horiz-adv-x="647" 
d="M47 0v126l353 406h-333v132h529v-126l-353 -406h358v-132h-554z" />
    <glyph glyph-name="bracketleft" unicode="[" horiz-adv-x="403" 
d="M350 -102h-272v766h272v-102h-145v-563h145v-101z" />
    <glyph glyph-name="backslash" unicode="\" horiz-adv-x="425" 
d="M25 694h117l258 -774h-116z" />
    <glyph glyph-name="bracketright" unicode="]" horiz-adv-x="403" 
d="M53 664h272v-766h-272v102h145v563h-145v101z" />
    <glyph glyph-name="asciicircum" unicode="^" horiz-adv-x="650" 
d="M41 276l234 388h100l234 -388h-135l-149 257l-150 -257h-134z" />
    <glyph glyph-name="underscore" unicode="_" horiz-adv-x="500" 
d="M0 -58h500v-85h-500v85z" />
    <glyph glyph-name="grave" unicode="`" horiz-adv-x="500" 
d="M72 708h138l111 -170h-120z" />
    <glyph glyph-name="a" unicode="a" horiz-adv-x="587" 
d="M420 0l-4 63h-2q-23 -35 -61.5 -54t-91.5 -19q-50 0 -92 18.5t-73 51t-48 77.5t-17 98t17 98t48 77.5t73 51t92 18.5q52 0 90.5 -18.5t61.5 -52.5h2l5 61h109v-470h-109zM283 106q53 0 86 36t33 93t-33 93t-86 36q-54 0 -87 -36t-33 -93t33 -93t87 -36z" />
    <glyph glyph-name="b" unicode="b" horiz-adv-x="588" 
d="M327 480q50 0 92 -18.5t73 -51t48 -77.5t17 -98t-17 -98t-48 -77.5t-73 -51t-92 -18.5q-52 0 -91 19t-62 53h-2l-5 -62h-109v700h131v-271h2q49 51 136 51zM305 106q54 0 87 36t33 93t-33 93t-87 36t-86.5 -36t-32.5 -93t32.5 -93t86.5 -36z" />
    <glyph glyph-name="c" unicode="c" horiz-adv-x="476" 
d="M287 480q49 0 84 -8.5t62 -26.5v-140h-5q-46 59 -127 59q-65 0 -101.5 -34.5t-36.5 -94.5q0 -59 36.5 -94t101.5 -35q82 0 127 60h5v-141q-26 -18 -61 -26.5t-85 -8.5q-57 0 -104.5 18t-81 50.5t-52 77.5t-18.5 99t18.5 99t52 77.5t81 50.5t104.5 18z" />
    <glyph glyph-name="d" unicode="d" horiz-adv-x="587" 
d="M420 0l-4 63h-2q-23 -35 -61.5 -54t-91.5 -19q-50 0 -92 18.5t-73 51t-48 77.5t-17 98t17 98t48 77.5t73 51t92 18.5q44 0 77.5 -13t57.5 -37h2v270h131v-700h-109zM283 106q53 0 86 36t33 93t-33 93t-86 36q-54 0 -87 -36t-33 -93t33 -93t87 -36z" />
    <glyph glyph-name="e" unicode="e" horiz-adv-x="544" 
d="M163 202q11 -48 51.5 -73.5t101.5 -25.5q51 0 93 14.5t71 42.5h5v-126q-29 -21 -74.5 -32.5t-100.5 -11.5q-62 0 -113.5 18t-88.5 50t-57 77.5t-20 99.5t18 99t50.5 77.5t77.5 50.5t99 18q55 0 98.5 -16t74.5 -45t47.5 -70.5t16.5 -93.5v-53h-350zM280 367
q-42 0 -74.5 -22t-42.5 -64h232q-7 43 -37.5 64.5t-77.5 21.5z" />
    <glyph glyph-name="f" unicode="f" horiz-adv-x="370" 
d="M270 710q61 0 98 -16v-120h-5q-16 11 -35 15.5t-38 4.5q-32 0 -50 -18.5t-18 -53.5v-52h135v-111h-135v-359h-131v359h-78v111h78v56q0 89 45.5 136.5t133.5 47.5z" />
    <glyph glyph-name="g" unicode="g" horiz-adv-x="587" 
d="M529 38q0 -111 -69.5 -174.5t-192.5 -63.5q-60 0 -108.5 13.5t-80.5 37.5v132h5q26 -31 70.5 -49t97.5 -18q71 0 109 33.5t38 96.5v3h-2q-49 -51 -135 -51q-50 0 -92 17.5t-73 49.5t-48 76.5t-17 97.5t17 97.5t48 76.5t73 49.5t92 17.5q53 0 91.5 -18.5t61.5 -53.5h2
l4 62h109v-432zM283 114q53 0 86 34t33 91t-33 91t-86 34q-54 0 -87 -34t-33 -91t33 -91t87 -34z" />
    <glyph glyph-name="h" unicode="h" horiz-adv-x="553" 
d="M321 480q87 0 135 -52.5t48 -148.5v-279h-131v263q0 49 -22.5 75t-64.5 26q-46 0 -71.5 -29.5t-25.5 -84.5v-250h-131v700h131v-273h2q45 53 130 53z" />
    <glyph glyph-name="i" unicode="i" horiz-adv-x="248" 
d="M124 696q35 0 58 -22.5t23 -57.5q0 -36 -23 -58.5t-58 -22.5t-58 22.5t-23 58.5q0 35 23 57.5t58 22.5zM58 470h131v-470h-131v470z" />
    <glyph glyph-name="j" unicode="j" horiz-adv-x="248" 
d="M124 696q35 0 58 -22.5t23 -57.5q0 -36 -23 -58.5t-58 -22.5t-58 22.5t-23 58.5q0 35 23 57.5t58 22.5zM189 -44q0 -78 -37.5 -117t-106.5 -39q-20 0 -35 2.5t-32 7.5v118h6q15 -12 35 -12q21 0 30 12.5t9 38.5v503h131v-514z" />
    <glyph glyph-name="k" unicode="k" horiz-adv-x="534" 
d="M58 0v700h131v-422l162 192h162l-204 -229l214 -241h-169l-165 197v-197h-131z" />
    <glyph glyph-name="l" unicode="l" horiz-adv-x="247" 
d="M58 700h131v-700h-131v700z" />
    <glyph glyph-name="m" unicode="m" horiz-adv-x="837" 
d="M613 480q85 0 130 -51.5t45 -148.5v-280h-131v265q0 99 -79 99q-88 0 -88 -122v-242h-131v265q0 99 -80 99q-88 0 -88 -112v-252h-131v470h109l5 -63h2q20 35 55 54t83 19t84.5 -19.5t58.5 -57.5h2q22 39 59.5 58t94.5 19z" />
    <glyph glyph-name="n" unicode="n" horiz-adv-x="553" 
d="M321 480q87 0 135 -52.5t48 -148.5v-279h-131v263q0 49 -22.5 75t-64.5 26q-46 0 -71.5 -29.5t-25.5 -84.5v-250h-131v470h109l5 -67h2q21 37 58.5 57t88.5 20z" />
    <glyph glyph-name="o" unicode="o" horiz-adv-x="565" 
d="M283 480q55 0 101 -18t79.5 -50.5t52 -77.5t18.5 -99t-18.5 -99t-52 -77.5t-79.5 -50.5t-101 -18q-56 0 -102 18t-79.5 50.5t-52 77.5t-18.5 99t18.5 99t52 77.5t79.5 50.5t102 18zM283 364q-54 0 -87 -36t-33 -93t33 -93t87 -36q53 0 86 36t33 93t-33 93t-86 36z" />
    <glyph glyph-name="p" unicode="p" horiz-adv-x="588" 
d="M327 480q50 0 92 -18.5t73 -51t48 -77.5t17 -98t-17 -98t-48 -77.5t-73 -51t-92 -18.5q-87 0 -136 51h-2v-231h-131v660h109l5 -62h2q23 35 61.5 53.5t91.5 18.5zM305 106q54 0 87 36t33 93t-33 93t-87 36t-86.5 -36t-32.5 -93t32.5 -93t86.5 -36z" />
    <glyph glyph-name="q" unicode="q" horiz-adv-x="587" 
d="M398 -190v231h-2q-49 -51 -135 -51q-50 0 -92 18.5t-73 51t-48 77.5t-17 98t17 98t48 77.5t73 51t92 18.5q53 0 91.5 -18.5t61.5 -53.5h2l4 62h109v-660h-131zM283 106q53 0 86 36t33 93t-33 93t-86 36q-54 0 -87 -36t-33 -93t33 -93t87 -36z" />
    <glyph glyph-name="r" unicode="r" horiz-adv-x="395" 
d="M315 480q46 0 69 -18v-128h-5q-31 22 -74 22q-60 0 -88 -37.5t-28 -116.5v-202h-131v470h109l6 -73h2q39 83 140 83z" />
    <glyph glyph-name="s" unicode="s" horiz-adv-x="438" 
d="M233 480q43 0 81.5 -8t66.5 -22v-125h-5q-47 47 -140 47q-76 0 -76 -44q0 -16 15.5 -23.5t62.5 -10.5q94 -6 134 -41t40 -110q0 -72 -51 -112.5t-142 -40.5q-118 0 -178 42v126h6q55 -60 166 -60q76 0 76 45q0 19 -18 27.5t-68 13.5q-45 4 -76.5 13.5t-51.5 26t-29 41
t-9 59.5q0 72 53 114t143 42z" />
    <glyph glyph-name="t" unicode="t" horiz-adv-x="391" 
d="M358 6q-33 -16 -92 -16q-86 0 -130.5 45.5t-44.5 135.5v188h-78v111h82l17 132h110v-132h135v-111h-135v-183q0 -34 17 -52t48 -18q18 0 34.5 5.5t31.5 21.5h5v-127z" />
    <glyph glyph-name="u" unicode="u" horiz-adv-x="552" 
d="M385 0l-5 67h-2q-21 -37 -58 -57t-88 -20q-87 0 -135 53t-48 149v278h131v-263q0 -49 22.5 -75t64.5 -26q45 0 70.5 29.5t25.5 84.5v250h131v-470h-109z" />
    <glyph glyph-name="v" unicode="v" horiz-adv-x="508" 
d="M188 0l-182 470h140l109 -325h2l110 325h135l-181 -470h-133z" />
    <glyph glyph-name="w" unicode="w" horiz-adv-x="768" 
d="M605 0h-125l-94 284h-2l-95 -284h-125l-158 470h139l88 -303h2l101 303h103l100 -303h2l88 303h133z" />
    <glyph glyph-name="x" unicode="x" horiz-adv-x="548" 
d="M165 0h-152l178 242l-168 228h158l97 -143l96 143h151l-167 -228l177 -242h-158l-106 158z" />
    <glyph glyph-name="y" unicode="y" horiz-adv-x="508" 
d="M98 -190l89 205l-181 455h140l110 -310h2l109 310h135l-269 -660h-135z" />
    <glyph glyph-name="z" unicode="z" horiz-adv-x="497" 
d="M41 105l237 254h-222v111h395v-105l-237 -254h242v-111h-415v105z" />
    <glyph glyph-name="braceleft" unicode="{" horiz-adv-x="419" 
d="M254 441q0 -68 -19.5 -106t-61.5 -53v-2q42 -15 61.5 -53t19.5 -106v-71q0 -50 50 -50h61v-102h-85q-79 0 -116 37t-37 115v91q0 49 -19 69t-61 20h-23v102h23q42 0 61 20t19 69v91q0 78 37 115t116 37h85v-102h-61q-50 0 -50 -50v-71z" />
    <glyph glyph-name="bar" unicode="|" horiz-adv-x="335" 
d="M119 700h97v-890h-97v890z" />
    <glyph glyph-name="braceright" unicode="}" horiz-adv-x="419" 
d="M165 121q0 68 19.5 106t61.5 53v2q-42 15 -61.5 53t-19.5 106v71q0 50 -50 50h-61v102h85q79 0 116 -37t37 -115v-91q0 -49 19 -69t61 -20h23v-102h-23q-42 0 -61 -20t-19 -69v-91q0 -78 -37 -115t-116 -37h-85v102h61q50 0 50 50v71z" />
    <glyph glyph-name="asciitilde" unicode="~" horiz-adv-x="650" 
d="M212 405q37 0 69.5 -13t76.5 -45q29 -21 45 -28.5t33 -7.5q23 0 44.5 21.5t50.5 72.5l95 -56q-79 -154 -188 -154q-19 0 -35.5 3t-34 10t-36 18t-40.5 27q-29 21 -45 28.5t-33 7.5q-23 0 -44.5 -21.5t-50.5 -72.5l-95 56q79 154 188 154z" />
    <glyph glyph-name="uni00A0" unicode="&#xa0;" horiz-adv-x="220" 
 />
    <glyph glyph-name="exclamdown" unicode="&#xa1;" horiz-adv-x="275" 
d="M215 0h-155l16 450h123zM137 509q-35 0 -58.5 24t-23.5 59t23.5 58.5t58.5 23.5q36 0 59.5 -23.5t23.5 -58.5t-23.5 -59t-59.5 -24z" />
    <glyph glyph-name="cent" unicode="&#xa2;" horiz-adv-x="650" 
d="M534 356q-44 53 -115 60v-264q72 9 115 61h7v-150q-38 -29 -122 -35v-88h-65v88q-58 3 -105.5 23t-81 53.5t-51.5 79t-18 100.5t18 100.5t51.5 79t81 53.5t105.5 23v88h65v-88q78 -6 122 -36v-148h-7zM239 284q0 -54 30 -87.5t85 -42.5v260q-55 -8 -85 -42t-30 -88z" />
    <glyph glyph-name="sterling" unicode="&#xa3;" horiz-adv-x="650" 
d="M399 550q-51 0 -77.5 -29t-26.5 -85v-53h194v-109h-194q-2 -54 -18.5 -89t-51.5 -59v-2h340v-124h-476v130q36 21 51.5 49t15.5 76v19h-67v109h67v68q0 108 57 165.5t164 57.5q57 0 103.5 -12t84.5 -36v-147h-7q-68 71 -159 71z" />
    <glyph glyph-name="currency" unicode="&#xa4;" horiz-adv-x="650" 
d="M522 332q0 -53 -25 -98l72 -69l-77 -77l-69 72q-45 -25 -98 -25t-98 25l-69 -72l-77 77l72 69q-25 45 -25 98t25 98l-72 69l77 77l69 -72q45 25 98 25t98 -25l69 72l77 -77l-72 -69q25 -45 25 -98zM325 237q41 0 67 26.5t26 68.5t-26 68.5t-67 26.5t-67 -26.5t-26 -68.5
t26 -68.5t67 -26.5z" />
    <glyph glyph-name="yen" unicode="&#xa5;" horiz-adv-x="650" 
d="M581 266h-186v-67h186v-89h-186v-110h-139v110h-187v89h187v67h-187v89h179l-215 309h168l127 -199l127 199h162l-215 -309h179v-89z" />
    <glyph glyph-name="brokenbar" unicode="&#xa6;" horiz-adv-x="335" 
d="M119 700h97v-390h-97v390zM119 200h97v-390h-97v390z" />
    <glyph glyph-name="section" unicode="&#xa7;" horiz-adv-x="552" 
d="M426 191q23 -18 37.5 -47.5t14.5 -77.5q0 -79 -55 -123.5t-154 -44.5q-60 0 -109 11t-82 31v119h5q32 -28 78 -42t102 -14q46 0 71 16.5t25 45.5q0 24 -23 37.5t-86 21.5q-105 13 -148.5 52t-43.5 110q0 44 19 76.5t53 53.5v2q-25 17 -40.5 45t-15.5 76q0 80 56 125.5
t156 45.5t162 -33v-117h-5q-26 23 -65.5 34.5t-88.5 11.5q-46 0 -71 -17t-25 -46q0 -23 22 -34.5t81 -18.5q54 -6 92 -19.5t61.5 -34.5t34 -50t10.5 -67q0 -42 -18 -74t-50 -52v-2zM315 231q28 8 43.5 27.5t15.5 47.5q0 32 -26.5 48.5t-97.5 25.5q-33 -5 -52.5 -26
t-19.5 -52q0 -15 5.5 -25.5t18.5 -18.5t35.5 -14t55.5 -10z" />
    <glyph glyph-name="dieresis" unicode="&#xa8;" horiz-adv-x="500" 
d="M144 690q33 0 54 -21t21 -53t-21 -53.5t-54 -21.5t-53 21.5t-20 53.5t20 53t53 21zM356 690q33 0 53 -21t20 -53t-20 -53.5t-53 -21.5t-54 21.5t-21 53.5t21 53t54 21z" />
    <glyph glyph-name="copyright" unicode="&#xa9;" horiz-adv-x="776" 
d="M388 674q73 0 136 -26t108.5 -71.5t71.5 -108.5t26 -136q0 -74 -26 -136.5t-71.5 -108t-108.5 -71.5t-136 -26q-74 0 -136.5 26t-108 71.5t-71.5 108t-26 136.5q0 73 26 136t71.5 108.5t108 71.5t136.5 26zM388 597q-56 0 -103 -19.5t-81.5 -55t-54 -84t-19.5 -106.5
t19.5 -106.5t54 -84t81.5 -55t103 -19.5q55 0 102.5 19.5t82 55t54 84t19.5 106.5t-19.5 106.5t-54 84t-82 55t-102.5 19.5zM399 512q36 0 60.5 -6t45.5 -19v-96h-5q-16 20 -40.5 31.5t-56.5 11.5q-46 0 -74 -28t-28 -74t28 -74t74 -28q65 0 97 43h5v-96q-21 -13 -45.5 -19
t-60.5 -6q-42 0 -76.5 13.5t-59 37.5t-38 57t-13.5 72t13.5 72t38 57t59 37.5t76.5 13.5z" />
    <glyph glyph-name="ordfeminine" unicode="&#xaa;" horiz-adv-x="440" 
d="M300 338l-2 35h-2q-17 -20 -42 -31.5t-57 -11.5q-35 0 -65 13t-51.5 36t-33.5 54.5t-12 69.5q0 37 12 68.5t33.5 54t51.5 35.5t65 13q65 0 99 -43h2l2 34h86v-327h-86zM211 421q34 0 54.5 22.5t20.5 59.5q0 36 -20.5 58t-54.5 22q-32 0 -52.5 -22t-20.5 -58
q0 -37 20.5 -59.5t52.5 -22.5z" />
    <glyph glyph-name="guillemotleft" unicode="&#xab;" horiz-adv-x="517" 
d="M244 12l-217 219v8l217 220v-134l-97 -90l97 -89v-134zM469 12l-217 219v8l217 220v-134l-97 -90l97 -89v-134z" />
    <glyph glyph-name="logicalnot" unicode="&#xac;" horiz-adv-x="650" 
d="M482 92v220h-430v116h546v-336h-116z" />
    <glyph glyph-name="uni00AD" unicode="&#xad;" horiz-adv-x="370" 
d="M42 340h286v-132h-286v132z" />
    <glyph glyph-name="registered" unicode="&#xae;" horiz-adv-x="776" 
d="M388 674q73 0 136 -26t108.5 -71.5t71.5 -108.5t26 -136q0 -74 -26 -136.5t-71.5 -108t-108.5 -71.5t-136 -26q-74 0 -136.5 26t-108 71.5t-71.5 108t-26 136.5q0 73 26 136t71.5 108.5t108 71.5t136.5 26zM388 67q55 0 102.5 19.5t82 55t54 84t19.5 106.5t-19.5 106.5
t-54 84t-82 55t-102.5 19.5q-56 0 -103 -19.5t-81.5 -55t-54 -84t-19.5 -106.5t19.5 -106.5t54 -84t81.5 -55t103 -19.5zM544 391q0 -86 -72 -108l83 -126h-104l-65 117h-47v-117h-87v350h158q134 0 134 -116zM405 349q50 0 50 39q0 41 -50 41h-66v-80h66z" />
    <glyph glyph-name="macron" unicode="&#xaf;" horiz-adv-x="500" 
d="M86 667h328v-103h-328v103z" />
    <glyph glyph-name="degree" unicode="&#xb0;" horiz-adv-x="389" 
d="M195 674q33 0 60.5 -11.5t47.5 -31.5t31.5 -47.5t11.5 -60.5t-11.5 -60.5t-31.5 -48t-47.5 -32t-60.5 -11.5t-60.5 11.5t-48 32t-32 48t-11.5 60.5t11.5 60.5t32 47.5t48 31.5t60.5 11.5zM195 594q-30 0 -49 -19.5t-19 -51.5t19 -52t49 -20t49 20t19 52t-19 51.5
t-49 19.5z" />
    <glyph glyph-name="plusminus" unicode="&#xb1;" horiz-adv-x="650" 
d="M598 116v-116h-546v116h215v174h-215v116h215v202h116v-202h215v-116h-215v-174h215z" />
    <glyph glyph-name="uni00B2" unicode="&#xb2;" 
d="M349 388h-287v90l101 78q27 21 44.5 36.5t28 28t14.5 24t4 23.5q0 50 -68 50q-31 0 -60.5 -12.5t-53.5 -37.5h-5v102q23 16 55.5 25t67.5 9q76 0 117.5 -32.5t41.5 -94.5q0 -23 -5.5 -42t-19 -38t-37 -40.5t-58.5 -48.5l-42 -32v-2h162v-86z" />
    <glyph glyph-name="uni00B3" unicode="&#xb3;" 
d="M303 596q57 -29 57 -95q0 -57 -42 -88t-119 -31q-42 0 -78.5 10t-56.5 27v102h5q20 -25 54 -39t74 -14q32 0 50 11t18 35q0 42 -72 42h-53v78h46q39 0 56.5 9.5t17.5 30.5q0 24 -17 34t-49 10q-33 0 -64.5 -13t-52.5 -36h-5v101q23 16 58.5 25t74.5 9q71 0 110 -30.5
t39 -86.5q0 -60 -51 -89v-2z" />
    <glyph glyph-name="acute" unicode="&#xb4;" horiz-adv-x="500" 
d="M291 708h138l-129 -170h-120z" />
    <glyph glyph-name="uni00B5" unicode="&#xb5;" horiz-adv-x="568" 
d="M398 0l-5 67h-2q-43 -77 -147 -77q-28 0 -52 6v-186h-131v660h131v-263q0 -49 22.5 -75t64.5 -26q47 0 72 29.5t25 84.5v250h131v-470h-109z" />
    <glyph glyph-name="paragraph" unicode="&#xb6;" horiz-adv-x="594" 
d="M504 -190h-86v807h-101v-807h-86v452q-199 23 -199 217q0 110 63 165.5t188 55.5h274v-83h-53v-807z" />
    <glyph glyph-name="periodcentered" unicode="&#xb7;" horiz-adv-x="275" 
d="M138 415q35 0 58.5 -24t23.5 -59t-23.5 -58.5t-58.5 -23.5q-36 0 -59.5 23.5t-23.5 58.5t23.5 59t59.5 24z" />
    <glyph glyph-name="cedilla" unicode="&#xb8;" horiz-adv-x="500" 
d="M260 -49q54 0 76.5 -20t22.5 -54q0 -35 -28.5 -56t-94.5 -21q-56 0 -90 14v67h5q17 -9 36 -14t44 -5q17 0 25.5 7t8.5 16q0 24 -37 24q-14 0 -24.5 -1.5t-22.5 -4.5v15l47 82h59l-27 -47v-2z" />
    <glyph glyph-name="uni00B9" unicode="&#xb9;" 
d="M218 388v299l-103 -62v94l121 79h76v-410h-94z" />
    <glyph glyph-name="ordmasculine" unicode="&#xba;" horiz-adv-x="424" 
d="M211 674q39 0 72 -12.5t56.5 -35.5t36.5 -54.5t13 -68.5q0 -38 -13 -70t-36.5 -55t-56.5 -35.5t-72 -12.5q-38 0 -70.5 12.5t-56 35.5t-36.5 55t-13 70q0 37 13 68.5t36.5 54.5t56 35.5t70.5 12.5zM211 583q-32 0 -52.5 -22t-20.5 -58q0 -37 20.5 -59.5t52.5 -22.5
q34 0 54.5 22.5t20.5 59.5q0 36 -20.5 58t-54.5 22z" />
    <glyph glyph-name="guillemotright" unicode="&#xbb;" horiz-adv-x="517" 
d="M273 458l217 -219v-8l-217 -220v134l97 90l-97 89v134zM48 458l217 -219v-8l-217 -220v134l97 90l-97 89v134z" />
    <glyph glyph-name="onequarter" unicode="&#xbc;" horiz-adv-x="978" 
d="M695 664h100l-430 -664h-100zM901 0h-94v71h-200v82l197 257h97v-253h50v-86h-50v-71zM701 157h106v137zM218 254v299l-103 -62v94l121 79h76v-410h-94z" />
    <glyph glyph-name="onehalf" unicode="&#xbd;" horiz-adv-x="978" 
d="M654 664h100l-430 -664h-100zM917 0h-287v90l101 78q27 21 44.5 36.5t28 28t14.5 24t4 23.5q0 50 -68 50q-31 0 -60.5 -12.5t-53.5 -37.5h-5v102q23 16 55.5 25t67.5 9q76 0 117.5 -32.5t41.5 -94.5q0 -23 -5.5 -42t-19 -38t-37 -40.5t-58.5 -48.5l-42 -32v-2h162v-86z
M218 254v299l-103 -62v94l121 79h76v-410h-94z" />
    <glyph glyph-name="threequarters" unicode="&#xbe;" horiz-adv-x="978" 
d="M697 664h100l-430 -664h-100zM901 0h-94v71h-200v82l197 257h97v-253h50v-86h-50v-71zM701 157h106v137zM303 462q57 -29 57 -95q0 -57 -42 -88t-119 -31q-42 0 -78.5 10t-56.5 27v102h5q20 -25 54 -39t74 -14q32 0 50 11t18 35q0 42 -72 42h-53v78h46q39 0 56.5 9.5
t17.5 30.5q0 24 -17 34t-49 10q-33 0 -64.5 -13t-52.5 -36h-5v101q23 16 58.5 25t74.5 9q71 0 110 -30.5t39 -86.5q0 -60 -51 -89v-2z" />
    <glyph glyph-name="questiondown" unicode="&#xbf;" horiz-adv-x="497" 
d="M268 -10q-114 0 -178.5 51.5t-64.5 142.5q0 75 46.5 123t151.5 82v61h128v-142q-50 -11 -85.5 -22.5t-57.5 -25.5t-32 -31t-10 -38q0 -36 27 -56.5t75 -20.5q57 0 108.5 21.5t89.5 60.5h7v-148q-39 -28 -92.5 -43t-112.5 -15zM287 509q-35 0 -58.5 24t-23.5 59t23.5 58.5
t58.5 23.5t59 -23.5t24 -58.5t-24 -59t-59 -24z" />
    <glyph glyph-name="Agrave" unicode="&#xc0;" horiz-adv-x="737" 
d="M519 112h-305l-45 -112h-155l283 664h143l283 -664h-159zM365 494l-101 -255h205l-102 255h-2zM186 894h138l111 -170h-120z" />
    <glyph glyph-name="Aacute" unicode="&#xc1;" horiz-adv-x="737" 
d="M519 112h-305l-45 -112h-155l283 664h143l283 -664h-159zM365 494l-101 -255h205l-102 255h-2zM413 894h138l-129 -170h-120z" />
    <glyph glyph-name="Acircumflex" unicode="&#xc2;" horiz-adv-x="737" 
d="M519 112h-305l-45 -112h-155l283 664h143l283 -664h-159zM365 494l-101 -255h205l-102 255h-2zM305 724h-120l123 170h121l123 -170h-120l-63 80z" />
    <glyph glyph-name="Atilde" unicode="&#xc3;" horiz-adv-x="737" 
d="M519 112h-305l-45 -112h-155l283 664h143l283 -664h-159zM365 494l-101 -255h205l-102 255h-2zM533 784q-16 -26 -40 -41t-53 -15q-19 0 -38 5t-43 19q-22 12 -36.5 16.5t-31.5 4.5q-52 0 -81 -55h-5v101q15 26 39.5 41t53.5 15q19 0 38 -5t43 -19q22 -12 36.5 -16.5
t31.5 -4.5q50 0 81 55h5v-101z" />
    <glyph glyph-name="Adieresis" unicode="&#xc4;" horiz-adv-x="737" 
d="M519 112h-305l-45 -112h-155l283 664h143l283 -664h-159zM365 494l-101 -255h205l-102 255h-2zM263 876q33 0 54 -21t21 -53t-21 -53.5t-54 -21.5t-53 21.5t-20 53.5t20 53t53 21zM475 876q33 0 53 -21t20 -53t-20 -53.5t-53 -21.5t-54 21.5t-21 53.5t21 53t54 21z" />
    <glyph glyph-name="Aring" unicode="&#xc5;" horiz-adv-x="737" 
d="M519 112h-305l-45 -112h-155l283 664h143l283 -664h-159zM365 494l-101 -255h205l-102 255h-2zM369 918q48 0 78.5 -30.5t30.5 -78.5t-30.5 -78.5t-78.5 -30.5t-78.5 30.5t-30.5 78.5t30.5 78.5t78.5 30.5zM369 850q-18 0 -29.5 -11t-11.5 -30t11.5 -30t29.5 -11t29.5 11
t11.5 30t-11.5 30t-29.5 11z" />
    <glyph glyph-name="AE" unicode="&#xc6;" horiz-adv-x="1050" 
d="M930 395v-124h-277v-139h349v-132h-497v112h-261l-72 -112h-168l441 664h557v-132h-349v-137h277zM503 517l-178 -278h180v278h-2z" />
    <glyph glyph-name="Ccedilla" unicode="&#xc7;" horiz-adv-x="637" 
d="M393 542q-48 0 -87 -15t-67 -42.5t-43 -66.5t-15 -86t15 -86t43 -66.5t67 -42.5t87 -15q60 0 109 20.5t81 61.5h7v-162q-38 -26 -84 -38.5t-111 -13.5l-21 -37v-2q54 0 76.5 -20t22.5 -54q0 -35 -28.5 -56t-94.5 -21q-56 0 -90 14v67h5q17 -9 36 -14t44 -5q17 0 25.5 7
t8.5 16q0 24 -37 24q-14 0 -24.5 -1.5t-22.5 -4.5v15l43 75q-69 7 -126 35t-97 72.5t-62 103.5t-22 128q0 75 25.5 138t72.5 108t112 70.5t145 25.5q69 0 116.5 -12.5t87.5 -39.5v-162h-7q-32 40 -80.5 61t-109.5 21z" />
    <glyph glyph-name="Egrave" unicode="&#xc8;" horiz-adv-x="616" 
d="M496 271h-277v-139h349v-132h-497v664h497v-132h-349v-137h277v-124zM136 894h138l111 -170h-120z" />
    <glyph glyph-name="Eacute" unicode="&#xc9;" horiz-adv-x="616" 
d="M496 271h-277v-139h349v-132h-497v664h497v-132h-349v-137h277v-124zM363 894h138l-129 -170h-120z" />
    <glyph glyph-name="Ecircumflex" unicode="&#xca;" horiz-adv-x="616" 
d="M496 271h-277v-139h349v-132h-497v664h497v-132h-349v-137h277v-124zM255 724h-120l123 170h121l123 -170h-120l-63 80z" />
    <glyph glyph-name="Edieresis" unicode="&#xcb;" horiz-adv-x="616" 
d="M496 271h-277v-139h349v-132h-497v664h497v-132h-349v-137h277v-124zM213 876q33 0 54 -21t21 -53t-21 -53.5t-54 -21.5t-53 21.5t-20 53.5t20 53t53 21zM425 876q33 0 53 -21t20 -53t-20 -53.5t-53 -21.5t-54 21.5t-21 53.5t21 53t54 21z" />
    <glyph glyph-name="Igrave" unicode="&#xcc;" horiz-adv-x="290" 
d="M71 664h148v-664h-148v664zM-38 894h138l111 -170h-120z" />
    <glyph glyph-name="Iacute" unicode="&#xcd;" horiz-adv-x="290" 
d="M71 664h148v-664h-148v664zM189 894h138l-129 -170h-120z" />
    <glyph glyph-name="Icircumflex" unicode="&#xce;" horiz-adv-x="290" 
d="M71 664h148v-664h-148v664zM81 724h-120l123 170h121l123 -170h-120l-63 80z" />
    <glyph glyph-name="Idieresis" unicode="&#xcf;" horiz-adv-x="290" 
d="M71 664h148v-664h-148v664zM39 876q33 0 54 -21t21 -53t-21 -53.5t-54 -21.5t-53 21.5t-20 53.5t20 53t53 21zM251 876q33 0 53 -21t20 -53t-20 -53.5t-53 -21.5t-54 21.5t-21 53.5t21 53t54 21z" />
    <glyph glyph-name="Eth" unicode="&#xd0;" horiz-adv-x="739" 
d="M355 664q171 0 262.5 -86.5t91.5 -245.5t-91.5 -245.5t-262.5 -86.5h-267v277h-69v115h69v272h267zM346 132q105 0 159 51t54 149t-54 149t-159 51h-110v-140h144v-115h-144v-145h110z" />
    <glyph glyph-name="Ntilde" unicode="&#xd1;" horiz-adv-x="741" 
d="M216 493h-2v-493h-143v664h203l251 -446h2v446h143v-664h-178zM534 784q-16 -26 -40 -41t-53 -15q-19 0 -38 5t-43 19q-22 12 -36.5 16.5t-31.5 4.5q-52 0 -81 -55h-5v101q15 26 39.5 41t53.5 15q19 0 38 -5t43 -19q22 -12 36.5 -16.5t31.5 -4.5q50 0 81 55h5v-101z" />
    <glyph glyph-name="Ograve" unicode="&#xd2;" horiz-adv-x="760" 
d="M380 674q77 0 141 -25.5t110.5 -70.5t72 -108t25.5 -138t-25.5 -138t-72 -108t-110.5 -70.5t-141 -25.5t-141 25.5t-110.5 70.5t-72 108t-25.5 138t25.5 138t72 108t110.5 70.5t141 25.5zM380 542q-44 0 -81 -15.5t-63 -43t-40.5 -66.5t-14.5 -85q0 -47 14.5 -85.5
t40.5 -66t63 -43t81 -15.5t80.5 15.5t63 43t41 66t14.5 85.5q0 46 -14.5 85t-41 66.5t-63 43t-80.5 15.5zM197 894h138l111 -170h-120z" />
    <glyph glyph-name="Oacute" unicode="&#xd3;" horiz-adv-x="760" 
d="M380 674q77 0 141 -25.5t110.5 -70.5t72 -108t25.5 -138t-25.5 -138t-72 -108t-110.5 -70.5t-141 -25.5t-141 25.5t-110.5 70.5t-72 108t-25.5 138t25.5 138t72 108t110.5 70.5t141 25.5zM380 542q-44 0 -81 -15.5t-63 -43t-40.5 -66.5t-14.5 -85q0 -47 14.5 -85.5
t40.5 -66t63 -43t81 -15.5t80.5 15.5t63 43t41 66t14.5 85.5q0 46 -14.5 85t-41 66.5t-63 43t-80.5 15.5zM424 894h138l-129 -170h-120z" />
    <glyph glyph-name="Ocircumflex" unicode="&#xd4;" horiz-adv-x="760" 
d="M380 674q77 0 141 -25.5t110.5 -70.5t72 -108t25.5 -138t-25.5 -138t-72 -108t-110.5 -70.5t-141 -25.5t-141 25.5t-110.5 70.5t-72 108t-25.5 138t25.5 138t72 108t110.5 70.5t141 25.5zM380 542q-44 0 -81 -15.5t-63 -43t-40.5 -66.5t-14.5 -85q0 -47 14.5 -85.5
t40.5 -66t63 -43t81 -15.5t80.5 15.5t63 43t41 66t14.5 85.5q0 46 -14.5 85t-41 66.5t-63 43t-80.5 15.5zM316 724h-120l123 170h121l123 -170h-120l-63 80z" />
    <glyph glyph-name="Otilde" unicode="&#xd5;" horiz-adv-x="760" 
d="M380 674q77 0 141 -25.5t110.5 -70.5t72 -108t25.5 -138t-25.5 -138t-72 -108t-110.5 -70.5t-141 -25.5t-141 25.5t-110.5 70.5t-72 108t-25.5 138t25.5 138t72 108t110.5 70.5t141 25.5zM380 542q-44 0 -81 -15.5t-63 -43t-40.5 -66.5t-14.5 -85q0 -47 14.5 -85.5
t40.5 -66t63 -43t81 -15.5t80.5 15.5t63 43t41 66t14.5 85.5q0 46 -14.5 85t-41 66.5t-63 43t-80.5 15.5zM544 784q-16 -26 -40 -41t-53 -15q-19 0 -38 5t-43 19q-22 12 -36.5 16.5t-31.5 4.5q-52 0 -81 -55h-5v101q15 26 39.5 41t53.5 15q19 0 38 -5t43 -19
q22 -12 36.5 -16.5t31.5 -4.5q50 0 81 55h5v-101z" />
    <glyph glyph-name="Odieresis" unicode="&#xd6;" horiz-adv-x="760" 
d="M380 674q77 0 141 -25.5t110.5 -70.5t72 -108t25.5 -138t-25.5 -138t-72 -108t-110.5 -70.5t-141 -25.5t-141 25.5t-110.5 70.5t-72 108t-25.5 138t25.5 138t72 108t110.5 70.5t141 25.5zM380 542q-44 0 -81 -15.5t-63 -43t-40.5 -66.5t-14.5 -85q0 -47 14.5 -85.5
t40.5 -66t63 -43t81 -15.5t80.5 15.5t63 43t41 66t14.5 85.5q0 46 -14.5 85t-41 66.5t-63 43t-80.5 15.5zM274 876q33 0 54 -21t21 -53t-21 -53.5t-54 -21.5t-53 21.5t-20 53.5t20 53t53 21zM486 876q33 0 53 -21t20 -53t-20 -53.5t-53 -21.5t-54 21.5t-21 53.5t21 53t54 21
z" />
    <glyph glyph-name="multiply" unicode="&#xd7;" horiz-adv-x="650" 
d="M513 30l-188 188l-188 -188l-82 82l188 188l-188 188l82 82l188 -188l188 188l82 -82l-188 -188l188 -188z" />
    <glyph glyph-name="Oslash" unicode="&#xd8;" horiz-adv-x="760" 
d="M645 564q40 -45 62 -104t22 -128q0 -75 -25.5 -138t-72 -108t-110.5 -70.5t-141 -25.5q-101 0 -179 43l-28 -33h-142l84 100q-40 45 -62 104t-22 128q0 75 25.5 138t72 108t110.5 70.5t141 25.5q101 0 179 -43l28 33h142zM181 332q0 -34 8 -63.5t22 -53.5l258 308
q-41 19 -89 19q-44 0 -81 -15.5t-63 -43t-40.5 -66.5t-14.5 -85zM579 332q0 34 -8 63.5t-22 53.5l-258 -308q41 -19 89 -19q44 0 80.5 15.5t63 43t41 66t14.5 85.5z" />
    <glyph glyph-name="Ugrave" unicode="&#xd9;" horiz-adv-x="690" 
d="M634 283q0 -293 -291 -293q-287 0 -287 293v381h148v-371q0 -171 143 -171q144 0 144 171v371h143v-381zM162 894h138l111 -170h-120z" />
    <glyph glyph-name="Uacute" unicode="&#xda;" horiz-adv-x="690" 
d="M634 283q0 -293 -291 -293q-287 0 -287 293v381h148v-371q0 -171 143 -171q144 0 144 171v371h143v-381zM389 894h138l-129 -170h-120z" />
    <glyph glyph-name="Ucircumflex" unicode="&#xdb;" horiz-adv-x="690" 
d="M634 283q0 -293 -291 -293q-287 0 -287 293v381h148v-371q0 -171 143 -171q144 0 144 171v371h143v-381zM281 724h-120l123 170h121l123 -170h-120l-63 80z" />
    <glyph glyph-name="Udieresis" unicode="&#xdc;" horiz-adv-x="690" 
d="M634 283q0 -293 -291 -293q-287 0 -287 293v381h148v-371q0 -171 143 -171q144 0 144 171v371h143v-381zM239 876q33 0 54 -21t21 -53t-21 -53.5t-54 -21.5t-53 21.5t-20 53.5t20 53t53 21zM451 876q33 0 53 -21t20 -53t-20 -53.5t-53 -21.5t-54 21.5t-21 53.5t21 53
t54 21z" />
    <glyph glyph-name="Yacute" unicode="&#xdd;" horiz-adv-x="699" 
d="M276 0v272l-272 392h179l169 -257l169 257h174l-271 -392v-272h-148zM394 894h138l-129 -170h-120z" />
    <glyph glyph-name="Thorn" unicode="&#xde;" horiz-adv-x="642" 
d="M364 567q125 0 188 -56t63 -165t-63 -165t-188 -56h-145v-125h-148v664h148v-97h145zM357 257q56 0 82 21.5t26 67.5t-26 67.5t-82 21.5h-138v-178h138z" />
    <glyph glyph-name="germandbls" unicode="&#xdf;" horiz-adv-x="554" 
d="M267 710q90 0 141.5 -45t51.5 -123q0 -45 -14.5 -78.5t-48.5 -62.5q-17 -14 -22 -23.5t-5 -18.5q0 -13 10 -21t39 -18q64 -21 92 -61.5t28 -108.5q0 -78 -45.5 -119t-133.5 -41q-41 0 -76 7.5t-61 21.5v133h5q24 -23 54.5 -34.5t63.5 -11.5q64 0 64 44q0 24 -13.5 38
t-50.5 28q-28 10 -47 22.5t-31 28.5t-17 37t-5 49q0 35 12 62.5t44 57.5q20 19 27 31.5t7 26.5q0 63 -68 63q-79 0 -79 -85v-509h-131v515q0 195 209 195z" />
    <glyph glyph-name="agrave" unicode="&#xe0;" horiz-adv-x="587" 
d="M420 0l-4 63h-2q-23 -35 -61.5 -54t-91.5 -19q-50 0 -92 18.5t-73 51t-48 77.5t-17 98t17 98t48 77.5t73 51t92 18.5q52 0 90.5 -18.5t61.5 -52.5h2l5 61h109v-470h-109zM283 106q53 0 86 36t33 93t-33 93t-86 36q-54 0 -87 -36t-33 -93t33 -93t87 -36zM97 708h138
l111 -170h-120z" />
    <glyph glyph-name="aacute" unicode="&#xe1;" horiz-adv-x="587" 
d="M420 0l-4 63h-2q-23 -35 -61.5 -54t-91.5 -19q-50 0 -92 18.5t-73 51t-48 77.5t-17 98t17 98t48 77.5t73 51t92 18.5q52 0 90.5 -18.5t61.5 -52.5h2l5 61h109v-470h-109zM283 106q53 0 86 36t33 93t-33 93t-86 36q-54 0 -87 -36t-33 -93t33 -93t87 -36zM324 708h138
l-129 -170h-120z" />
    <glyph glyph-name="acircumflex" unicode="&#xe2;" horiz-adv-x="587" 
d="M420 0l-4 63h-2q-23 -35 -61.5 -54t-91.5 -19q-50 0 -92 18.5t-73 51t-48 77.5t-17 98t17 98t48 77.5t73 51t92 18.5q52 0 90.5 -18.5t61.5 -52.5h2l5 61h109v-470h-109zM283 106q53 0 86 36t33 93t-33 93t-86 36q-54 0 -87 -36t-33 -93t33 -93t87 -36zM216 538h-120
l123 170h121l123 -170h-120l-63 80z" />
    <glyph glyph-name="atilde" unicode="&#xe3;" horiz-adv-x="587" 
d="M420 0l-4 63h-2q-23 -35 -61.5 -54t-91.5 -19q-50 0 -92 18.5t-73 51t-48 77.5t-17 98t17 98t48 77.5t73 51t92 18.5q52 0 90.5 -18.5t61.5 -52.5h2l5 61h109v-470h-109zM283 106q53 0 86 36t33 93t-33 93t-86 36q-54 0 -87 -36t-33 -93t33 -93t87 -36zM444 598
q-16 -26 -40 -41t-53 -15q-19 0 -38 5t-43 19q-22 12 -36.5 16.5t-31.5 4.5q-52 0 -81 -55h-5v101q15 26 39.5 41t53.5 15q19 0 38 -5t43 -19q22 -12 36.5 -16.5t31.5 -4.5q50 0 81 55h5v-101z" />
    <glyph glyph-name="adieresis" unicode="&#xe4;" horiz-adv-x="587" 
d="M420 0l-4 63h-2q-23 -35 -61.5 -54t-91.5 -19q-50 0 -92 18.5t-73 51t-48 77.5t-17 98t17 98t48 77.5t73 51t92 18.5q52 0 90.5 -18.5t61.5 -52.5h2l5 61h109v-470h-109zM283 106q53 0 86 36t33 93t-33 93t-86 36q-54 0 -87 -36t-33 -93t33 -93t87 -36zM174 690
q33 0 54 -21t21 -53t-21 -53.5t-54 -21.5t-53 21.5t-20 53.5t20 53t53 21zM386 690q33 0 53 -21t20 -53t-20 -53.5t-53 -21.5t-54 21.5t-21 53.5t21 53t54 21z" />
    <glyph glyph-name="aring" unicode="&#xe5;" horiz-adv-x="587" 
d="M420 0l-4 63h-2q-23 -35 -61.5 -54t-91.5 -19q-50 0 -92 18.5t-73 51t-48 77.5t-17 98t17 98t48 77.5t73 51t92 18.5q52 0 90.5 -18.5t61.5 -52.5h2l5 61h109v-470h-109zM283 106q53 0 86 36t33 93t-33 93t-86 36q-54 0 -87 -36t-33 -93t33 -93t87 -36zM280 732
q48 0 78.5 -30.5t30.5 -78.5t-30.5 -78.5t-78.5 -30.5t-78.5 30.5t-30.5 78.5t30.5 78.5t78.5 30.5zM280 664q-18 0 -29.5 -11t-11.5 -30t11.5 -30t29.5 -11t29.5 11t11.5 30t-11.5 30t-29.5 11z" />
    <glyph glyph-name="ae" unicode="&#xe6;" horiz-adv-x="917" 
d="M531 202q11 -48 52 -73.5t104 -25.5q108 0 167 57h5v-126q-31 -22 -67.5 -33t-91.5 -11q-66 0 -111 19t-71 52h-2l-2 -61h-97l-2 61h-2q-23 -34 -62 -52.5t-90 -18.5q-50 0 -92 18.5t-73 51t-48 77.5t-17 98t17 98t48 77.5t73 51t92 18.5q51 0 89.5 -18t61.5 -51h2l3 59
h97l2 -59h2q23 32 62.5 50.5t93.5 18.5q103 0 158 -58.5t55 -166.5v-53h-356zM283 106q53 0 86 36t33 93t-33 93t-86 36q-54 0 -87 -36t-33 -93t33 -93t87 -36zM769 281q-8 41 -39 63.5t-78 22.5q-48 0 -79 -23.5t-42 -62.5h238z" />
    <glyph glyph-name="ccedilla" unicode="&#xe7;" horiz-adv-x="476" 
d="M301 364q-65 0 -101.5 -34.5t-36.5 -94.5q0 -59 36.5 -94t101.5 -35q82 0 127 60h5v-141q-45 -32 -132 -35l-21 -37v-2q54 0 76.5 -20t22.5 -54q0 -35 -28.5 -56t-94.5 -21q-56 0 -90 14v67h5q17 -9 36 -14t44 -5q17 0 25.5 7t8.5 16q0 24 -37 24q-14 0 -24.5 -1.5
t-22.5 -4.5v15l43 75q-48 6 -87.5 26.5t-67.5 52t-43 73t-15 90.5q0 54 18.5 99t52 77.5t81 50.5t104.5 18q49 0 84 -8.5t62 -26.5v-140h-5q-46 59 -127 59z" />
    <glyph glyph-name="egrave" unicode="&#xe8;" horiz-adv-x="544" 
d="M163 202q11 -48 51.5 -73.5t101.5 -25.5q51 0 93 14.5t71 42.5h5v-126q-29 -21 -74.5 -32.5t-100.5 -11.5q-62 0 -113.5 18t-88.5 50t-57 77.5t-20 99.5t18 99t50.5 77.5t77.5 50.5t99 18q55 0 98.5 -16t74.5 -45t47.5 -70.5t16.5 -93.5v-53h-350zM280 367
q-42 0 -74.5 -22t-42.5 -64h232q-7 43 -37.5 64.5t-77.5 21.5zM95 708h138l111 -170h-120z" />
    <glyph glyph-name="eacute" unicode="&#xe9;" horiz-adv-x="544" 
d="M163 202q11 -48 51.5 -73.5t101.5 -25.5q51 0 93 14.5t71 42.5h5v-126q-29 -21 -74.5 -32.5t-100.5 -11.5q-62 0 -113.5 18t-88.5 50t-57 77.5t-20 99.5t18 99t50.5 77.5t77.5 50.5t99 18q55 0 98.5 -16t74.5 -45t47.5 -70.5t16.5 -93.5v-53h-350zM280 367
q-42 0 -74.5 -22t-42.5 -64h232q-7 43 -37.5 64.5t-77.5 21.5zM322 708h138l-129 -170h-120z" />
    <glyph glyph-name="ecircumflex" unicode="&#xea;" horiz-adv-x="544" 
d="M163 202q11 -48 51.5 -73.5t101.5 -25.5q51 0 93 14.5t71 42.5h5v-126q-29 -21 -74.5 -32.5t-100.5 -11.5q-62 0 -113.5 18t-88.5 50t-57 77.5t-20 99.5t18 99t50.5 77.5t77.5 50.5t99 18q55 0 98.5 -16t74.5 -45t47.5 -70.5t16.5 -93.5v-53h-350zM280 367
q-42 0 -74.5 -22t-42.5 -64h232q-7 43 -37.5 64.5t-77.5 21.5zM214 538h-120l123 170h121l123 -170h-120l-63 80z" />
    <glyph glyph-name="edieresis" unicode="&#xeb;" horiz-adv-x="544" 
d="M163 202q11 -48 51.5 -73.5t101.5 -25.5q51 0 93 14.5t71 42.5h5v-126q-29 -21 -74.5 -32.5t-100.5 -11.5q-62 0 -113.5 18t-88.5 50t-57 77.5t-20 99.5t18 99t50.5 77.5t77.5 50.5t99 18q55 0 98.5 -16t74.5 -45t47.5 -70.5t16.5 -93.5v-53h-350zM280 367
q-42 0 -74.5 -22t-42.5 -64h232q-7 43 -37.5 64.5t-77.5 21.5zM172 690q33 0 54 -21t21 -53t-21 -53.5t-54 -21.5t-53 21.5t-20 53.5t20 53t53 21zM384 690q33 0 53 -21t20 -53t-20 -53.5t-53 -21.5t-54 21.5t-21 53.5t21 53t54 21z" />
    <glyph glyph-name="igrave" unicode="&#xec;" horiz-adv-x="248" 
d="M189 0h-131v470h131v-470zM-59 708h138l111 -170h-120z" />
    <glyph glyph-name="iacute" unicode="&#xed;" horiz-adv-x="248" 
d="M189 0h-131v470h131v-470zM168 708h138l-129 -170h-120z" />
    <glyph glyph-name="icircumflex" unicode="&#xee;" horiz-adv-x="248" 
d="M189 0h-131v470h131v-470zM60 538h-120l123 170h121l123 -170h-120l-63 80z" />
    <glyph glyph-name="idieresis" unicode="&#xef;" horiz-adv-x="248" 
d="M189 0h-131v470h131v-470zM18 690q33 0 54 -21t21 -53t-21 -53.5t-54 -21.5t-53 21.5t-20 53.5t20 53t53 21zM230 690q33 0 53 -21t20 -53t-20 -53.5t-53 -21.5t-54 21.5t-21 53.5t21 53t54 21z" />
    <glyph glyph-name="eth" unicode="&#xf0;" horiz-adv-x="565" 
d="M416 584q58 -69 88 -152t30 -180q0 -60 -18.5 -108.5t-52 -82.5t-79.5 -52.5t-101 -18.5q-56 0 -102 18t-79.5 50.5t-52 77.5t-18.5 99q0 53 17 98t48 77.5t73 51t92 18.5q52 0 89 -20l2 1q-24 42 -60 81l-153 -52v75l94 32q-31 28 -67.5 52t-79.5 46v5h198
q23 -14 40 -28.5t36 -30.5l103 35v-76zM283 106q53 0 86 36t33 93t-33 93t-86 36q-54 0 -87 -36t-33 -93t33 -93t87 -36z" />
    <glyph glyph-name="ntilde" unicode="&#xf1;" horiz-adv-x="553" 
d="M321 480q87 0 135 -52.5t48 -148.5v-279h-131v263q0 49 -22.5 75t-64.5 26q-46 0 -71.5 -29.5t-25.5 -84.5v-250h-131v470h109l5 -67h2q21 37 58.5 57t88.5 20zM441 598q-16 -26 -40 -41t-53 -15q-19 0 -38 5t-43 19q-22 12 -36.5 16.5t-31.5 4.5q-52 0 -81 -55h-5v101
q15 26 39.5 41t53.5 15q19 0 38 -5t43 -19q22 -12 36.5 -16.5t31.5 -4.5q50 0 81 55h5v-101z" />
    <glyph glyph-name="ograve" unicode="&#xf2;" horiz-adv-x="565" 
d="M283 480q55 0 101 -18t79.5 -50.5t52 -77.5t18.5 -99t-18.5 -99t-52 -77.5t-79.5 -50.5t-101 -18q-56 0 -102 18t-79.5 50.5t-52 77.5t-18.5 99t18.5 99t52 77.5t79.5 50.5t102 18zM283 364q-54 0 -87 -36t-33 -93t33 -93t87 -36q53 0 86 36t33 93t-33 93t-86 36z
M100 708h138l111 -170h-120z" />
    <glyph glyph-name="oacute" unicode="&#xf3;" horiz-adv-x="565" 
d="M283 480q55 0 101 -18t79.5 -50.5t52 -77.5t18.5 -99t-18.5 -99t-52 -77.5t-79.5 -50.5t-101 -18q-56 0 -102 18t-79.5 50.5t-52 77.5t-18.5 99t18.5 99t52 77.5t79.5 50.5t102 18zM283 364q-54 0 -87 -36t-33 -93t33 -93t87 -36q53 0 86 36t33 93t-33 93t-86 36z
M327 708h138l-129 -170h-120z" />
    <glyph glyph-name="ocircumflex" unicode="&#xf4;" horiz-adv-x="565" 
d="M283 480q55 0 101 -18t79.5 -50.5t52 -77.5t18.5 -99t-18.5 -99t-52 -77.5t-79.5 -50.5t-101 -18q-56 0 -102 18t-79.5 50.5t-52 77.5t-18.5 99t18.5 99t52 77.5t79.5 50.5t102 18zM283 364q-54 0 -87 -36t-33 -93t33 -93t87 -36q53 0 86 36t33 93t-33 93t-86 36z
M219 538h-120l123 170h121l123 -170h-120l-63 80z" />
    <glyph glyph-name="otilde" unicode="&#xf5;" horiz-adv-x="565" 
d="M283 480q55 0 101 -18t79.5 -50.5t52 -77.5t18.5 -99t-18.5 -99t-52 -77.5t-79.5 -50.5t-101 -18q-56 0 -102 18t-79.5 50.5t-52 77.5t-18.5 99t18.5 99t52 77.5t79.5 50.5t102 18zM283 364q-54 0 -87 -36t-33 -93t33 -93t87 -36q53 0 86 36t33 93t-33 93t-86 36z
M447 598q-16 -26 -40 -41t-53 -15q-19 0 -38 5t-43 19q-22 12 -36.5 16.5t-31.5 4.5q-52 0 -81 -55h-5v101q15 26 39.5 41t53.5 15q19 0 38 -5t43 -19q22 -12 36.5 -16.5t31.5 -4.5q50 0 81 55h5v-101z" />
    <glyph glyph-name="odieresis" unicode="&#xf6;" horiz-adv-x="565" 
d="M283 480q55 0 101 -18t79.5 -50.5t52 -77.5t18.5 -99t-18.5 -99t-52 -77.5t-79.5 -50.5t-101 -18q-56 0 -102 18t-79.5 50.5t-52 77.5t-18.5 99t18.5 99t52 77.5t79.5 50.5t102 18zM283 364q-54 0 -87 -36t-33 -93t33 -93t87 -36q53 0 86 36t33 93t-33 93t-86 36z
M177 690q33 0 54 -21t21 -53t-21 -53.5t-54 -21.5t-53 21.5t-20 53.5t20 53t53 21zM389 690q33 0 53 -21t20 -53t-20 -53.5t-53 -21.5t-54 21.5t-21 53.5t21 53t54 21z" />
    <glyph glyph-name="divide" unicode="&#xf7;" horiz-adv-x="650" 
d="M325 598q32 0 52 -20t20 -52t-20 -52t-52 -20t-52 20t-20 52t20 52t52 20zM41 358h568v-116h-568v116zM325 146q32 0 52 -20t20 -52t-20 -52t-52 -20t-52 20t-20 52t20 52t52 20z" />
    <glyph glyph-name="oslash" unicode="&#xf8;" horiz-adv-x="565" 
d="M477 398q27 -32 42 -73t15 -90q0 -54 -18.5 -99t-52 -77.5t-79.5 -50.5t-101 -18q-60 0 -112 22l-10 -12h-130l58 73q-28 32 -43 73t-15 89q0 54 18.5 99t52 77.5t79.5 50.5t102 18q59 0 111 -22l10 12h130zM163 235q0 -28 10 -56l143 181q-8 2 -16 3t-17 1
q-54 0 -87 -36t-33 -93zM402 235q0 28 -10 56l-143 -181q8 -2 16.5 -3t17.5 -1q53 0 86 36t33 93z" />
    <glyph glyph-name="ugrave" unicode="&#xf9;" horiz-adv-x="552" 
d="M385 0l-5 67h-2q-21 -37 -58 -57t-88 -20q-87 0 -135 53t-48 149v278h131v-263q0 -49 22.5 -75t64.5 -26q45 0 70.5 29.5t25.5 84.5v250h131v-470h-109zM88 708h138l111 -170h-120z" />
    <glyph glyph-name="uacute" unicode="&#xfa;" horiz-adv-x="552" 
d="M385 0l-5 67h-2q-21 -37 -58 -57t-88 -20q-87 0 -135 53t-48 149v278h131v-263q0 -49 22.5 -75t64.5 -26q45 0 70.5 29.5t25.5 84.5v250h131v-470h-109zM315 708h138l-129 -170h-120z" />
    <glyph glyph-name="ucircumflex" unicode="&#xfb;" horiz-adv-x="552" 
d="M385 0l-5 67h-2q-21 -37 -58 -57t-88 -20q-87 0 -135 53t-48 149v278h131v-263q0 -49 22.5 -75t64.5 -26q45 0 70.5 29.5t25.5 84.5v250h131v-470h-109zM207 538h-120l123 170h121l123 -170h-120l-63 80z" />
    <glyph glyph-name="udieresis" unicode="&#xfc;" horiz-adv-x="552" 
d="M385 0l-5 67h-2q-21 -37 -58 -57t-88 -20q-87 0 -135 53t-48 149v278h131v-263q0 -49 22.5 -75t64.5 -26q45 0 70.5 29.5t25.5 84.5v250h131v-470h-109zM165 690q33 0 54 -21t21 -53t-21 -53.5t-54 -21.5t-53 21.5t-20 53.5t20 53t53 21zM377 690q33 0 53 -21t20 -53
t-20 -53.5t-53 -21.5t-54 21.5t-21 53.5t21 53t54 21z" />
    <glyph glyph-name="yacute" unicode="&#xfd;" horiz-adv-x="508" 
d="M98 -190l89 205l-181 455h140l110 -310h2l109 310h135l-269 -660h-135zM298 708h138l-129 -170h-120z" />
    <glyph glyph-name="thorn" unicode="&#xfe;" horiz-adv-x="588" 
d="M327 480q50 0 92 -18.5t73 -51t48 -77.5t17 -98t-17 -98t-48 -77.5t-73 -51t-92 -18.5q-87 0 -136 51h-2v-231h-131v890h131v-271h2q49 51 136 51zM305 106q54 0 87 36t33 93t-33 93t-87 36t-86.5 -36t-32.5 -93t32.5 -93t86.5 -36z" />
    <glyph glyph-name="ydieresis" unicode="&#xff;" horiz-adv-x="508" 
d="M98 -190l89 205l-181 455h140l110 -310h2l109 310h135l-269 -660h-135zM148 690q33 0 54 -21t21 -53t-21 -53.5t-54 -21.5t-53 21.5t-20 53.5t20 53t53 21zM360 690q33 0 53 -21t20 -53t-20 -53.5t-53 -21.5t-54 21.5t-21 53.5t21 53t54 21z" />
    <glyph glyph-name="Amacron" unicode="&#x100;" horiz-adv-x="737" 
d="M519 112h-305l-45 -112h-155l283 664h143l283 -664h-159zM365 494l-101 -255h205l-102 255h-2zM205 853h328v-103h-328v103z" />
    <glyph glyph-name="amacron" unicode="&#x101;" horiz-adv-x="587" 
d="M420 0l-4 63h-2q-23 -35 -61.5 -54t-91.5 -19q-50 0 -92 18.5t-73 51t-48 77.5t-17 98t17 98t48 77.5t73 51t92 18.5q52 0 90.5 -18.5t61.5 -52.5h2l5 61h109v-470h-109zM283 106q53 0 86 36t33 93t-33 93t-86 36q-54 0 -87 -36t-33 -93t33 -93t87 -36zM116 667h328v-103
h-328v103z" />
    <glyph glyph-name="Abreve" unicode="&#x102;" horiz-adv-x="737" 
d="M519 112h-305l-45 -112h-155l283 664h143l283 -664h-159zM365 494l-101 -255h205l-102 255h-2zM542 889q-5 -80 -49 -121.5t-124 -41.5t-124 41.5t-49 121.5h93q5 -33 26.5 -48.5t53.5 -15.5t53.5 15.5t26.5 48.5h93z" />
    <glyph glyph-name="abreve" unicode="&#x103;" horiz-adv-x="587" 
d="M420 0l-4 63h-2q-23 -35 -61.5 -54t-91.5 -19q-50 0 -92 18.5t-73 51t-48 77.5t-17 98t17 98t48 77.5t73 51t92 18.5q52 0 90.5 -18.5t61.5 -52.5h2l5 61h109v-470h-109zM283 106q53 0 86 36t33 93t-33 93t-86 36q-54 0 -87 -36t-33 -93t33 -93t87 -36zM453 703
q-5 -80 -49 -121.5t-124 -41.5t-124 41.5t-49 121.5h93q5 -33 26.5 -48.5t53.5 -15.5t53.5 15.5t26.5 48.5h93z" />
    <glyph glyph-name="Aogonek" unicode="&#x104;" horiz-adv-x="737" 
d="M653 -115q33 0 65 27h5v-95q-17 -8 -38.5 -12.5t-53.5 -4.5q-51 0 -81 24t-30 66q0 32 15 58.5t47 49.5v2h-18l-45 112h-305l-45 -112h-155l283 664h143l283 -664h-37q-32 -14 -51 -34.5t-19 -45.5q0 -16 10.5 -25.5t26.5 -9.5zM365 494l-101 -255h205l-102 255h-2z" />
    <glyph glyph-name="aogonek" unicode="&#x105;" horiz-adv-x="587" 
d="M492 0q-32 -14 -51 -34.5t-19 -45.5q0 -16 10.5 -25.5t26.5 -9.5q33 0 65 27h5v-95q-17 -8 -38.5 -12.5t-53.5 -4.5q-51 0 -81 24t-30 66q0 39 22 70.5t71 55.5l-3 47h-2q-23 -35 -61.5 -54t-91.5 -19q-50 0 -92 18.5t-73 51t-48 77.5t-17 98t17 98t48 77.5t73 51
t92 18.5q52 0 90.5 -18.5t61.5 -52.5h2l5 61h109v-470h-37zM283 106q53 0 86 36t33 93t-33 93t-86 36q-54 0 -87 -36t-33 -93t33 -93t87 -36z" />
    <glyph glyph-name="Cacute" unicode="&#x106;" horiz-adv-x="637" 
d="M386 674q69 0 116.5 -12.5t87.5 -39.5v-162h-7q-32 40 -80.5 61t-109.5 21q-48 0 -87 -15t-67 -42.5t-43 -66.5t-15 -86t15 -86t43 -66.5t67 -42.5t87 -15q60 0 109 20.5t81 61.5h7v-162q-40 -26 -87.5 -39t-116.5 -13q-80 0 -145 25.5t-112 70.5t-72.5 108t-25.5 138
t25.5 138t72.5 108t112 70.5t145 25.5zM401 894h138l-129 -170h-120z" />
    <glyph glyph-name="cacute" unicode="&#x107;" horiz-adv-x="476" 
d="M287 480q49 0 84 -8.5t62 -26.5v-140h-5q-46 59 -127 59q-65 0 -101.5 -34.5t-36.5 -94.5q0 -59 36.5 -94t101.5 -35q82 0 127 60h5v-141q-26 -18 -61 -26.5t-85 -8.5q-57 0 -104.5 18t-81 50.5t-52 77.5t-18.5 99t18.5 99t52 77.5t81 50.5t104.5 18zM314 708h138
l-129 -170h-120z" />
    <glyph glyph-name="Ccircumflex" unicode="&#x108;" horiz-adv-x="637" 
d="M386 674q69 0 116.5 -12.5t87.5 -39.5v-162h-7q-32 40 -80.5 61t-109.5 21q-48 0 -87 -15t-67 -42.5t-43 -66.5t-15 -86t15 -86t43 -66.5t67 -42.5t87 -15q60 0 109 20.5t81 61.5h7v-162q-40 -26 -87.5 -39t-116.5 -13q-80 0 -145 25.5t-112 70.5t-72.5 108t-25.5 138
t25.5 138t72.5 108t112 70.5t145 25.5zM293 724h-120l123 170h121l123 -170h-120l-63 80z" />
    <glyph glyph-name="ccircumflex" unicode="&#x109;" horiz-adv-x="476" 
d="M287 480q49 0 84 -8.5t62 -26.5v-140h-5q-46 59 -127 59q-65 0 -101.5 -34.5t-36.5 -94.5q0 -59 36.5 -94t101.5 -35q82 0 127 60h5v-141q-26 -18 -61 -26.5t-85 -8.5q-57 0 -104.5 18t-81 50.5t-52 77.5t-18.5 99t18.5 99t52 77.5t81 50.5t104.5 18zM206 538h-120
l123 170h121l123 -170h-120l-63 80z" />
    <glyph glyph-name="Cdotaccent" unicode="&#x10a;" horiz-adv-x="637" 
d="M386 674q69 0 116.5 -12.5t87.5 -39.5v-162h-7q-32 40 -80.5 61t-109.5 21q-48 0 -87 -15t-67 -42.5t-43 -66.5t-15 -86t15 -86t43 -66.5t67 -42.5t87 -15q60 0 109 20.5t81 61.5h7v-162q-40 -26 -87.5 -39t-116.5 -13q-80 0 -145 25.5t-112 70.5t-72.5 108t-25.5 138
t25.5 138t72.5 108t112 70.5t145 25.5zM357 883q35 0 58.5 -23t23.5 -58q0 -36 -23.5 -59t-58.5 -23t-58.5 23t-23.5 59q0 35 23.5 58t58.5 23z" />
    <glyph glyph-name="cdotaccent" unicode="&#x10b;" horiz-adv-x="476" 
d="M287 480q49 0 84 -8.5t62 -26.5v-140h-5q-46 59 -127 59q-65 0 -101.5 -34.5t-36.5 -94.5q0 -59 36.5 -94t101.5 -35q82 0 127 60h5v-141q-26 -18 -61 -26.5t-85 -8.5q-57 0 -104.5 18t-81 50.5t-52 77.5t-18.5 99t18.5 99t52 77.5t81 50.5t104.5 18zM270 697
q35 0 58.5 -23t23.5 -58q0 -36 -23.5 -59t-58.5 -23t-58.5 23t-23.5 59q0 35 23.5 58t58.5 23z" />
    <glyph glyph-name="Ccaron" unicode="&#x10c;" horiz-adv-x="637" 
d="M386 674q69 0 116.5 -12.5t87.5 -39.5v-162h-7q-32 40 -80.5 61t-109.5 21q-48 0 -87 -15t-67 -42.5t-43 -66.5t-15 -86t15 -86t43 -66.5t67 -42.5t87 -15q60 0 109 20.5t81 61.5h7v-162q-40 -26 -87.5 -39t-116.5 -13q-80 0 -145 25.5t-112 70.5t-72.5 108t-25.5 138
t25.5 138t72.5 108t112 70.5t145 25.5zM296 724l-123 170h120l64 -80l63 80h120l-123 -170h-121z" />
    <glyph glyph-name="ccaron" unicode="&#x10d;" horiz-adv-x="476" 
d="M287 480q49 0 84 -8.5t62 -26.5v-140h-5q-46 59 -127 59q-65 0 -101.5 -34.5t-36.5 -94.5q0 -59 36.5 -94t101.5 -35q82 0 127 60h5v-141q-26 -18 -61 -26.5t-85 -8.5q-57 0 -104.5 18t-81 50.5t-52 77.5t-18.5 99t18.5 99t52 77.5t81 50.5t104.5 18zM209 538l-123 170
h120l64 -80l63 80h120l-123 -170h-121z" />
    <glyph glyph-name="Dcaron" unicode="&#x10e;" horiz-adv-x="722" 
d="M338 664q171 0 262.5 -86.5t91.5 -245.5t-91.5 -245.5t-262.5 -86.5h-267v664h267zM329 132q105 0 159 51t54 149t-54 149t-159 51h-110v-400h110zM283 724l-123 170h120l64 -80l63 80h120l-123 -170h-121z" />
    <glyph glyph-name="dcaron" unicode="&#x10f;" horiz-adv-x="587" 
d="M420 0l-4 63h-2q-23 -35 -61.5 -54t-91.5 -19q-50 0 -92 18.5t-73 51t-48 77.5t-17 98t17 98t48 77.5t73 51t92 18.5q44 0 77.5 -13t57.5 -37h2v270h131v-700h-109zM283 106q53 0 86 36t33 93t-33 93t-86 36q-54 0 -87 -36t-33 -93t33 -93t87 -36zM588 700h132l-60 -196
h-99z" />
    <glyph glyph-name="Dcroat" unicode="&#x110;" horiz-adv-x="739" 
d="M355 664q171 0 262.5 -86.5t91.5 -245.5t-91.5 -245.5t-262.5 -86.5h-267v277h-69v115h69v272h267zM346 132q105 0 159 51t54 149t-54 149t-159 51h-110v-140h144v-115h-144v-145h110z" />
    <glyph glyph-name="dcroat" unicode="&#x111;" horiz-adv-x="600" 
d="M420 0l-4 63h-2q-23 -35 -61.5 -54t-91.5 -19q-50 0 -92 18.5t-73 51t-48 77.5t-17 98t17 98t48 77.5t73 51t92 18.5q44 0 77.5 -13t57.5 -37h2v94h-150v91h150v85h131v-85h71v-91h-71v-524h-109zM283 106q53 0 86 36t33 93t-33 93t-86 36q-54 0 -87 -36t-33 -93t33 -93
t87 -36z" />
    <glyph glyph-name="Emacron" unicode="&#x112;" horiz-adv-x="616" 
d="M496 271h-277v-139h349v-132h-497v664h497v-132h-349v-137h277v-124zM155 853h328v-103h-328v103z" />
    <glyph glyph-name="emacron" unicode="&#x113;" horiz-adv-x="544" 
d="M163 202q11 -48 51.5 -73.5t101.5 -25.5q51 0 93 14.5t71 42.5h5v-126q-29 -21 -74.5 -32.5t-100.5 -11.5q-62 0 -113.5 18t-88.5 50t-57 77.5t-20 99.5t18 99t50.5 77.5t77.5 50.5t99 18q55 0 98.5 -16t74.5 -45t47.5 -70.5t16.5 -93.5v-53h-350zM280 367
q-42 0 -74.5 -22t-42.5 -64h232q-7 43 -37.5 64.5t-77.5 21.5zM114 667h328v-103h-328v103z" />
    <glyph glyph-name="Ebreve" unicode="&#x114;" horiz-adv-x="616" 
d="M496 271h-277v-139h349v-132h-497v664h497v-132h-349v-137h277v-124zM492 889q-5 -80 -49 -121.5t-124 -41.5t-124 41.5t-49 121.5h93q5 -33 26.5 -48.5t53.5 -15.5t53.5 15.5t26.5 48.5h93z" />
    <glyph glyph-name="ebreve" unicode="&#x115;" horiz-adv-x="544" 
d="M163 202q11 -48 51.5 -73.5t101.5 -25.5q51 0 93 14.5t71 42.5h5v-126q-29 -21 -74.5 -32.5t-100.5 -11.5q-62 0 -113.5 18t-88.5 50t-57 77.5t-20 99.5t18 99t50.5 77.5t77.5 50.5t99 18q55 0 98.5 -16t74.5 -45t47.5 -70.5t16.5 -93.5v-53h-350zM280 367
q-42 0 -74.5 -22t-42.5 -64h232q-7 43 -37.5 64.5t-77.5 21.5zM451 703q-5 -80 -49 -121.5t-124 -41.5t-124 41.5t-49 121.5h93q5 -33 26.5 -48.5t53.5 -15.5t53.5 15.5t26.5 48.5h93z" />
    <glyph glyph-name="Edotaccent" unicode="&#x116;" horiz-adv-x="616" 
d="M496 271h-277v-139h349v-132h-497v664h497v-132h-349v-137h277v-124zM319 883q35 0 58.5 -23t23.5 -58q0 -36 -23.5 -59t-58.5 -23t-58.5 23t-23.5 59q0 35 23.5 58t58.5 23z" />
    <glyph glyph-name="edotaccent" unicode="&#x117;" horiz-adv-x="544" 
d="M163 202q11 -48 51.5 -73.5t101.5 -25.5q51 0 93 14.5t71 42.5h5v-126q-29 -21 -74.5 -32.5t-100.5 -11.5q-62 0 -113.5 18t-88.5 50t-57 77.5t-20 99.5t18 99t50.5 77.5t77.5 50.5t99 18q55 0 98.5 -16t74.5 -45t47.5 -70.5t16.5 -93.5v-53h-350zM280 367
q-42 0 -74.5 -22t-42.5 -64h232q-7 43 -37.5 64.5t-77.5 21.5zM278 697q35 0 58.5 -23t23.5 -58q0 -36 -23.5 -59t-58.5 -23t-58.5 23t-23.5 59q0 35 23.5 58t58.5 23z" />
    <glyph glyph-name="Eogonek" unicode="&#x118;" horiz-adv-x="616" 
d="M496 395v-124h-277v-139h349v-132h-37q-32 -14 -51 -34.5t-19 -45.5q0 -16 10.5 -25.5t26.5 -9.5q33 0 65 27h5v-95q-17 -8 -38.5 -12.5t-53.5 -4.5q-51 0 -81 24t-30 66q0 32 15 58.5t47 49.5v2h-356v664h497v-132h-349v-137h277z" />
    <glyph glyph-name="eogonek" unicode="&#x119;" horiz-adv-x="544" 
d="M513 202h-350q11 -48 51.5 -73.5t101.5 -25.5q51 0 93 14.5t71 42.5h5v-126q-13 -9 -28.5 -16t-34.5 -15q-30 -12 -48 -34.5t-18 -47.5q0 -16 11 -26t27 -10q33 0 65 27h5v-95q-17 -8 -38.5 -12.5t-53.5 -4.5q-51 0 -81 24.5t-30 66.5q0 29 11.5 53t37.5 44v2
q-62 0 -113.5 18t-88.5 50t-57 77.5t-20 99.5t18 99t50.5 77.5t77.5 50.5t99 18q55 0 98.5 -16t74.5 -45t47.5 -70.5t16.5 -93.5v-53zM280 367q-42 0 -74.5 -22t-42.5 -64h232q-7 43 -37.5 64.5t-77.5 21.5z" />
    <glyph glyph-name="Ecaron" unicode="&#x11a;" horiz-adv-x="616" 
d="M496 271h-277v-139h349v-132h-497v664h497v-132h-349v-137h277v-124zM258 724l-123 170h120l64 -80l63 80h120l-123 -170h-121z" />
    <glyph glyph-name="ecaron" unicode="&#x11b;" horiz-adv-x="544" 
d="M163 202q11 -48 51.5 -73.5t101.5 -25.5q51 0 93 14.5t71 42.5h5v-126q-29 -21 -74.5 -32.5t-100.5 -11.5q-62 0 -113.5 18t-88.5 50t-57 77.5t-20 99.5t18 99t50.5 77.5t77.5 50.5t99 18q55 0 98.5 -16t74.5 -45t47.5 -70.5t16.5 -93.5v-53h-350zM280 367
q-42 0 -74.5 -22t-42.5 -64h232q-7 43 -37.5 64.5t-77.5 21.5zM217 538l-123 170h120l64 -80l63 80h120l-123 -170h-121z" />
    <glyph glyph-name="Gcircumflex" unicode="&#x11c;" horiz-adv-x="700" 
d="M407 542q-51 0 -93 -15t-71.5 -42t-45.5 -66t-16 -87t16 -87t45.5 -66t71.5 -42t93 -15q45 0 86 9v113h-146v124h289v-326q-48 -27 -104 -39.5t-131 -12.5q-85 0 -153.5 24t-116.5 68.5t-74 108t-26 141.5t26 141.5t74 108t116.5 68.5t153.5 24q75 0 131 -12.5t104 -39.5
v-162h-7q-85 82 -222 82zM306 724h-120l123 170h121l123 -170h-120l-63 80z" />
    <glyph glyph-name="gcircumflex" unicode="&#x11d;" horiz-adv-x="587" 
d="M529 38q0 -111 -69.5 -174.5t-192.5 -63.5q-60 0 -108.5 13.5t-80.5 37.5v132h5q26 -31 70.5 -49t97.5 -18q71 0 109 33.5t38 96.5v3h-2q-49 -51 -135 -51q-50 0 -92 17.5t-73 49.5t-48 76.5t-17 97.5t17 97.5t48 76.5t73 49.5t92 17.5q53 0 91.5 -18.5t61.5 -53.5h2
l4 62h109v-432zM283 114q53 0 86 34t33 91t-33 91t-86 34q-54 0 -87 -34t-33 -91t33 -91t87 -34zM216 538h-120l123 170h121l123 -170h-120l-63 80z" />
    <glyph glyph-name="Gbreve" unicode="&#x11e;" horiz-adv-x="700" 
d="M407 542q-51 0 -93 -15t-71.5 -42t-45.5 -66t-16 -87t16 -87t45.5 -66t71.5 -42t93 -15q45 0 86 9v113h-146v124h289v-326q-48 -27 -104 -39.5t-131 -12.5q-85 0 -153.5 24t-116.5 68.5t-74 108t-26 141.5t26 141.5t74 108t116.5 68.5t153.5 24q75 0 131 -12.5t104 -39.5
v-162h-7q-85 82 -222 82zM543 889q-5 -80 -49 -121.5t-124 -41.5t-124 41.5t-49 121.5h93q5 -33 26.5 -48.5t53.5 -15.5t53.5 15.5t26.5 48.5h93z" />
    <glyph glyph-name="gbreve" unicode="&#x11f;" horiz-adv-x="587" 
d="M529 38q0 -111 -69.5 -174.5t-192.5 -63.5q-60 0 -108.5 13.5t-80.5 37.5v132h5q26 -31 70.5 -49t97.5 -18q71 0 109 33.5t38 96.5v3h-2q-49 -51 -135 -51q-50 0 -92 17.5t-73 49.5t-48 76.5t-17 97.5t17 97.5t48 76.5t73 49.5t92 17.5q53 0 91.5 -18.5t61.5 -53.5h2
l4 62h109v-432zM283 114q53 0 86 34t33 91t-33 91t-86 34q-54 0 -87 -34t-33 -91t33 -91t87 -34zM453 703q-5 -80 -49 -121.5t-124 -41.5t-124 41.5t-49 121.5h93q5 -33 26.5 -48.5t53.5 -15.5t53.5 15.5t26.5 48.5h93z" />
    <glyph glyph-name="Gdotaccent" unicode="&#x120;" horiz-adv-x="700" 
d="M407 542q-51 0 -93 -15t-71.5 -42t-45.5 -66t-16 -87t16 -87t45.5 -66t71.5 -42t93 -15q45 0 86 9v113h-146v124h289v-326q-48 -27 -104 -39.5t-131 -12.5q-85 0 -153.5 24t-116.5 68.5t-74 108t-26 141.5t26 141.5t74 108t116.5 68.5t153.5 24q75 0 131 -12.5t104 -39.5
v-162h-7q-85 82 -222 82zM370 883q35 0 58.5 -23t23.5 -58q0 -36 -23.5 -59t-58.5 -23t-58.5 23t-23.5 59q0 35 23.5 58t58.5 23z" />
    <glyph glyph-name="gdotaccent" unicode="&#x121;" horiz-adv-x="587" 
d="M529 38q0 -111 -69.5 -174.5t-192.5 -63.5q-60 0 -108.5 13.5t-80.5 37.5v132h5q26 -31 70.5 -49t97.5 -18q71 0 109 33.5t38 96.5v3h-2q-49 -51 -135 -51q-50 0 -92 17.5t-73 49.5t-48 76.5t-17 97.5t17 97.5t48 76.5t73 49.5t92 17.5q53 0 91.5 -18.5t61.5 -53.5h2
l4 62h109v-432zM283 114q53 0 86 34t33 91t-33 91t-86 34q-54 0 -87 -34t-33 -91t33 -91t87 -34zM280 697q35 0 58.5 -23t23.5 -58q0 -36 -23.5 -59t-58.5 -23t-58.5 23t-23.5 59q0 35 23.5 58t58.5 23z" />
    <glyph glyph-name="Gcommaaccent" unicode="&#x122;" horiz-adv-x="700" 
d="M407 542q-51 0 -93 -15t-71.5 -42t-45.5 -66t-16 -87t16 -87t45.5 -66t71.5 -42t93 -15q45 0 86 9v113h-146v124h289v-326q-48 -27 -104 -39.5t-131 -12.5q-85 0 -153.5 24t-116.5 68.5t-74 108t-26 141.5t26 141.5t74 108t116.5 68.5t153.5 24q75 0 131 -12.5t104 -39.5
v-162h-7q-85 82 -222 82zM305 -60h132l-115 -150h-114z" />
    <glyph glyph-name="gcommaaccent" unicode="&#x123;" horiz-adv-x="588" 
d="M340 538h-132l129 170h114zM529 38q0 -111 -69.5 -174.5t-192.5 -63.5q-60 0 -108.5 13.5t-80.5 37.5v132h5q26 -31 70.5 -49t97.5 -18q71 0 109 33.5t38 96.5v3h-2q-49 -51 -135 -51q-50 0 -92 17.5t-73 49.5t-48 76.5t-17 97.5t17 97.5t48 76.5t73 49.5t92 17.5
q53 0 91.5 -18.5t61.5 -53.5h2l4 62h109v-432zM283 114q53 0 86 34t33 91t-33 91t-86 34q-54 0 -87 -34t-33 -91t33 -91t87 -34z" />
    <glyph glyph-name="Hcircumflex" unicode="&#x124;" horiz-adv-x="734" 
d="M514 0v268h-295v-268h-148v664h148v-264h295v264h149v-664h-149zM303 724h-120l123 170h121l123 -170h-120l-63 80z" />
    <glyph glyph-name="hcircumflex" unicode="&#x125;" horiz-adv-x="553" 
d="M321 480q87 0 135 -52.5t48 -148.5v-279h-131v263q0 49 -22.5 75t-64.5 26q-46 0 -71.5 -29.5t-25.5 -84.5v-250h-131v700h131v-273h2q45 53 130 53zM60 755h-120l123 170h121l123 -170h-120l-63 80z" />
    <glyph glyph-name="Hbar" unicode="&#x126;" horiz-adv-x="737" 
d="M665 0h-149v268h-295v-268h-148v472h-51v101h51v91h148v-91h295v91h149v-91h49v-101h-49v-472zM221 400h295v72h-295v-72z" />
    <glyph glyph-name="hbar" unicode="&#x127;" horiz-adv-x="560" 
d="M329 480q87 0 135 -52.5t48 -148.5v-279h-131v263q0 49 -22.5 75t-64.5 26q-46 0 -71.5 -29.5t-25.5 -84.5v-250h-131v524h-66v91h66v85h131v-85h142v-91h-142v-97h2q45 53 130 53z" />
    <glyph glyph-name="Itilde" unicode="&#x128;" horiz-adv-x="290" 
d="M71 664h148v-664h-148v664zM309 784q-16 -26 -40 -41t-53 -15q-19 0 -38 5t-43 19q-22 12 -36.5 16.5t-31.5 4.5q-52 0 -81 -55h-5v101q15 26 39.5 41t53.5 15q19 0 38 -5t43 -19q22 -12 36.5 -16.5t31.5 -4.5q50 0 81 55h5v-101z" />
    <glyph glyph-name="itilde" unicode="&#x129;" horiz-adv-x="248" 
d="M189 0h-131v470h131v-470zM288 598q-16 -26 -40 -41t-53 -15q-19 0 -38 5t-43 19q-22 12 -36.5 16.5t-31.5 4.5q-52 0 -81 -55h-5v101q15 26 39.5 41t53.5 15q19 0 38 -5t43 -19q22 -12 36.5 -16.5t31.5 -4.5q50 0 81 55h5v-101z" />
    <glyph glyph-name="Imacron" unicode="&#x12a;" horiz-adv-x="290" 
d="M71 664h148v-664h-148v664zM-19 853h328v-103h-328v103z" />
    <glyph glyph-name="imacron" unicode="&#x12b;" horiz-adv-x="248" 
d="M189 0h-131v470h131v-470zM-40 667h328v-103h-328v103z" />
    <glyph glyph-name="Ibreve" unicode="&#x12c;" horiz-adv-x="290" 
d="M71 664h148v-664h-148v664zM318 889q-5 -80 -49 -121.5t-124 -41.5t-124 41.5t-49 121.5h93q5 -33 26.5 -48.5t53.5 -15.5t53.5 15.5t26.5 48.5h93z" />
    <glyph glyph-name="ibreve" unicode="&#x12d;" horiz-adv-x="248" 
d="M189 0h-131v470h131v-470zM297 703q-5 -80 -49 -121.5t-124 -41.5t-124 41.5t-49 121.5h93q5 -33 26.5 -48.5t53.5 -15.5t53.5 15.5t26.5 48.5h93z" />
    <glyph glyph-name="Iogonek" unicode="&#x12e;" horiz-adv-x="290" 
d="M227 -183q-17 -8 -38.5 -12.5t-53.5 -4.5q-51 0 -81 24t-30 66q0 32 15 58.5t47 49.5v2h-15v664h148v-664h-34q-30 -15 -48 -35.5t-18 -44.5q0 -16 11 -25.5t27 -9.5q33 0 65 27h5v-95z" />
    <glyph glyph-name="iogonek" unicode="&#x12f;" horiz-adv-x="248" 
d="M126 -115q33 0 65 27h5v-95q-17 -8 -38.5 -12.5t-53.5 -4.5q-51 0 -80.5 24t-29.5 66q0 33 15 60t49 50v470h131v-470h-34q-30 -15 -48 -35.5t-18 -44.5q0 -16 11 -25.5t26 -9.5zM124 696q35 0 58 -22.5t23 -57.5q0 -36 -23 -58.5t-58 -22.5t-58 22.5t-23 58.5
q0 35 23 57.5t58 22.5z" />
    <glyph glyph-name="Idotaccent" unicode="&#x130;" horiz-adv-x="290" 
d="M71 664h148v-664h-148v664zM145 883q35 0 58.5 -23t23.5 -58q0 -36 -23.5 -59t-58.5 -23t-58.5 23t-23.5 59q0 35 23.5 58t58.5 23z" />
    <glyph glyph-name="dotlessi" unicode="&#x131;" horiz-adv-x="248" 
d="M189 0h-131v470h131v-470z" />
    <glyph glyph-name="IJ" unicode="&#x132;" horiz-adv-x="802" 
d="M71 664h148v-664h-148v664zM746 239q0 -249 -249 -249q-108 0 -181 52v156h7q24 -35 67 -55.5t90 -20.5q59 0 88.5 31.5t29.5 100.5v410h148v-425z" />
    <glyph glyph-name="ij" unicode="&#x133;" horiz-adv-x="496" 
d="M124 696q35 0 58 -22.5t23 -57.5q0 -36 -23 -58.5t-58 -22.5t-58 22.5t-23 58.5q0 35 23 57.5t58 22.5zM58 470h131v-470h-131v470zM372 696q35 0 58 -22.5t23 -57.5q0 -36 -23 -58.5t-58 -22.5t-58 22.5t-23 58.5q0 35 23 57.5t58 22.5zM437 -44q0 -78 -37.5 -117
t-106.5 -39q-20 0 -35 2.5t-32 7.5v118h6q15 -12 35 -12q21 0 30 12.5t9 38.5v503h131v-514z" />
    <glyph glyph-name="Jcircumflex" unicode="&#x134;" horiz-adv-x="512" 
d="M456 239q0 -249 -249 -249q-108 0 -181 52v156h7q24 -35 67 -55.5t90 -20.5q59 0 88.5 31.5t29.5 100.5v410h148v-425zM318 724h-120l123 170h121l123 -170h-120l-63 80z" />
    <glyph glyph-name="jcircumflex" unicode="&#x135;" horiz-adv-x="248" 
d="M189 -44q0 -78 -37.5 -117t-106.5 -39q-20 0 -35 2.5t-32 7.5v118h6q15 -12 35 -12q21 0 30 12.5t9 38.5v503h131v-514zM60 538h-120l123 170h121l123 -170h-120l-63 80z" />
    <glyph glyph-name="Kcommaaccent" unicode="&#x136;" horiz-adv-x="673" 
d="M219 0h-148v664h148v-279l244 279h187l-297 -326l307 -338h-195l-246 282v-282zM272 -60h132l-115 -150h-114z" />
    <glyph glyph-name="kcommaaccent" unicode="&#x137;" horiz-adv-x="534" 
d="M58 0v700h131v-422l162 192h162l-204 -229l214 -241h-169l-165 197v-197h-131zM204 -60h132l-115 -150h-114z" />
    <glyph glyph-name="kgreenlandic" unicode="&#x138;" horiz-adv-x="534" 
d="M189 0h-131v470h131v-192l162 192h162l-204 -229l214 -241h-169l-165 197v-197z" />
    <glyph glyph-name="Lacute" unicode="&#x139;" horiz-adv-x="580" 
d="M71 0v664h148v-532h335v-132h-483zM189 894h138l-129 -170h-120z" />
    <glyph glyph-name="lacute" unicode="&#x13a;" horiz-adv-x="247" 
d="M58 700h131v-700h-131v700zM168 925h138l-129 -170h-120z" />
    <glyph glyph-name="Lcommaaccent" unicode="&#x13b;" horiz-adv-x="580" 
d="M71 0v664h148v-532h335v-132h-483zM250 -60h132l-115 -150h-114z" />
    <glyph glyph-name="lcommaaccent" unicode="&#x13c;" horiz-adv-x="247" 
d="M58 700h131v-700h-131v700zM59 -60h132l-115 -150h-114z" />
    <glyph glyph-name="Lcaron" unicode="&#x13d;" horiz-adv-x="580" 
d="M71 0v664h148v-532h335v-132h-483zM310 700h132l-60 -196h-99z" />
    <glyph glyph-name="lcaron" unicode="&#x13e;" horiz-adv-x="330" 
d="M58 700h131v-700h-131v700zM245 700h132l-60 -196h-99z" />
    <glyph glyph-name="Ldot" unicode="&#x13f;" horiz-adv-x="580" 
d="M71 0v664h148v-532h335v-132h-483zM433 413q35 0 58.5 -23t23.5 -58q0 -36 -23.5 -59t-58.5 -23t-58.5 23t-23.5 59q0 35 23.5 58t58.5 23z" />
    <glyph glyph-name="ldot" unicode="&#x140;" horiz-adv-x="342" 
d="M58 700h131v-700h-131v700zM295 413q35 0 58.5 -23t23.5 -58q0 -36 -23.5 -59t-58.5 -23t-58.5 23t-23.5 59q0 35 23.5 58t58.5 23z" />
    <glyph glyph-name="Lslash" unicode="&#x141;" horiz-adv-x="596" 
d="M88 0v187l-69 -40v134l69 40v343h148v-259l228 131v-134l-228 -131v-139h335v-132h-483z" />
    <glyph glyph-name="lslash" unicode="&#x142;" horiz-adv-x="277" 
d="M198 0h-131v220l-66 -40v122l66 40v358h131v-278l78 48v-122l-78 -48v-300z" />
    <glyph glyph-name="Nacute" unicode="&#x143;" horiz-adv-x="741" 
d="M216 493h-2v-493h-143v664h203l251 -446h2v446h143v-664h-178zM414 894h138l-129 -170h-120z" />
    <glyph glyph-name="nacute" unicode="&#x144;" horiz-adv-x="553" 
d="M321 480q87 0 135 -52.5t48 -148.5v-279h-131v263q0 49 -22.5 75t-64.5 26q-46 0 -71.5 -29.5t-25.5 -84.5v-250h-131v470h109l5 -67h2q21 37 58.5 57t88.5 20zM321 708h138l-129 -170h-120z" />
    <glyph glyph-name="Ncommaaccent" unicode="&#x145;" horiz-adv-x="741" 
d="M216 493h-2v-493h-143v664h203l251 -446h2v446h143v-664h-178zM305 -60h132l-115 -150h-114z" />
    <glyph glyph-name="ncommaaccent" unicode="&#x146;" horiz-adv-x="553" 
d="M321 480q87 0 135 -52.5t48 -148.5v-279h-131v263q0 49 -22.5 75t-64.5 26q-46 0 -71.5 -29.5t-25.5 -84.5v-250h-131v470h109l5 -67h2q21 37 58.5 57t88.5 20zM216 -60h132l-115 -150h-114z" />
    <glyph glyph-name="Ncaron" unicode="&#x147;" horiz-adv-x="741" 
d="M216 493h-2v-493h-143v664h203l251 -446h2v446h143v-664h-178zM309 724l-123 170h120l64 -80l63 80h120l-123 -170h-121z" />
    <glyph glyph-name="ncaron" unicode="&#x148;" horiz-adv-x="553" 
d="M321 480q87 0 135 -52.5t48 -148.5v-279h-131v263q0 49 -22.5 75t-64.5 26q-46 0 -71.5 -29.5t-25.5 -84.5v-250h-131v470h109l5 -67h2q21 37 58.5 57t88.5 20zM216 538l-123 170h120l64 -80l63 80h120l-123 -170h-121z" />
    <glyph glyph-name="napostrophe" unicode="&#x149;" horiz-adv-x="553" 
d="M133 700q0 -57 -9.5 -102t-27.5 -73h-103q21 57 21 129v25t-2 21h121zM321 480q87 0 135 -52.5t48 -148.5v-279h-131v263q0 49 -22.5 75t-64.5 26q-46 0 -71.5 -29.5t-25.5 -84.5v-250h-131v470h109l5 -67h2q21 37 58.5 57t88.5 20z" />
    <glyph glyph-name="Eng" unicode="&#x14a;" horiz-adv-x="741" 
d="M670 -44q0 -78 -41 -117t-110 -39q-43 0 -73 10v126h5q16 -12 36 -12q39 0 39 43v50l-310 490h-2v-507h-143v664h205l248 -393h2v393h144v-708z" />
    <glyph glyph-name="eng" unicode="&#x14b;" horiz-adv-x="553" 
d="M321 480q87 0 135 -52.5t48 -148.5v-323q0 -78 -37.5 -117t-106.5 -39q-20 0 -35.5 2.5t-31.5 7.5v118h5q16 -12 36 -12q21 0 30 12.5t9 38.5v296q0 49 -22.5 75t-64.5 26q-46 0 -71.5 -29.5t-25.5 -84.5v-250h-131v470h109l5 -67h2q21 37 58.5 57t88.5 20z" />
    <glyph glyph-name="Omacron" unicode="&#x14c;" horiz-adv-x="760" 
d="M380 674q77 0 141 -25.5t110.5 -70.5t72 -108t25.5 -138t-25.5 -138t-72 -108t-110.5 -70.5t-141 -25.5t-141 25.5t-110.5 70.5t-72 108t-25.5 138t25.5 138t72 108t110.5 70.5t141 25.5zM380 542q-44 0 -81 -15.5t-63 -43t-40.5 -66.5t-14.5 -85q0 -47 14.5 -85.5
t40.5 -66t63 -43t81 -15.5t80.5 15.5t63 43t41 66t14.5 85.5q0 46 -14.5 85t-41 66.5t-63 43t-80.5 15.5zM216 853h328v-103h-328v103z" />
    <glyph glyph-name="omacron" unicode="&#x14d;" horiz-adv-x="565" 
d="M283 480q55 0 101 -18t79.5 -50.5t52 -77.5t18.5 -99t-18.5 -99t-52 -77.5t-79.5 -50.5t-101 -18q-56 0 -102 18t-79.5 50.5t-52 77.5t-18.5 99t18.5 99t52 77.5t79.5 50.5t102 18zM283 364q-54 0 -87 -36t-33 -93t33 -93t87 -36q53 0 86 36t33 93t-33 93t-86 36z
M119 667h328v-103h-328v103z" />
    <glyph glyph-name="Obreve" unicode="&#x14e;" horiz-adv-x="760" 
d="M380 674q77 0 141 -25.5t110.5 -70.5t72 -108t25.5 -138t-25.5 -138t-72 -108t-110.5 -70.5t-141 -25.5t-141 25.5t-110.5 70.5t-72 108t-25.5 138t25.5 138t72 108t110.5 70.5t141 25.5zM380 542q-44 0 -81 -15.5t-63 -43t-40.5 -66.5t-14.5 -85q0 -47 14.5 -85.5
t40.5 -66t63 -43t81 -15.5t80.5 15.5t63 43t41 66t14.5 85.5q0 46 -14.5 85t-41 66.5t-63 43t-80.5 15.5zM553 889q-5 -80 -49 -121.5t-124 -41.5t-124 41.5t-49 121.5h93q5 -33 26.5 -48.5t53.5 -15.5t53.5 15.5t26.5 48.5h93z" />
    <glyph glyph-name="obreve" unicode="&#x14f;" horiz-adv-x="565" 
d="M283 480q55 0 101 -18t79.5 -50.5t52 -77.5t18.5 -99t-18.5 -99t-52 -77.5t-79.5 -50.5t-101 -18q-56 0 -102 18t-79.5 50.5t-52 77.5t-18.5 99t18.5 99t52 77.5t79.5 50.5t102 18zM283 364q-54 0 -87 -36t-33 -93t33 -93t87 -36q53 0 86 36t33 93t-33 93t-86 36z
M456 703q-5 -80 -49 -121.5t-124 -41.5t-124 41.5t-49 121.5h93q5 -33 26.5 -48.5t53.5 -15.5t53.5 15.5t26.5 48.5h93z" />
    <glyph glyph-name="Ohungarumlaut" unicode="&#x150;" horiz-adv-x="760" 
d="M380 674q77 0 141 -25.5t110.5 -70.5t72 -108t25.5 -138t-25.5 -138t-72 -108t-110.5 -70.5t-141 -25.5t-141 25.5t-110.5 70.5t-72 108t-25.5 138t25.5 138t72 108t110.5 70.5t141 25.5zM380 542q-44 0 -81 -15.5t-63 -43t-40.5 -66.5t-14.5 -85q0 -47 14.5 -85.5
t40.5 -66t63 -43t81 -15.5t80.5 15.5t63 43t41 66t14.5 85.5q0 46 -14.5 85t-41 66.5t-63 43t-80.5 15.5zM326 894h132l-129 -170h-114zM521 894h131l-129 -170h-114z" />
    <glyph glyph-name="ohungarumlaut" unicode="&#x151;" horiz-adv-x="565" 
d="M283 480q55 0 101 -18t79.5 -50.5t52 -77.5t18.5 -99t-18.5 -99t-52 -77.5t-79.5 -50.5t-101 -18q-56 0 -102 18t-79.5 50.5t-52 77.5t-18.5 99t18.5 99t52 77.5t79.5 50.5t102 18zM283 364q-54 0 -87 -36t-33 -93t33 -93t87 -36q53 0 86 36t33 93t-33 93t-86 36z
M229 708h132l-129 -170h-114zM424 708h131l-129 -170h-114z" />
    <glyph glyph-name="OE" unicode="&#x152;" horiz-adv-x="1048" 
d="M928 271h-276v-139h348v-132h-616q-170 0 -261.5 86.5t-91.5 245.5t91.5 245.5t261.5 86.5h616v-132h-348v-137h276v-124zM393 532q-105 0 -158.5 -51t-53.5 -149t53.5 -149t158.5 -51h110v400h-110z" />
    <glyph glyph-name="oe" unicode="&#x153;" horiz-adv-x="915" 
d="M884 202h-350q11 -48 51.5 -73.5t101.5 -25.5q51 0 93 14.5t71 42.5h5v-126q-62 -44 -167 -44q-78 0 -133 25.5t-87 74.5h-2q-29 -48 -79.5 -74t-116.5 -26q-53 0 -97 18t-76 50.5t-49.5 77.5t-17.5 99t17.5 99.5t49.5 77.5t76 50t97 18q66 0 116.5 -25.5t79.5 -73.5h2
q29 48 78.5 73.5t115.5 25.5q106 0 163.5 -58.5t57.5 -166.5v-53zM283 106q53 0 86 36t33 93t-33 93t-86 36q-54 0 -87 -36t-33 -93t33 -93t87 -36zM651 367q-42 0 -74.5 -22t-42.5 -64h232q-7 43 -37.5 64.5t-77.5 21.5z" />
    <glyph glyph-name="Racute" unicode="&#x154;" horiz-adv-x="669" 
d="M219 0h-148v664h298q251 0 251 -217q0 -160 -139 -201l159 -246h-174l-135 231h-112v-231zM363 363q107 0 107 84q0 85 -107 85h-144v-169h144zM370 894h138l-129 -170h-120z" />
    <glyph glyph-name="racute" unicode="&#x155;" horiz-adv-x="395" 
d="M315 480q46 0 69 -18v-128h-5q-31 22 -74 22q-60 0 -88 -37.5t-28 -116.5v-202h-131v470h109l6 -73h2q39 83 140 83zM249 708h138l-129 -170h-120z" />
    <glyph glyph-name="Rcommaaccent" unicode="&#x156;" horiz-adv-x="669" 
d="M219 0h-148v664h298q251 0 251 -217q0 -160 -139 -201l159 -246h-174l-135 231h-112v-231zM363 363q107 0 107 84q0 85 -107 85h-144v-169h144zM275 -60h132l-115 -150h-114z" />
    <glyph glyph-name="rcommaaccent" unicode="&#x157;" horiz-adv-x="395" 
d="M315 480q46 0 69 -18v-128h-5q-31 22 -74 22q-60 0 -88 -37.5t-28 -116.5v-202h-131v470h109l6 -73h2q39 83 140 83zM59 -60h132l-115 -150h-114z" />
    <glyph glyph-name="Rcaron" unicode="&#x158;" horiz-adv-x="669" 
d="M219 0h-148v664h298q251 0 251 -217q0 -160 -139 -201l159 -246h-174l-135 231h-112v-231zM363 363q107 0 107 84q0 85 -107 85h-144v-169h144zM265 724l-123 170h120l64 -80l63 80h120l-123 -170h-121z" />
    <glyph glyph-name="rcaron" unicode="&#x159;" horiz-adv-x="395" 
d="M315 480q46 0 69 -18v-128h-5q-31 22 -74 22q-60 0 -88 -37.5t-28 -116.5v-202h-131v470h109l6 -73h2q39 83 140 83zM144 538l-123 170h120l64 -80l63 80h120l-123 -170h-121z" />
    <glyph glyph-name="Sacute" unicode="&#x15a;" horiz-adv-x="590" 
d="M310 674q63 0 120 -13.5t88 -35.5v-153h-7q-33 34 -86.5 52.5t-116.5 18.5q-55 0 -87 -19.5t-32 -53.5q0 -14 6 -24.5t21 -18.5t39.5 -13.5t61.5 -9.5q66 -7 111.5 -22.5t74.5 -40t42 -60t13 -83.5q0 -100 -69 -154t-197 -54q-166 0 -247 58v153h7q47 -39 107 -59.5
t128 -20.5q124 0 124 73q0 15 -6.5 26t-21.5 19.5t-40.5 14t-63.5 9.5q-64 7 -109 21.5t-73.5 38.5t-41.5 58t-13 80q0 100 70.5 156.5t197.5 56.5zM340 894h138l-129 -170h-120z" />
    <glyph glyph-name="sacute" unicode="&#x15b;" horiz-adv-x="438" 
d="M233 480q43 0 81.5 -8t66.5 -22v-125h-5q-47 47 -140 47q-76 0 -76 -44q0 -16 15.5 -23.5t62.5 -10.5q94 -6 134 -41t40 -110q0 -72 -51 -112.5t-142 -40.5q-118 0 -178 42v126h6q55 -60 166 -60q76 0 76 45q0 19 -18 27.5t-68 13.5q-45 4 -76.5 13.5t-51.5 26t-29 41
t-9 59.5q0 72 53 114t143 42zM263 708h138l-129 -170h-120z" />
    <glyph glyph-name="Scircumflex" unicode="&#x15c;" horiz-adv-x="590" 
d="M310 674q63 0 120 -13.5t88 -35.5v-153h-7q-33 34 -86.5 52.5t-116.5 18.5q-55 0 -87 -19.5t-32 -53.5q0 -14 6 -24.5t21 -18.5t39.5 -13.5t61.5 -9.5q66 -7 111.5 -22.5t74.5 -40t42 -60t13 -83.5q0 -100 -69 -154t-197 -54q-166 0 -247 58v153h7q47 -39 107 -59.5
t128 -20.5q124 0 124 73q0 15 -6.5 26t-21.5 19.5t-40.5 14t-63.5 9.5q-64 7 -109 21.5t-73.5 38.5t-41.5 58t-13 80q0 100 70.5 156.5t197.5 56.5zM232 724h-120l123 170h121l123 -170h-120l-63 80z" />
    <glyph glyph-name="scircumflex" unicode="&#x15d;" horiz-adv-x="438" 
d="M233 480q43 0 81.5 -8t66.5 -22v-125h-5q-47 47 -140 47q-76 0 -76 -44q0 -16 15.5 -23.5t62.5 -10.5q94 -6 134 -41t40 -110q0 -72 -51 -112.5t-142 -40.5q-118 0 -178 42v126h6q55 -60 166 -60q76 0 76 45q0 19 -18 27.5t-68 13.5q-45 4 -76.5 13.5t-51.5 26t-29 41
t-9 59.5q0 72 53 114t143 42zM155 538h-120l123 170h121l123 -170h-120l-63 80z" />
    <glyph glyph-name="Scedilla" unicode="&#x15e;" horiz-adv-x="590" 
d="M45 201h7q47 -39 107 -59.5t128 -20.5q124 0 124 73q0 15 -6.5 26t-21.5 19.5t-40.5 14t-63.5 9.5q-64 7 -109 21.5t-73.5 38.5t-41.5 58t-13 80q0 100 70.5 156.5t197.5 56.5q63 0 120 -13.5t88 -35.5v-153h-7q-33 34 -86.5 52.5t-116.5 18.5q-55 0 -87 -19.5t-32 -53.5
q0 -14 6 -24.5t21 -18.5t39.5 -13.5t61.5 -9.5q66 -7 111.5 -22.5t74.5 -40t42 -60t13 -83.5q0 -92 -58 -145t-167 -61l-22 -39v-2q54 0 76.5 -20t22.5 -54q0 -35 -28.5 -56t-94.5 -21q-56 0 -90 14v67h5q17 -9 36 -14t44 -5q17 0 25.5 7t8.5 16q0 24 -37 24
q-14 0 -24.5 -1.5t-22.5 -4.5v15l41 72q-152 3 -228 58v153z" />
    <glyph glyph-name="scedilla" unicode="&#x15f;" horiz-adv-x="438" 
d="M41 158h6q55 -60 166 -60q76 0 76 45q0 19 -18 27.5t-68 13.5q-45 4 -76.5 13.5t-51.5 26t-29 41t-9 59.5q0 72 53 114t143 42q43 0 81.5 -8t66.5 -22v-125h-5q-47 47 -140 47q-76 0 -76 -44q0 -16 15.5 -23.5t62.5 -10.5q94 -6 134 -41t40 -110q0 -64 -40 -103t-113 -48
l-23 -39v-2q54 0 76.5 -20t22.5 -54q0 -35 -28.5 -56t-94.5 -21q-56 0 -90 14v67h5q17 -9 36 -14t44 -5q17 0 25.5 7t8.5 16q0 24 -37 24q-14 0 -24.5 -1.5t-22.5 -4.5v15l41 72q-103 5 -157 42v126z" />
    <glyph glyph-name="Scaron" unicode="&#x160;" horiz-adv-x="590" 
d="M310 674q63 0 120 -13.5t88 -35.5v-153h-7q-33 34 -86.5 52.5t-116.5 18.5q-55 0 -87 -19.5t-32 -53.5q0 -14 6 -24.5t21 -18.5t39.5 -13.5t61.5 -9.5q66 -7 111.5 -22.5t74.5 -40t42 -60t13 -83.5q0 -100 -69 -154t-197 -54q-166 0 -247 58v153h7q47 -39 107 -59.5
t128 -20.5q124 0 124 73q0 15 -6.5 26t-21.5 19.5t-40.5 14t-63.5 9.5q-64 7 -109 21.5t-73.5 38.5t-41.5 58t-13 80q0 100 70.5 156.5t197.5 56.5zM235 724l-123 170h120l64 -80l63 80h120l-123 -170h-121z" />
    <glyph glyph-name="scaron" unicode="&#x161;" horiz-adv-x="438" 
d="M233 480q43 0 81.5 -8t66.5 -22v-125h-5q-47 47 -140 47q-76 0 -76 -44q0 -16 15.5 -23.5t62.5 -10.5q94 -6 134 -41t40 -110q0 -72 -51 -112.5t-142 -40.5q-118 0 -178 42v126h6q55 -60 166 -60q76 0 76 45q0 19 -18 27.5t-68 13.5q-45 4 -76.5 13.5t-51.5 26t-29 41
t-9 59.5q0 72 53 114t143 42zM158 538l-123 170h120l64 -80l63 80h120l-123 -170h-121z" />
    <glyph glyph-name="Tcommaaccent" unicode="&#x162;" horiz-adv-x="595" 
d="M306 -49q54 0 76.5 -20t22.5 -54q0 -35 -28.5 -56t-94.5 -21q-56 0 -90 14v67h5q17 -9 36 -14t44 -5q17 0 25.5 7t8.5 16q0 24 -37 24q-14 0 -24.5 -1.5t-22.5 -4.5v15l47 82h-50v532h-198v132h543v-132h-197v-532h-39l-27 -47v-2z" />
    <glyph glyph-name="tcommaaccent" unicode="&#x163;" horiz-adv-x="391" 
d="M215 -49q54 0 76.5 -20t22.5 -54q0 -35 -28.5 -56t-94.5 -21q-56 0 -90 14v67h5q17 -9 36 -14t44 -5q17 0 25.5 7t8.5 16q0 24 -37 24q-14 0 -24.5 -1.5t-22.5 -4.5v15l50 85q-95 38 -95 168v188h-78v111h82l17 132h110v-132h135v-111h-135v-183q0 -34 17 -52t48 -18
q18 0 34.5 5.5t31.5 21.5h5v-127q-33 -16 -92 -16h-15t-14 1l-22 -38v-2z" />
    <glyph glyph-name="Tcaron" unicode="&#x164;" horiz-adv-x="595" 
d="M372 0h-148v532h-198v132h543v-132h-197v-532zM236 724l-123 170h120l64 -80l63 80h120l-123 -170h-121z" />
    <glyph glyph-name="tcaron" unicode="&#x165;" horiz-adv-x="391" 
d="M358 6q-33 -16 -92 -16q-86 0 -130.5 45.5t-44.5 135.5v188h-78v111h82l17 132h110v-132h135v-111h-135v-183q0 -34 17 -52t48 -18q18 0 34.5 5.5t31.5 21.5h5v-127zM289 700h132l-60 -196h-99z" />
    <glyph glyph-name="Tbar" unicode="&#x166;" horiz-adv-x="595" 
d="M480 388v-101h-108v-287h-148v287h-110v101h110v144h-198v132h543v-132h-197v-144h108z" />
    <glyph glyph-name="tbar" unicode="&#x167;" horiz-adv-x="401" 
d="M360 6q-33 -16 -92 -16q-86 0 -130.5 45.5t-44.5 135.5v37h-68v89h68v62h-78v111h82l17 132h110v-132h135v-111h-135v-62h114v-89h-114v-32q0 -34 17 -52t48 -18q18 0 34.5 5.5t31.5 21.5h5v-127z" />
    <glyph glyph-name="Utilde" unicode="&#x168;" horiz-adv-x="690" 
d="M634 283q0 -293 -291 -293q-287 0 -287 293v381h148v-371q0 -171 143 -171q144 0 144 171v371h143v-381zM509 784q-16 -26 -40 -41t-53 -15q-19 0 -38 5t-43 19q-22 12 -36.5 16.5t-31.5 4.5q-52 0 -81 -55h-5v101q15 26 39.5 41t53.5 15q19 0 38 -5t43 -19
q22 -12 36.5 -16.5t31.5 -4.5q50 0 81 55h5v-101z" />
    <glyph glyph-name="utilde" unicode="&#x169;" horiz-adv-x="552" 
d="M385 0l-5 67h-2q-21 -37 -58 -57t-88 -20q-87 0 -135 53t-48 149v278h131v-263q0 -49 22.5 -75t64.5 -26q45 0 70.5 29.5t25.5 84.5v250h131v-470h-109zM435 598q-16 -26 -40 -41t-53 -15q-19 0 -38 5t-43 19q-22 12 -36.5 16.5t-31.5 4.5q-52 0 -81 -55h-5v101
q15 26 39.5 41t53.5 15q19 0 38 -5t43 -19q22 -12 36.5 -16.5t31.5 -4.5q50 0 81 55h5v-101z" />
    <glyph glyph-name="Umacron" unicode="&#x16a;" horiz-adv-x="690" 
d="M634 283q0 -293 -291 -293q-287 0 -287 293v381h148v-371q0 -171 143 -171q144 0 144 171v371h143v-381zM181 853h328v-103h-328v103z" />
    <glyph glyph-name="umacron" unicode="&#x16b;" horiz-adv-x="552" 
d="M385 0l-5 67h-2q-21 -37 -58 -57t-88 -20q-87 0 -135 53t-48 149v278h131v-263q0 -49 22.5 -75t64.5 -26q45 0 70.5 29.5t25.5 84.5v250h131v-470h-109zM107 667h328v-103h-328v103z" />
    <glyph glyph-name="Ubreve" unicode="&#x16c;" horiz-adv-x="690" 
d="M634 283q0 -293 -291 -293q-287 0 -287 293v381h148v-371q0 -171 143 -171q144 0 144 171v371h143v-381zM518 889q-5 -80 -49 -121.5t-124 -41.5t-124 41.5t-49 121.5h93q5 -33 26.5 -48.5t53.5 -15.5t53.5 15.5t26.5 48.5h93z" />
    <glyph glyph-name="ubreve" unicode="&#x16d;" horiz-adv-x="552" 
d="M385 0l-5 67h-2q-21 -37 -58 -57t-88 -20q-87 0 -135 53t-48 149v278h131v-263q0 -49 22.5 -75t64.5 -26q45 0 70.5 29.5t25.5 84.5v250h131v-470h-109zM444 703q-5 -80 -49 -121.5t-124 -41.5t-124 41.5t-49 121.5h93q5 -33 26.5 -48.5t53.5 -15.5t53.5 15.5t26.5 48.5
h93z" />
    <glyph glyph-name="Uring" unicode="&#x16e;" horiz-adv-x="690" 
d="M634 283q0 -293 -291 -293q-287 0 -287 293v381h148v-371q0 -171 143 -171q144 0 144 171v371h143v-381zM345 918q48 0 78.5 -30.5t30.5 -78.5t-30.5 -78.5t-78.5 -30.5t-78.5 30.5t-30.5 78.5t30.5 78.5t78.5 30.5zM345 850q-18 0 -29.5 -11t-11.5 -30t11.5 -30
t29.5 -11t29.5 11t11.5 30t-11.5 30t-29.5 11z" />
    <glyph glyph-name="uring" unicode="&#x16f;" horiz-adv-x="552" 
d="M385 0l-5 67h-2q-21 -37 -58 -57t-88 -20q-87 0 -135 53t-48 149v278h131v-263q0 -49 22.5 -75t64.5 -26q45 0 70.5 29.5t25.5 84.5v250h131v-470h-109zM271 732q48 0 78.5 -30.5t30.5 -78.5t-30.5 -78.5t-78.5 -30.5t-78.5 30.5t-30.5 78.5t30.5 78.5t78.5 30.5z
M271 664q-18 0 -29.5 -11t-11.5 -30t11.5 -30t29.5 -11t29.5 11t11.5 30t-11.5 30t-29.5 11z" />
    <glyph glyph-name="Uhungarumlaut" unicode="&#x170;" horiz-adv-x="690" 
d="M634 283q0 -293 -291 -293q-287 0 -287 293v381h148v-371q0 -171 143 -171q144 0 144 171v371h143v-381zM291 894h132l-129 -170h-114zM486 894h131l-129 -170h-114z" />
    <glyph glyph-name="uhungarumlaut" unicode="&#x171;" horiz-adv-x="552" 
d="M385 0l-5 67h-2q-21 -37 -58 -57t-88 -20q-87 0 -135 53t-48 149v278h131v-263q0 -49 22.5 -75t64.5 -26q45 0 70.5 29.5t25.5 84.5v250h131v-470h-109zM217 708h132l-129 -170h-114zM412 708h131l-129 -170h-114z" />
    <glyph glyph-name="Uogonek" unicode="&#x172;" horiz-adv-x="690" 
d="M634 283q0 -98 -31.5 -161.5t-95.5 -98.5q-46 -26 -64 -51t-18 -51q0 -16 11 -26t27 -10q33 0 65 27h5v-95q-17 -8 -38.5 -12.5t-53.5 -4.5q-51 0 -81 24.5t-30 66.5q0 28 10 52t35 46v2q-8 -1 -16 -1h-16q-287 0 -287 293v381h148v-371q0 -171 143 -171q144 0 144 171
v371h143v-381z" />
    <glyph glyph-name="uogonek" unicode="&#x173;" horiz-adv-x="552" 
d="M457 0q-32 -14 -51 -34.5t-19 -45.5q0 -16 10.5 -25.5t26.5 -9.5q33 0 65 27h5v-95q-17 -8 -38.5 -12.5t-53.5 -4.5q-51 0 -81 24t-30 66q0 39 22 70.5t71 55.5l-4 51h-2q-21 -37 -58 -57t-88 -20q-87 0 -135 53t-48 149v278h131v-263q0 -49 22.5 -75t64.5 -26
q45 0 70.5 29.5t25.5 84.5v250h131v-470h-37z" />
    <glyph glyph-name="Wcircumflex" unicode="&#x174;" horiz-adv-x="1010" 
d="M637 0l-131 423h-2l-132 -423h-150l-205 664h156l130 -443h2l138 443h127l138 -446h2l131 446h152l-205 -664h-151zM441 724h-120l123 170h121l123 -170h-120l-63 80z" />
    <glyph glyph-name="wcircumflex" unicode="&#x175;" horiz-adv-x="768" 
d="M605 0h-125l-94 284h-2l-95 -284h-125l-158 470h139l88 -303h2l101 303h103l100 -303h2l88 303h133zM320 538h-120l123 170h121l123 -170h-120l-63 80z" />
    <glyph glyph-name="Ycircumflex" unicode="&#x176;" horiz-adv-x="699" 
d="M276 0v272l-272 392h179l169 -257l169 257h174l-271 -392v-272h-148zM286 724h-120l123 170h121l123 -170h-120l-63 80z" />
    <glyph glyph-name="ycircumflex" unicode="&#x177;" horiz-adv-x="508" 
d="M98 -190l89 205l-181 455h140l110 -310h2l109 310h135l-269 -660h-135zM190 538h-120l123 170h121l123 -170h-120l-63 80z" />
    <glyph glyph-name="Ydieresis" unicode="&#x178;" horiz-adv-x="699" 
d="M276 0v272l-272 392h179l169 -257l169 257h174l-271 -392v-272h-148zM244 876q33 0 54 -21t21 -53t-21 -53.5t-54 -21.5t-53 21.5t-20 53.5t20 53t53 21zM456 876q33 0 53 -21t20 -53t-20 -53.5t-53 -21.5t-54 21.5t-21 53.5t21 53t54 21z" />
    <glyph glyph-name="Zacute" unicode="&#x179;" horiz-adv-x="647" 
d="M47 0v126l353 406h-333v132h529v-126l-353 -406h358v-132h-554zM372 894h138l-129 -170h-120z" />
    <glyph glyph-name="zacute" unicode="&#x17a;" horiz-adv-x="497" 
d="M41 105l237 254h-222v111h395v-105l-237 -254h242v-111h-415v105zM296 708h138l-129 -170h-120z" />
    <glyph glyph-name="Zdotaccent" unicode="&#x17b;" horiz-adv-x="647" 
d="M47 0v126l353 406h-333v132h529v-126l-353 -406h358v-132h-554zM328 883q35 0 58.5 -23t23.5 -58q0 -36 -23.5 -59t-58.5 -23t-58.5 23t-23.5 59q0 35 23.5 58t58.5 23z" />
    <glyph glyph-name="zdotaccent" unicode="&#x17c;" horiz-adv-x="497" 
d="M41 105l237 254h-222v111h395v-105l-237 -254h242v-111h-415v105zM252 697q35 0 58.5 -23t23.5 -58q0 -36 -23.5 -59t-58.5 -23t-58.5 23t-23.5 59q0 35 23.5 58t58.5 23z" />
    <glyph glyph-name="Zcaron" unicode="&#x17d;" horiz-adv-x="647" 
d="M47 0v126l353 406h-333v132h529v-126l-353 -406h358v-132h-554zM267 724l-123 170h120l64 -80l63 80h120l-123 -170h-121z" />
    <glyph glyph-name="zcaron" unicode="&#x17e;" horiz-adv-x="497" 
d="M41 105l237 254h-222v111h395v-105l-237 -254h242v-111h-415v105zM191 538l-123 170h120l64 -80l63 80h120l-123 -170h-121z" />
    <glyph glyph-name="florin" unicode="&#x192;" horiz-adv-x="650" 
d="M474 674q62 0 99 -17l-9 -117h-7q-26 18 -65 18q-75 0 -86 -76l-7 -51h136v-112h-152l-29 -209q-12 -88 -60.5 -134t-126.5 -46q-62 0 -99 17l9 117h7q25 -18 65 -18q65 0 76 76l28 197h-118v112h133l9 63q13 88 62.5 134t134.5 46z" />
    <glyph glyph-name="AEacute" unicode="&#x1fc;" horiz-adv-x="1050" 
d="M930 395v-124h-277v-139h349v-132h-497v112h-261l-72 -112h-168l441 664h557v-132h-349v-137h277zM503 517l-178 -278h180v278h-2zM591 894h138l-129 -170h-120z" />
    <glyph glyph-name="aeacute" unicode="&#x1fd;" horiz-adv-x="917" 
d="M531 202q11 -48 52 -73.5t104 -25.5q108 0 167 57h5v-126q-31 -22 -67.5 -33t-91.5 -11q-66 0 -111 19t-71 52h-2l-2 -61h-97l-2 61h-2q-23 -34 -62 -52.5t-90 -18.5q-50 0 -92 18.5t-73 51t-48 77.5t-17 98t17 98t48 77.5t73 51t92 18.5q51 0 89.5 -18t61.5 -51h2l3 59
h97l2 -59h2q23 32 62.5 50.5t93.5 18.5q103 0 158 -58.5t55 -166.5v-53h-356zM283 106q53 0 86 36t33 93t-33 93t-86 36q-54 0 -87 -36t-33 -93t33 -93t87 -36zM769 281q-8 41 -39 63.5t-78 22.5q-48 0 -79 -23.5t-42 -62.5h238zM509 708h138l-129 -170h-120z" />
    <glyph glyph-name="Oslashacute" unicode="&#x1fe;" horiz-adv-x="760" 
d="M645 564q40 -45 62 -104t22 -128q0 -75 -25.5 -138t-72 -108t-110.5 -70.5t-141 -25.5q-101 0 -179 43l-28 -33h-142l84 100q-40 45 -62 104t-22 128q0 75 25.5 138t72 108t110.5 70.5t141 25.5q101 0 179 -43l28 33h142zM181 332q0 -34 8 -63.5t22 -53.5l258 308
q-41 19 -89 19q-44 0 -81 -15.5t-63 -43t-40.5 -66.5t-14.5 -85zM579 332q0 34 -8 63.5t-22 53.5l-258 -308q41 -19 89 -19q44 0 80.5 15.5t63 43t41 66t14.5 85.5zM424 894h138l-129 -170h-120z" />
    <glyph glyph-name="oslashacute" unicode="&#x1ff;" horiz-adv-x="565" 
d="M477 398q27 -32 42 -73t15 -90q0 -54 -18.5 -99t-52 -77.5t-79.5 -50.5t-101 -18q-60 0 -112 22l-10 -12h-130l58 73q-28 32 -43 73t-15 89q0 54 18.5 99t52 77.5t79.5 50.5t102 18q59 0 111 -22l10 12h130zM163 235q0 -28 10 -56l143 181q-8 2 -16 3t-17 1
q-54 0 -87 -36t-33 -93zM402 235q0 28 -10 56l-143 -181q8 -2 16.5 -3t17.5 -1q53 0 86 36t33 93zM334 708h138l-129 -170h-120z" />
    <glyph glyph-name="Scommaaccent" unicode="&#x218;" horiz-adv-x="590" 
d="M310 674q63 0 120 -13.5t88 -35.5v-153h-7q-33 34 -86.5 52.5t-116.5 18.5q-55 0 -87 -19.5t-32 -53.5q0 -14 6 -24.5t21 -18.5t39.5 -13.5t61.5 -9.5q66 -7 111.5 -22.5t74.5 -40t42 -60t13 -83.5q0 -100 -69 -154t-197 -54q-166 0 -247 58v153h7q47 -39 107 -59.5
t128 -20.5q124 0 124 73q0 15 -6.5 26t-21.5 19.5t-40.5 14t-63.5 9.5q-64 7 -109 21.5t-73.5 38.5t-41.5 58t-13 80q0 100 70.5 156.5t197.5 56.5zM237 -60h132l-115 -150h-114z" />
    <glyph glyph-name="scommaaccent" unicode="&#x219;" horiz-adv-x="438" 
d="M233 480q43 0 81.5 -8t66.5 -22v-125h-5q-47 47 -140 47q-76 0 -76 -44q0 -16 15.5 -23.5t62.5 -10.5q94 -6 134 -41t40 -110q0 -72 -51 -112.5t-142 -40.5q-118 0 -178 42v126h6q55 -60 166 -60q76 0 76 45q0 19 -18 27.5t-68 13.5q-45 4 -76.5 13.5t-51.5 26t-29 41
t-9 59.5q0 72 53 114t143 42zM162 -60h132l-115 -150h-114z" />
    <glyph glyph-name="uni021A" unicode="&#x21a;" horiz-adv-x="595" 
d="M372 0h-148v532h-198v132h543v-132h-197v-532zM232 -60h132l-115 -150h-114z" />
    <glyph glyph-name="uni021B" unicode="&#x21b;" horiz-adv-x="391" 
d="M358 6q-33 -16 -92 -16q-86 0 -130.5 45.5t-44.5 135.5v188h-78v111h82l17 132h110v-132h135v-111h-135v-183q0 -34 17 -52t48 -18q18 0 34.5 5.5t31.5 21.5h5v-127zM141 -60h132l-115 -150h-114z" />
    <glyph glyph-name="uni0237" unicode="&#x237;" horiz-adv-x="248" 
d="M189 -44q0 -78 -37.5 -117t-106.5 -39q-20 0 -35 2.5t-32 7.5v118h6q15 -12 35 -12q21 0 30 12.5t9 38.5v503h131v-514z" />
    <glyph glyph-name="circumflex" unicode="&#x2c6;" horiz-adv-x="500" 
d="M187 538h-120l123 170h121l123 -170h-120l-63 80z" />
    <glyph glyph-name="caron" unicode="&#x2c7;" horiz-adv-x="500" 
d="M190 538l-123 170h120l64 -80l63 80h120l-123 -170h-121z" />
    <glyph glyph-name="breve" unicode="&#x2d8;" horiz-adv-x="500" 
d="M423 703q-5 -80 -49 -121.5t-124 -41.5t-124 41.5t-49 121.5h93q5 -33 26.5 -48.5t53.5 -15.5t53.5 15.5t26.5 48.5h93z" />
    <glyph glyph-name="dotaccent" unicode="&#x2d9;" horiz-adv-x="500" 
d="M250 697q35 0 58.5 -23t23.5 -58q0 -36 -23.5 -59t-58.5 -23t-58.5 23t-23.5 59q0 35 23.5 58t58.5 23z" />
    <glyph glyph-name="ring" unicode="&#x2da;" horiz-adv-x="500" 
d="M250 732q48 0 78.5 -30.5t30.5 -78.5t-30.5 -78.5t-78.5 -30.5t-78.5 30.5t-30.5 78.5t30.5 78.5t78.5 30.5zM250 664q-18 0 -29.5 -11t-11.5 -30t11.5 -30t29.5 -11t29.5 11t11.5 30t-11.5 30t-29.5 11z" />
    <glyph glyph-name="ogonek" unicode="&#x2db;" horiz-adv-x="500" 
d="M334 0q-32 -14 -51 -34.5t-19 -45.5q0 -16 10.5 -25.5t26.5 -9.5q33 0 65 27h5v-95q-17 -8 -38.5 -12.5t-53.5 -4.5q-51 0 -81 24t-30 66q0 49 35.5 86t116.5 63z" />
    <glyph glyph-name="tilde" unicode="&#x2dc;" horiz-adv-x="500" 
d="M414 598q-16 -26 -40 -41t-53 -15q-19 0 -38 5t-43 19q-22 12 -36.5 16.5t-31.5 4.5q-52 0 -81 -55h-5v101q15 26 39.5 41t53.5 15q19 0 38 -5t43 -19q22 -12 36.5 -16.5t31.5 -4.5q50 0 81 55h5v-101z" />
    <glyph glyph-name="hungarumlaut" unicode="&#x2dd;" horiz-adv-x="500" 
d="M193 708h132l-129 -170h-114zM388 708h131l-129 -170h-114z" />
    <glyph glyph-name="Delta" unicode="&#x394;" horiz-adv-x="736" 
d="M296 664h143l283 -664h-709zM220 132h290l-144 363h-2z" />
    <glyph glyph-name="Omega" unicode="&#x3a9;" horiz-adv-x="772" 
d="M723 0h-273v126q66 38 100.5 93t34.5 125q0 44 -14.5 80.5t-41 62.5t-63 40.5t-80.5 14.5t-81 -14.5t-63 -40.5t-40.5 -62.5t-14.5 -80.5q0 -70 34.5 -125t100.5 -93v-126h-273v132h120v2q-63 33 -97.5 92.5t-34.5 140.5q0 68 25.5 124.5t71.5 97t110 63t142 22.5
t142 -22.5t110 -63t71.5 -97t25.5 -124.5q0 -81 -34.5 -140.5t-97.5 -92.5v-2h120v-132z" />
    <glyph glyph-name="mu" unicode="&#x3bc;" horiz-adv-x="568" 
d="M398 0l-5 67h-2q-43 -77 -147 -77q-28 0 -52 6v-186h-131v660h131v-263q0 -49 22.5 -75t64.5 -26q47 0 72 29.5t25 84.5v250h131v-470h-109z" />
    <glyph glyph-name="pi" unicode="&#x3c0;" horiz-adv-x="604" 
d="M514 0h-131v359h-163v-359h-131v359h-73v111h572v-111h-74v-359z" />
    <glyph glyph-name="uni1E02" unicode="&#x1e02;" horiz-adv-x="648" 
d="M508 338q110 -36 110 -153q0 -92 -59.5 -138.5t-176.5 -46.5h-311v664h286q118 0 177.5 -46t59.5 -137q0 -102 -86 -141v-2zM345 396q52 0 76 17t24 52q0 67 -90 67h-136v-136h126zM377 132q91 0 91 69q0 71 -100 71h-149v-140h158zM315 883q35 0 58.5 -23t23.5 -58
q0 -36 -23.5 -59t-58.5 -23t-58.5 23t-23.5 59q0 35 23.5 58t58.5 23z" />
    <glyph glyph-name="uni1E03" unicode="&#x1e03;" horiz-adv-x="588" 
d="M327 480q50 0 92 -18.5t73 -51t48 -77.5t17 -98t-17 -98t-48 -77.5t-73 -51t-92 -18.5q-52 0 -91 19t-62 53h-2l-5 -62h-109v700h131v-271h2q49 51 136 51zM305 106q54 0 87 36t33 93t-33 93t-87 36t-86.5 -36t-32.5 -93t32.5 -93t86.5 -36zM124 914q35 0 58.5 -23
t23.5 -58q0 -36 -23.5 -59t-58.5 -23t-58.5 23t-23.5 59q0 35 23.5 58t58.5 23z" />
    <glyph glyph-name="uni1E0A" unicode="&#x1e0a;" horiz-adv-x="722" 
d="M338 664q171 0 262.5 -86.5t91.5 -245.5t-91.5 -245.5t-262.5 -86.5h-267v664h267zM329 132q105 0 159 51t54 149t-54 149t-159 51h-110v-400h110zM344 883q35 0 58.5 -23t23.5 -58q0 -36 -23.5 -59t-58.5 -23t-58.5 23t-23.5 59q0 35 23.5 58t58.5 23z" />
    <glyph glyph-name="uni1E0B" unicode="&#x1e0b;" horiz-adv-x="587" 
d="M420 0l-4 63h-2q-23 -35 -61.5 -54t-91.5 -19q-50 0 -92 18.5t-73 51t-48 77.5t-17 98t17 98t48 77.5t73 51t92 18.5q44 0 77.5 -13t57.5 -37h2v270h131v-700h-109zM283 106q53 0 86 36t33 93t-33 93t-86 36q-54 0 -87 -36t-33 -93t33 -93t87 -36zM464 914q35 0 58.5 -23
t23.5 -58q0 -36 -23.5 -59t-58.5 -23t-58.5 23t-23.5 59q0 35 23.5 58t58.5 23z" />
    <glyph glyph-name="uni1E1E" unicode="&#x1e1e;" horiz-adv-x="598" 
d="M496 386v-132h-277v-254h-148v664h497v-132h-349v-146h277zM315 883q35 0 58.5 -23t23.5 -58q0 -36 -23.5 -59t-58.5 -23t-58.5 23t-23.5 59q0 35 23.5 58t58.5 23z" />
    <glyph glyph-name="uni1E1F" unicode="&#x1e1f;" horiz-adv-x="370" 
d="M270 710q61 0 98 -16v-120h-5q-16 11 -35 15.5t-38 4.5q-32 0 -50 -18.5t-18 -53.5v-52h135v-111h-135v-359h-131v359h-78v111h78v56q0 89 45.5 136.5t133.5 47.5zM208 914q35 0 58.5 -23t23.5 -58q0 -36 -23.5 -59t-58.5 -23t-58.5 23t-23.5 59q0 35 23.5 58t58.5 23z
" />
    <glyph glyph-name="uni1E40" unicode="&#x1e40;" horiz-adv-x="949" 
d="M730 0v500h-2l-192 -500h-134l-186 486h-2v-486h-143v664h222l178 -463h2l178 463h227v-664h-148zM474 883q35 0 58.5 -23t23.5 -58q0 -36 -23.5 -59t-58.5 -23t-58.5 23t-23.5 59q0 35 23.5 58t58.5 23z" />
    <glyph glyph-name="uni1E41" unicode="&#x1e41;" horiz-adv-x="837" 
d="M613 480q85 0 130 -51.5t45 -148.5v-280h-131v265q0 99 -79 99q-88 0 -88 -122v-242h-131v265q0 99 -80 99q-88 0 -88 -112v-252h-131v470h109l5 -63h2q20 35 55 54t83 19t84.5 -19.5t58.5 -57.5h2q22 39 59.5 58t94.5 19zM424 697q35 0 58.5 -23t23.5 -58
q0 -36 -23.5 -59t-58.5 -23t-58.5 23t-23.5 59q0 35 23.5 58t58.5 23z" />
    <glyph glyph-name="uni1E56" unicode="&#x1e56;" horiz-adv-x="642" 
d="M364 664q251 0 251 -221q0 -220 -251 -220h-145v-223h-148v664h293zM357 355q56 0 82 21.5t26 66.5q0 46 -26 67.5t-82 21.5h-138v-177h138zM325 883q35 0 58.5 -23t23.5 -58q0 -36 -23.5 -59t-58.5 -23t-58.5 23t-23.5 59q0 35 23.5 58t58.5 23z" />
    <glyph glyph-name="uni1E57" unicode="&#x1e57;" horiz-adv-x="588" 
d="M327 480q50 0 92 -18.5t73 -51t48 -77.5t17 -98t-17 -98t-48 -77.5t-73 -51t-92 -18.5q-87 0 -136 51h-2v-231h-131v660h109l5 -62h2q23 35 61.5 53.5t91.5 18.5zM305 106q54 0 87 36t33 93t-33 93t-87 36t-86.5 -36t-32.5 -93t32.5 -93t86.5 -36zM308 697q35 0 58.5 -23
t23.5 -58q0 -36 -23.5 -59t-58.5 -23t-58.5 23t-23.5 59q0 35 23.5 58t58.5 23z" />
    <glyph glyph-name="uni1E60" unicode="&#x1e60;" horiz-adv-x="590" 
d="M310 674q63 0 120 -13.5t88 -35.5v-153h-7q-33 34 -86.5 52.5t-116.5 18.5q-55 0 -87 -19.5t-32 -53.5q0 -14 6 -24.5t21 -18.5t39.5 -13.5t61.5 -9.5q66 -7 111.5 -22.5t74.5 -40t42 -60t13 -83.5q0 -100 -69 -154t-197 -54q-166 0 -247 58v153h7q47 -39 107 -59.5
t128 -20.5q124 0 124 73q0 15 -6.5 26t-21.5 19.5t-40.5 14t-63.5 9.5q-64 7 -109 21.5t-73.5 38.5t-41.5 58t-13 80q0 100 70.5 156.5t197.5 56.5zM296 883q35 0 58.5 -23t23.5 -58q0 -36 -23.5 -59t-58.5 -23t-58.5 23t-23.5 59q0 35 23.5 58t58.5 23z" />
    <glyph glyph-name="uni1E61" unicode="&#x1e61;" horiz-adv-x="438" 
d="M233 480q43 0 81.5 -8t66.5 -22v-125h-5q-47 47 -140 47q-76 0 -76 -44q0 -16 15.5 -23.5t62.5 -10.5q94 -6 134 -41t40 -110q0 -72 -51 -112.5t-142 -40.5q-118 0 -178 42v126h6q55 -60 166 -60q76 0 76 45q0 19 -18 27.5t-68 13.5q-45 4 -76.5 13.5t-51.5 26t-29 41
t-9 59.5q0 72 53 114t143 42zM219 697q35 0 58.5 -23t23.5 -58q0 -36 -23.5 -59t-58.5 -23t-58.5 23t-23.5 59q0 35 23.5 58t58.5 23z" />
    <glyph glyph-name="uni1E6A" unicode="&#x1e6a;" horiz-adv-x="595" 
d="M372 0h-148v532h-198v132h543v-132h-197v-532zM297 883q35 0 58.5 -23t23.5 -58q0 -36 -23.5 -59t-58.5 -23t-58.5 23t-23.5 59q0 35 23.5 58t58.5 23z" />
    <glyph glyph-name="uni1E6B" unicode="&#x1e6b;" horiz-adv-x="391" 
d="M358 6q-33 -16 -92 -16q-86 0 -130.5 45.5t-44.5 135.5v188h-78v111h82l17 132h110v-132h135v-111h-135v-183q0 -34 17 -52t48 -18q18 0 34.5 5.5t31.5 21.5h5v-127zM165 823q35 0 58.5 -23t23.5 -58q0 -36 -23.5 -59t-58.5 -23t-58.5 23t-23.5 59q0 35 23.5 58t58.5 23z
" />
    <glyph glyph-name="Wgrave" unicode="&#x1e80;" horiz-adv-x="1010" 
d="M637 0l-131 423h-2l-132 -423h-150l-205 664h156l130 -443h2l138 443h127l138 -446h2l131 446h152l-205 -664h-151zM322 894h138l111 -170h-120z" />
    <glyph glyph-name="wgrave" unicode="&#x1e81;" horiz-adv-x="768" 
d="M605 0h-125l-94 284h-2l-95 -284h-125l-158 470h139l88 -303h2l101 303h103l100 -303h2l88 303h133zM201 708h138l111 -170h-120z" />
    <glyph glyph-name="Wacute" unicode="&#x1e82;" horiz-adv-x="1010" 
d="M637 0l-131 423h-2l-132 -423h-150l-205 664h156l130 -443h2l138 443h127l138 -446h2l131 446h152l-205 -664h-151zM549 894h138l-129 -170h-120z" />
    <glyph glyph-name="wacute" unicode="&#x1e83;" horiz-adv-x="768" 
d="M605 0h-125l-94 284h-2l-95 -284h-125l-158 470h139l88 -303h2l101 303h103l100 -303h2l88 303h133zM428 708h138l-129 -170h-120z" />
    <glyph glyph-name="Wdieresis" unicode="&#x1e84;" horiz-adv-x="1010" 
d="M637 0l-131 423h-2l-132 -423h-150l-205 664h156l130 -443h2l138 443h127l138 -446h2l131 446h152l-205 -664h-151zM399 876q33 0 54 -21t21 -53t-21 -53.5t-54 -21.5t-53 21.5t-20 53.5t20 53t53 21zM611 876q33 0 53 -21t20 -53t-20 -53.5t-53 -21.5t-54 21.5t-21 53.5
t21 53t54 21z" />
    <glyph glyph-name="wdieresis" unicode="&#x1e85;" horiz-adv-x="768" 
d="M605 0h-125l-94 284h-2l-95 -284h-125l-158 470h139l88 -303h2l101 303h103l100 -303h2l88 303h133zM278 690q33 0 54 -21t21 -53t-21 -53.5t-54 -21.5t-53 21.5t-20 53.5t20 53t53 21zM490 690q33 0 53 -21t20 -53t-20 -53.5t-53 -21.5t-54 21.5t-21 53.5t21 53t54 21z
" />
    <glyph glyph-name="Ygrave" unicode="&#x1ef2;" horiz-adv-x="699" 
d="M276 0v272l-272 392h179l169 -257l169 257h174l-271 -392v-272h-148zM167 894h138l111 -170h-120z" />
    <glyph glyph-name="ygrave" unicode="&#x1ef3;" horiz-adv-x="508" 
d="M98 -190l89 205l-181 455h140l110 -310h2l109 310h135l-269 -660h-135zM71 708h138l111 -170h-120z" />
    <glyph glyph-name="uni2007" unicode="&#x2007;" horiz-adv-x="650" 
 />
    <glyph glyph-name="figuredash" unicode="&#x2012;" horiz-adv-x="650" 
d="M50 390h550v-116h-550v116z" />
    <glyph glyph-name="endash" unicode="&#x2013;" horiz-adv-x="500" 
d="M50 332h400v-116h-400v116z" />
    <glyph glyph-name="emdash" unicode="&#x2014;" horiz-adv-x="1000" 
d="M50 332h900v-116h-900v116z" />
    <glyph glyph-name="quoteleft" unicode="&#x2018;" horiz-adv-x="275" 
d="M161 413h-135l121 251h106z" />
    <glyph glyph-name="quoteright" unicode="&#x2019;" horiz-adv-x="275" 
d="M114 664h135l-121 -251h-106z" />
    <glyph glyph-name="quotesinglbase" unicode="&#x201a;" horiz-adv-x="275" 
d="M85 145h135l-121 -251h-106z" />
    <glyph glyph-name="quotedblleft" unicode="&#x201c;" horiz-adv-x="483" 
d="M161 413h-135l121 251h106zM369 413h-135l121 251h106z" />
    <glyph glyph-name="quotedblright" unicode="&#x201d;" horiz-adv-x="483" 
d="M114 664h135l-121 -251h-106zM322 664h135l-121 -251h-106z" />
    <glyph glyph-name="quotedblbase" unicode="&#x201e;" horiz-adv-x="483" 
d="M293 145h135l-121 -251h-106zM85 145h135l-121 -251h-106z" />
    <glyph glyph-name="dagger" unicode="&#x2020;" horiz-adv-x="487" 
d="M297 88h-106v368h-143v92h143v152h106v-152h143v-92h-143v-368z" />
    <glyph glyph-name="daggerdbl" unicode="&#x2021;" horiz-adv-x="487" 
d="M440 332v-92h-143v-152h-106v152h-143v92h143v124h-143v92h143v152h106v-152h143v-92h-143v-124h143z" />
    <glyph glyph-name="bullet" unicode="&#x2022;" horiz-adv-x="500" 
d="M250 427q33 0 61 -11.5t48 -32t31.5 -48.5t11.5 -61t-11.5 -61t-31.5 -48t-48 -31.5t-61 -11.5t-61 11.5t-48 31.5t-31.5 48t-11.5 61t11.5 61t31.5 48.5t48 32t61 11.5z" />
    <glyph glyph-name="ellipsis" unicode="&#x2026;" horiz-adv-x="1000" 
d="M820 155q35 0 58.5 -24t23.5 -59t-23.5 -58.5t-58.5 -23.5q-36 0 -59.5 23.5t-23.5 58.5t23.5 59t59.5 24zM500 155q35 0 58.5 -24t23.5 -59t-23.5 -58.5t-58.5 -23.5q-36 0 -59.5 23.5t-23.5 58.5t23.5 59t59.5 24zM181 155q35 0 58.5 -24t23.5 -59t-23.5 -58.5
t-58.5 -23.5q-36 0 -59.5 23.5t-23.5 58.5t23.5 59t59.5 24z" />
    <glyph glyph-name="perthousand" unicode="&#x2030;" horiz-adv-x="1109" 
d="M925 319q72 0 111.5 -45.5t39.5 -119.5q0 -73 -39.5 -118.5t-111.5 -45.5t-111.5 45.5t-39.5 118.5q0 74 39.5 119.5t111.5 45.5zM925 240q-28 0 -44.5 -22.5t-16.5 -63.5q0 -40 16.5 -62.5t44.5 -22.5t44.5 22.5t16.5 62.5q0 41 -16.5 63.5t-44.5 22.5zM185 674
q72 0 111.5 -45.5t39.5 -119.5q0 -73 -39.5 -118.5t-111.5 -45.5t-111.5 45.5t-39.5 118.5q0 74 39.5 119.5t111.5 45.5zM544 664h102l-428 -664h-102zM185 595q-28 0 -44.5 -22.5t-16.5 -63.5q0 -40 16.5 -62.5t44.5 -22.5t44.5 22.5t16.5 62.5q0 41 -16.5 63.5t-44.5 22.5
zM577 319q72 0 111.5 -45.5t39.5 -119.5q0 -73 -39.5 -118.5t-111.5 -45.5t-111.5 45.5t-39.5 118.5q0 74 39.5 119.5t111.5 45.5zM577 240q-28 0 -44.5 -22.5t-16.5 -63.5q0 -40 16.5 -62.5t44.5 -22.5t44.5 22.5t16.5 62.5q0 41 -16.5 63.5t-44.5 22.5z" />
    <glyph glyph-name="guilsinglleft" unicode="&#x2039;" horiz-adv-x="292" 
d="M244 12l-217 219v8l217 220v-134l-97 -90l97 -89v-134z" />
    <glyph glyph-name="guilsinglright" unicode="&#x203a;" horiz-adv-x="292" 
d="M48 458l217 -219v-8l-217 -220v134l97 90l-97 89v134z" />
    <glyph glyph-name="fraction" unicode="&#x2044;" horiz-adv-x="158" 
d="M244 664h100l-430 -664h-100z" />
    <glyph glyph-name="uni2070" unicode="&#x2070;" 
d="M205 804q80 0 123 -54t43 -157t-43 -157t-123 -54t-123 54t-43 157t43 157t123 54zM205 718q-71 0 -71 -125q0 -61 18 -93t53 -32t53 32t18 93q0 125 -71 125z" />
    <glyph glyph-name="uni2074" unicode="&#x2074;" 
d="M333 388h-94v71h-200v82l197 257h97v-253h50v-86h-50v-71zM133 545h106v137z" />
    <glyph glyph-name="uni2075" unicode="&#x2075;" 
d="M219 654q69 0 107 -35.5t38 -98.5q0 -65 -43 -101.5t-120 -36.5q-88 0 -138 28v96h5q23 -19 56.5 -28.5t71.5 -9.5q35 0 54 13.5t19 38.5q0 53 -92 53q-55 0 -97 -14h-5v239h262v-86h-185v-64q30 6 67 6z" />
    <glyph glyph-name="uni2076" unicode="&#x2076;" 
d="M234 657q63 0 99.5 -35.5t36.5 -96.5q0 -66 -40.5 -104.5t-109.5 -38.5q-83 0 -128.5 53t-45.5 147q0 105 48.5 163.5t136.5 58.5q72 0 107 -26v-96h-5q-38 36 -92 36q-83 0 -98 -89h2q34 28 89 28zM217 468q26 0 42 14.5t16 40.5t-16 41t-43 15q-23 0 -42.5 -10
t-30.5 -27q2 -35 21.5 -54.5t52.5 -19.5z" />
    <glyph glyph-name="uni2077" unicode="&#x2077;" 
d="M184 388h-112l194 324h-209v86h312v-88z" />
    <glyph glyph-name="uni2078" unicode="&#x2078;" 
d="M310 598q64 -27 64 -97q0 -57 -44.5 -88t-125.5 -31q-79 0 -123.5 31t-44.5 88q0 67 64 93v2q-52 29 -52 91q0 55 41 86t115 31q75 0 116.5 -31t41.5 -86q0 -61 -52 -87v-2zM204 718q-62 0 -62 -43q0 -41 62 -41q64 0 64 41q0 43 -64 43zM204 468q75 0 75 45q0 43 -75 43
q-73 0 -73 -43q0 -45 73 -45z" />
    <glyph glyph-name="uni2079" unicode="&#x2079;" 
d="M190 804q83 0 128.5 -53t45.5 -147q0 -105 -48.5 -163.5t-136.5 -58.5q-72 0 -107 26v96h5q38 -36 92 -36q83 0 98 89h-2q-34 -28 -89 -28q-63 0 -99.5 35.5t-36.5 96.5q0 66 40.5 104.5t109.5 38.5zM194 607q23 0 42.5 10t30.5 27q-2 35 -21.5 54.5t-52.5 19.5
q-26 0 -42 -14.5t-16 -40.5t16 -41t43 -15z" />
    <glyph glyph-name="uni2080" unicode="&#x2080;" 
d="M205 226q80 0 123 -54t43 -157t-43 -157t-123 -54t-123 54t-43 157t43 157t123 54zM205 140q-71 0 -71 -125q0 -61 18 -93t53 -32t53 32t18 93q0 125 -71 125z" />
    <glyph glyph-name="uni2081" unicode="&#x2081;" 
d="M218 -190v299l-103 -62v94l121 79h76v-410h-94z" />
    <glyph glyph-name="uni2082" unicode="&#x2082;" 
d="M349 -190h-287v90l101 78q27 21 44.5 36.5t28 28t14.5 24t4 23.5q0 50 -68 50q-31 0 -60.5 -12.5t-53.5 -37.5h-5v102q23 16 55.5 25t67.5 9q76 0 117.5 -32.5t41.5 -94.5q0 -23 -5.5 -42t-19 -38t-37 -40.5t-58.5 -48.5l-42 -32v-2h162v-86z" />
    <glyph glyph-name="uni2083" unicode="&#x2083;" 
d="M303 18q57 -29 57 -95q0 -57 -42 -88t-119 -31q-42 0 -78.5 10t-56.5 27v102h5q20 -25 54 -39t74 -14q32 0 50 11t18 35q0 42 -72 42h-53v78h46q39 0 56.5 9.5t17.5 30.5q0 24 -17 34t-49 10q-33 0 -64.5 -13t-52.5 -36h-5v101q23 16 58.5 25t74.5 9q71 0 110 -30.5
t39 -86.5q0 -60 -51 -89v-2z" />
    <glyph glyph-name="uni2084" unicode="&#x2084;" 
d="M333 -190h-94v71h-200v82l197 257h97v-253h50v-86h-50v-71zM133 -33h106v137z" />
    <glyph glyph-name="uni2085" unicode="&#x2085;" 
d="M219 76q69 0 107 -35.5t38 -98.5q0 -65 -43 -101.5t-120 -36.5q-88 0 -138 28v96h5q23 -19 56.5 -28.5t71.5 -9.5q35 0 54 13.5t19 38.5q0 53 -92 53q-55 0 -97 -14h-5v239h262v-86h-185v-64q30 6 67 6z" />
    <glyph glyph-name="uni2086" unicode="&#x2086;" 
d="M234 79q63 0 99.5 -35.5t36.5 -96.5q0 -66 -40.5 -104.5t-109.5 -38.5q-83 0 -128.5 53t-45.5 147q0 105 48.5 163.5t136.5 58.5q72 0 107 -26v-96h-5q-38 36 -92 36q-83 0 -98 -89h2q34 28 89 28zM217 -110q26 0 42 14.5t16 40.5t-16 41t-43 15q-23 0 -42.5 -10
t-30.5 -27q2 -35 21.5 -54.5t52.5 -19.5z" />
    <glyph glyph-name="uni2087" unicode="&#x2087;" 
d="M184 -190h-112l194 324h-209v86h312v-88z" />
    <glyph glyph-name="uni2088" unicode="&#x2088;" 
d="M310 20q64 -27 64 -97q0 -57 -44.5 -88t-125.5 -31q-79 0 -123.5 31t-44.5 88q0 67 64 93v2q-52 29 -52 91q0 55 41 86t115 31q75 0 116.5 -31t41.5 -86q0 -61 -52 -87v-2zM204 140q-62 0 -62 -43q0 -41 62 -41q64 0 64 41q0 43 -64 43zM204 -110q75 0 75 45q0 43 -75 43
q-73 0 -73 -43q0 -45 73 -45z" />
    <glyph glyph-name="uni2089" unicode="&#x2089;" 
d="M190 226q83 0 128.5 -53t45.5 -147q0 -105 -48.5 -163.5t-136.5 -58.5q-72 0 -107 26v96h5q38 -36 92 -36q83 0 98 89h-2q-34 -28 -89 -28q-63 0 -99.5 35.5t-36.5 96.5q0 66 40.5 104.5t109.5 38.5zM194 29q23 0 42.5 10t30.5 27q-2 35 -21.5 54.5t-52.5 19.5
q-26 0 -42 -14.5t-16 -40.5t16 -41t43 -15z" />
    <glyph glyph-name="Euro" unicode="&#x20ac;" horiz-adv-x="650" 
d="M439 550q-60 0 -100.5 -27.5t-60.5 -80.5h242v-72h-257q-1 -9 -1.5 -18.5t-0.5 -19.5v-19t1 -17h258v-72h-243q39 -110 162 -110q41 0 80 14.5t68 43.5h7v-139q-29 -21 -73.5 -32t-95.5 -11q-115 0 -191 61.5t-101 172.5h-77v72h66q-1 9 -1 18v18v19.5t1 18.5h-66v72h77
q26 110 101.5 171t190.5 61q51 0 95.5 -11t73.5 -32v-139h-7q-29 29 -68 43.5t-80 14.5z" />
    <glyph glyph-name="uni20B9" unicode="&#x20b9;" horiz-adv-x="650" 
d="M470 583q29 -33 36 -82h83v-78h-82q-19 -146 -192 -163v-2l271 -258h-182l-282 280v68h106q58 0 92 18t45 57h-307v78h306q-11 38 -45 55.5t-91 17.5h-170v90h531v-79h-119v-2z" />
    <glyph glyph-name="afii61289" unicode="&#x2113;" horiz-adv-x="510" 
d="M338 106q61 0 103 45h5v-137q-44 -24 -118 -24q-77 0 -130 34t-73 103q-16 -8 -33 -17.5t-35 -18.5v131q16 8 30.5 16t28.5 16v246q0 81 46.5 127.5t129.5 46.5q76 0 120 -44t44 -120q0 -85 -49 -159t-161 -150q2 -45 25.5 -70t66.5 -25zM248 340q45 40 65 84t20 86
q0 26 -9.5 40t-31.5 14q-24 0 -35 -17t-11 -49v-158h2z" />
    <glyph glyph-name="uni2117" unicode="&#x2117;" horiz-adv-x="776" 
d="M388 674q73 0 136 -26t108.5 -71.5t71.5 -108.5t26 -136q0 -74 -26 -136.5t-71.5 -108t-108.5 -71.5t-136 -26q-74 0 -136.5 26t-108 71.5t-71.5 108t-26 136.5q0 73 26 136t71.5 108.5t108 71.5t136.5 26zM388 67q55 0 102.5 19.5t82 55t54 84t19.5 106.5t-19.5 106.5
t-54 84t-82 55t-102.5 19.5q-56 0 -103 -19.5t-81.5 -55t-54 -84t-19.5 -106.5t19.5 -106.5t54 -84t81.5 -55t103 -19.5zM422 507q135 0 135 -121t-135 -121h-67v-108h-88v350h155zM418 344q49 0 49 42t-49 42h-63v-84h63z" />
    <glyph glyph-name="trademark" unicode="&#x2122;" horiz-adv-x="776" 
d="M281 593h-91v-266h-80v266h-90v71h261v-71zM645 327v238h-2l-83 -238h-71l-82 235h-2v-235h-76v337h119l77 -223h2l76 223h122v-337h-80z" />
    <glyph glyph-name="uni2126" unicode="&#x2126;" horiz-adv-x="772" 
d="M723 0h-273v126q66 38 100.5 93t34.5 125q0 44 -14.5 80.5t-41 62.5t-63 40.5t-80.5 14.5t-81 -14.5t-63 -40.5t-40.5 -62.5t-14.5 -80.5q0 -70 34.5 -125t100.5 -93v-126h-273v132h120v2q-63 33 -97.5 92.5t-34.5 140.5q0 68 25.5 124.5t71.5 97t110 63t142 22.5
t142 -22.5t110 -63t71.5 -97t25.5 -124.5q0 -81 -34.5 -140.5t-97.5 -92.5v-2h120v-132z" />
    <glyph glyph-name="estimated" unicode="&#x212e;" horiz-adv-x="798" 
d="M399 674q75 0 140.5 -26.5t114 -73t77 -109t28.5 -133.5v-8h-584q-4 0 -4 -4v-188q0 -6 2.5 -10.5t5.5 -9.5q42 -48 99 -75t123 -27q69 0 129 31t103 83h53q-51 -61 -125 -97.5t-162 -36.5q-75 0 -140.5 27t-114 73.5t-77 108.5t-28.5 133t28.5 133.5t77 109t114 73
t140.5 26.5zM401 654q-66 0 -122.5 -27t-99.5 -73q-3 -5 -5.5 -10.5t-2.5 -11.5v-184q0 -6 4 -6h448q6 0 6 6v188q0 12 -10 22q-43 45 -99 70.5t-119 25.5z" />
    <glyph glyph-name="onethird" unicode="&#x2153;" horiz-adv-x="978" 
d="M654 664h100l-430 -664h-100zM871 208q57 -29 57 -95q0 -57 -42 -88t-119 -31q-42 0 -78.5 10t-56.5 27v102h5q20 -25 54 -39t74 -14q32 0 50 11t18 35q0 42 -72 42h-53v78h46q39 0 56.5 9.5t17.5 30.5q0 24 -17 34t-49 10q-33 0 -64.5 -13t-52.5 -36h-5v101
q23 16 58.5 25t74.5 9q71 0 110 -30.5t39 -86.5q0 -60 -51 -89v-2zM218 254v299l-103 -62v94l121 79h76v-410h-94z" />
    <glyph glyph-name="twothirds" unicode="&#x2154;" horiz-adv-x="978" 
d="M669 664h100l-430 -664h-100zM871 208q57 -29 57 -95q0 -57 -42 -88t-119 -31q-42 0 -78.5 10t-56.5 27v102h5q20 -25 54 -39t74 -14q32 0 50 11t18 35q0 42 -72 42h-53v78h46q39 0 56.5 9.5t17.5 30.5q0 24 -17 34t-49 10q-33 0 -64.5 -13t-52.5 -36h-5v101
q23 16 58.5 25t74.5 9q71 0 110 -30.5t39 -86.5q0 -60 -51 -89v-2zM349 254h-287v90l101 78q27 21 44.5 36.5t28 28t14.5 24t4 23.5q0 50 -68 50q-31 0 -60.5 -12.5t-53.5 -37.5h-5v102q23 16 55.5 25t67.5 9q76 0 117.5 -32.5t41.5 -94.5q0 -23 -5.5 -42t-19 -38t-37 -40.5
t-58.5 -48.5l-42 -32v-2h162v-86z" />
    <glyph glyph-name="oneeighth" unicode="&#x215b;" horiz-adv-x="978" 
d="M654 664h100l-430 -664h-100zM878 210q64 -27 64 -97q0 -57 -44.5 -88t-125.5 -31q-79 0 -123.5 31t-44.5 88q0 67 64 93v2q-52 29 -52 91q0 55 41 86t115 31q75 0 116.5 -31t41.5 -86q0 -61 -52 -87v-2zM772 330q-62 0 -62 -43q0 -41 62 -41q64 0 64 41q0 43 -64 43z
M772 80q75 0 75 45q0 43 -75 43q-73 0 -73 -43q0 -45 73 -45zM218 254v299l-103 -62v94l121 79h76v-410h-94z" />
    <glyph glyph-name="threeeighths" unicode="&#x215c;" horiz-adv-x="978" 
d="M655 664h100l-430 -664h-100zM878 210q64 -27 64 -97q0 -57 -44.5 -88t-125.5 -31q-79 0 -123.5 31t-44.5 88q0 67 64 93v2q-52 29 -52 91q0 55 41 86t115 31q75 0 116.5 -31t41.5 -86q0 -61 -52 -87v-2zM772 330q-62 0 -62 -43q0 -41 62 -41q64 0 64 41q0 43 -64 43z
M772 80q75 0 75 45q0 43 -75 43q-73 0 -73 -43q0 -45 73 -45zM303 462q57 -29 57 -95q0 -57 -42 -88t-119 -31q-42 0 -78.5 10t-56.5 27v102h5q20 -25 54 -39t74 -14q32 0 50 11t18 35q0 42 -72 42h-53v78h46q39 0 56.5 9.5t17.5 30.5q0 24 -17 34t-49 10q-33 0 -64.5 -13
t-52.5 -36h-5v101q23 16 58.5 25t74.5 9q71 0 110 -30.5t39 -86.5q0 -60 -51 -89v-2z" />
    <glyph glyph-name="fiveeighths" unicode="&#x215d;" horiz-adv-x="978" 
d="M655 664h100l-430 -664h-100zM878 210q64 -27 64 -97q0 -57 -44.5 -88t-125.5 -31q-79 0 -123.5 31t-44.5 88q0 67 64 93v2q-52 29 -52 91q0 55 41 86t115 31q75 0 116.5 -31t41.5 -86q0 -61 -52 -87v-2zM772 330q-62 0 -62 -43q0 -41 62 -41q64 0 64 41q0 43 -64 43z
M772 80q75 0 75 45q0 43 -75 43q-73 0 -73 -43q0 -45 73 -45zM219 520q69 0 107 -35.5t38 -98.5q0 -65 -43 -101.5t-120 -36.5q-88 0 -138 28v96h5q23 -19 56.5 -28.5t71.5 -9.5q35 0 54 13.5t19 38.5q0 53 -92 53q-55 0 -97 -14h-5v239h262v-86h-185v-64q30 6 67 6z" />
    <glyph glyph-name="seveneighths" unicode="&#x215e;" horiz-adv-x="978" 
d="M613 664h100l-430 -664h-100zM878 210q64 -27 64 -97q0 -57 -44.5 -88t-125.5 -31q-79 0 -123.5 31t-44.5 88q0 67 64 93v2q-52 29 -52 91q0 55 41 86t115 31q75 0 116.5 -31t41.5 -86q0 -61 -52 -87v-2zM772 330q-62 0 -62 -43q0 -41 62 -41q64 0 64 41q0 43 -64 43z
M772 80q75 0 75 45q0 43 -75 43q-73 0 -73 -43q0 -45 73 -45zM184 254h-112l194 324h-209v86h312v-88z" />
    <glyph glyph-name="partialdiff" unicode="&#x2202;" horiz-adv-x="590" 
d="M305 710q54 0 98 -20.5t74.5 -58.5t47 -92.5t16.5 -122.5q0 -92 -23 -170t-63.5 -135t-97 -89t-122.5 -32q-44 0 -79.5 14.5t-61 40.5t-39 63.5t-13.5 84.5q0 57 18.5 107.5t50 88.5t73.5 60t89 22q40 0 72.5 -15.5t52.5 -41.5h2v8q0 80 -32.5 122t-96.5 42
q-31 0 -63.5 -12t-61.5 -41h-7v135q35 23 76.5 32.5t89.5 9.5zM251 114q45 0 79.5 45.5t52.5 119.5q-11 34 -33 54t-50 20q-25 0 -46.5 -12t-37 -33t-24.5 -50t-9 -63q0 -37 18.5 -59t49.5 -22z" />
    <glyph glyph-name="uni2206" unicode="&#x2206;" horiz-adv-x="736" 
d="M296 664h143l283 -664h-709zM220 132h290l-144 363h-2z" />
    <glyph glyph-name="product" unicode="&#x220f;" horiz-adv-x="689" 
d="M472 -130v662h-256v-662h-148v794h552v-794h-148z" />
    <glyph glyph-name="summation" unicode="&#x2211;" horiz-adv-x="587" 
d="M474 267l-227 -265h317v-132h-520v126l232 271l-232 271v125h520v-132h-316z" />
    <glyph glyph-name="minus" unicode="&#x2212;" horiz-adv-x="650" 
d="M47 358h556v-116h-556v116z" />
    <glyph glyph-name="uni2219" unicode="&#x2219;" horiz-adv-x="275" 
d="M138 415q35 0 58.5 -24t23.5 -59t-23.5 -58.5t-58.5 -23.5q-36 0 -59.5 23.5t-23.5 58.5t23.5 59t59.5 24z" />
    <glyph glyph-name="radical" unicode="&#x221a;" horiz-adv-x="546" 
d="M212 -70l-81 197h-86v116h164l56 -145h2l145 586h125l-195 -754h-130z" />
    <glyph glyph-name="infinity" unicode="&#x221e;" horiz-adv-x="701" 
d="M498 499q74 0 116 -44.5t42 -122.5t-43 -122.5t-118 -44.5q-51 0 -88 20t-66 62h-2q-29 -43 -61.5 -62.5t-74.5 -19.5q-74 0 -116 44.5t-42 122.5t43 122.5t118 44.5q95 0 152 -84h2q29 44 62 64t76 20zM212 257q53 0 91 59q-26 51 -48 71t-51 20t-46 -20t-17 -55
t19.5 -55t51.5 -20zM497 257q29 0 46 20t17 55q0 34 -19 54.5t-51 20.5q-28 0 -50 -14.5t-43 -46.5q27 -50 49 -69.5t51 -19.5z" />
    <glyph glyph-name="integral" unicode="&#x222b;" horiz-adv-x="388" 
d="M276 710q53 0 88 -19v-121h-5q-10 13 -23.5 18.5t-30.5 5.5q-46 0 -46 -55v-581q0 -78 -37.5 -118t-109.5 -40q-29 0 -49.5 4.5t-38.5 14.5v121h5q9 -13 23 -18.5t31 -5.5q45 0 45 55v581q0 158 148 158z" />
    <glyph glyph-name="approxequal" unicode="&#x2248;" horiz-adv-x="650" 
d="M212 540q37 0 69.5 -13t76.5 -45q29 -21 45 -28.5t33 -7.5q23 0 44.5 21.5t50.5 72.5l95 -56q-79 -154 -188 -154q-19 0 -35.5 3t-34 10t-36 18t-40.5 27q-29 21 -45 28.5t-33 7.5q-23 0 -44.5 -21.5t-50.5 -72.5l-95 56q79 154 188 154zM212 270q37 0 69.5 -13t76.5 -45
q29 -21 45 -28.5t33 -7.5q23 0 44.5 21.5t50.5 72.5l95 -56q-79 -154 -188 -154q-19 0 -35.5 3t-34 10t-36 18t-40.5 27q-29 21 -45 28.5t-33 7.5q-23 0 -44.5 -21.5t-50.5 -72.5l-95 56q79 154 188 154z" />
    <glyph glyph-name="notequal" unicode="&#x2260;" horiz-adv-x="650" 
d="M593 231v-114h-294l-59 -115h-117l59 115h-125v114h184l71 138h-255v114h314l59 115h117l-59 -115h105v-114h-164l-71 -138h235z" />
    <glyph glyph-name="lessequal" unicode="&#x2264;" horiz-adv-x="650" 
d="M583 270v-127l-516 187v99l516 186v-126l-328 -108v-2zM583 0h-516v116h516v-116z" />
    <glyph glyph-name="greaterequal" unicode="&#x2265;" horiz-adv-x="650" 
d="M67 143v127l328 109v2l-328 108v126l516 -186v-99zM583 0h-516v116h516v-116z" />
    <glyph glyph-name="lozenge" unicode="&#x25ca;" horiz-adv-x="629" 
d="M42 332l222 332h101l222 -332l-222 -332h-101zM314 125l137 207l-137 207l-137 -207z" />
    <glyph glyph-name="uniE069" unicode="&#xe069;" horiz-adv-x="248" 
d="M124 696q35 0 58 -22.5t23 -57.5q0 -36 -23 -58.5t-58 -22.5t-58 22.5t-23 58.5q0 35 23 57.5t58 22.5zM58 470h131v-470h-131v470z" />
    <glyph glyph-name="uniEF01" unicode="&#xef01;" horiz-adv-x="500" 
d="M186 -60h132l-115 -150h-114z" />
    <glyph glyph-name="uniEF02" unicode="&#xef02;" horiz-adv-x="500" 
d="M198 700h132l-60 -196h-99z" />
    <glyph glyph-name="uniF8FF" unicode="&#xf8ff;" horiz-adv-x="1000" 
d="M439 262h-1l-17 -78h-23l28 126h26l1 -66h1l28 66h31l-28 -126h-24l17 78h-1l-22 -52h-16v52zM123 208q-7 -24 -25 -24h-46l28 126h43q18 0 18 -15v-3.5t-1 -6.5zM269 184l6 26h-17l-7 -26h-24l23 103q5 23 26 23h22q18 0 18 -15v-3.5t-1 -6.5l-22 -101h-24zM546 184
l6 26h-17l-7 -26h-24l23 103q5 23 26 23h22q18 0 18 -15v-3.5t-1 -6.5l-22 -101h-24zM390 233q-4 -17 -13 -20l6 -29h-23l-4 26h-13l-6 -26h-24l28 126h43q18 0 18 -15v-3.5t-1 -6.5zM833 232q-4 -22 -24 -22h-22l-6 -26h-24l28 126h43q18 0 18 -15v-3.5t-1 -6.5zM205 184
h-24l6 26h-18l-6 -26h-24l28 126h24l-18 -81h18l18 81h24zM727 310l-17 -75q-1 -6 4 -6h7q5 0 6 4l17 77h24l-17 -78q-4 -22 -24 -22l-14 -26h-24l14 26q-7 0 -12.5 3.5t-5.5 11.5q0 5 1 10l17 75h24zM897 223h-26l-4 -20h33l-5 -19h-56l28 126h57l-5 -19h-32l-11 -49h25z
M647 184h-24l24 107h-19l4 19h61l-4 -19h-18zM80 203h13q4 0 6 5l17 77q1 6 -3 6h-13zM821 285q1 6 -4 6h-12l-14 -62h13q5 0 6 4zM377 285q1 6 -4 6h-12l-14 -62h13q5 0 6 4zM557 291q-5 0 -6 -5l-13 -57h18l12 56q1 6 -4 6h-7zM280 291q-5 0 -6 -5l-13 -57h18l12 56
q1 6 -4 6h-7zM987 303h-6v25h-1l-7 -20h-4l-7 20h-1v-25h-5v30h10l5 -16h1l5 16h10v-30zM952 328h-9v-25h-6v25h-8v5h23v-5z" />
    <glyph glyph-name="zero.numr" 
d="M205 670q80 0 123 -54t43 -157t-43 -157t-123 -54t-123 54t-43 157t43 157t123 54zM205 584q-71 0 -71 -125q0 -61 18 -93t53 -32t53 32t18 93q0 125 -71 125z" />
    <glyph glyph-name="one.numr" 
d="M218 254v299l-103 -62v94l121 79h76v-410h-94z" />
    <glyph glyph-name="two.numr" 
d="M349 254h-287v90l101 78q27 21 44.5 36.5t28 28t14.5 24t4 23.5q0 50 -68 50q-31 0 -60.5 -12.5t-53.5 -37.5h-5v102q23 16 55.5 25t67.5 9q76 0 117.5 -32.5t41.5 -94.5q0 -23 -5.5 -42t-19 -38t-37 -40.5t-58.5 -48.5l-42 -32v-2h162v-86z" />
    <glyph glyph-name="three.numr" 
d="M303 462q57 -29 57 -95q0 -57 -42 -88t-119 -31q-42 0 -78.5 10t-56.5 27v102h5q20 -25 54 -39t74 -14q32 0 50 11t18 35q0 42 -72 42h-53v78h46q39 0 56.5 9.5t17.5 30.5q0 24 -17 34t-49 10q-33 0 -64.5 -13t-52.5 -36h-5v101q23 16 58.5 25t74.5 9q71 0 110 -30.5
t39 -86.5q0 -60 -51 -89v-2z" />
    <glyph glyph-name="four.numr" 
d="M333 254h-94v71h-200v82l197 257h97v-253h50v-86h-50v-71zM133 411h106v137z" />
    <glyph glyph-name="five.numr" 
d="M219 520q69 0 107 -35.5t38 -98.5q0 -65 -43 -101.5t-120 -36.5q-88 0 -138 28v96h5q23 -19 56.5 -28.5t71.5 -9.5q35 0 54 13.5t19 38.5q0 53 -92 53q-55 0 -97 -14h-5v239h262v-86h-185v-64q30 6 67 6z" />
    <glyph glyph-name="six.numr" 
d="M234 523q63 0 99.5 -35.5t36.5 -96.5q0 -66 -40.5 -104.5t-109.5 -38.5q-83 0 -128.5 53t-45.5 147q0 105 48.5 163.5t136.5 58.5q72 0 107 -26v-96h-5q-38 36 -92 36q-83 0 -98 -89h2q34 28 89 28zM217 334q26 0 42 14.5t16 40.5t-16 41t-43 15q-23 0 -42.5 -10
t-30.5 -27q2 -35 21.5 -54.5t52.5 -19.5z" />
    <glyph glyph-name="seven.numr" 
d="M184 254h-112l194 324h-209v86h312v-88z" />
    <glyph glyph-name="eight.numr" 
d="M310 464q64 -27 64 -97q0 -57 -44.5 -88t-125.5 -31q-79 0 -123.5 31t-44.5 88q0 67 64 93v2q-52 29 -52 91q0 55 41 86t115 31q75 0 116.5 -31t41.5 -86q0 -61 -52 -87v-2zM204 584q-62 0 -62 -43q0 -41 62 -41q64 0 64 41q0 43 -64 43zM204 334q75 0 75 45q0 43 -75 43
q-73 0 -73 -43q0 -45 73 -45z" />
    <glyph glyph-name="nine.numr" 
d="M190 670q83 0 128.5 -53t45.5 -147q0 -105 -48.5 -163.5t-136.5 -58.5q-72 0 -107 26v96h5q38 -36 92 -36q83 0 98 89h-2q-34 -28 -89 -28q-63 0 -99.5 35.5t-36.5 96.5q0 66 40.5 104.5t109.5 38.5zM194 473q23 0 42.5 10t30.5 27q-2 35 -21.5 54.5t-52.5 19.5
q-26 0 -42 -14.5t-16 -40.5t16 -41t43 -15z" />
    <glyph glyph-name="zero.dnom" 
d="M205 416q80 0 123 -54t43 -157t-43 -157t-123 -54t-123 54t-43 157t43 157t123 54zM205 330q-71 0 -71 -125q0 -61 18 -93t53 -32t53 32t18 93q0 125 -71 125z" />
    <glyph glyph-name="one.dnom" 
d="M218 0v299l-103 -62v94l121 79h76v-410h-94z" />
    <glyph glyph-name="two.dnom" 
d="M349 0h-287v90l101 78q27 21 44.5 36.5t28 28t14.5 24t4 23.5q0 50 -68 50q-31 0 -60.5 -12.5t-53.5 -37.5h-5v102q23 16 55.5 25t67.5 9q76 0 117.5 -32.5t41.5 -94.5q0 -23 -5.5 -42t-19 -38t-37 -40.5t-58.5 -48.5l-42 -32v-2h162v-86z" />
    <glyph glyph-name="three.dnom" 
d="M303 208q57 -29 57 -95q0 -57 -42 -88t-119 -31q-42 0 -78.5 10t-56.5 27v102h5q20 -25 54 -39t74 -14q32 0 50 11t18 35q0 42 -72 42h-53v78h46q39 0 56.5 9.5t17.5 30.5q0 24 -17 34t-49 10q-33 0 -64.5 -13t-52.5 -36h-5v101q23 16 58.5 25t74.5 9q71 0 110 -30.5
t39 -86.5q0 -60 -51 -89v-2z" />
    <glyph glyph-name="four.dnom" 
d="M333 0h-94v71h-200v82l197 257h97v-253h50v-86h-50v-71zM133 157h106v137z" />
    <glyph glyph-name="five.dnom" 
d="M219 266q69 0 107 -35.5t38 -98.5q0 -65 -43 -101.5t-120 -36.5q-88 0 -138 28v96h5q23 -19 56.5 -28.5t71.5 -9.5q35 0 54 13.5t19 38.5q0 53 -92 53q-55 0 -97 -14h-5v239h262v-86h-185v-64q30 6 67 6z" />
    <glyph glyph-name="six.dnom" 
d="M234 269q63 0 99.5 -35.5t36.5 -96.5q0 -66 -40.5 -104.5t-109.5 -38.5q-83 0 -128.5 53t-45.5 147q0 105 48.5 163.5t136.5 58.5q72 0 107 -26v-96h-5q-38 36 -92 36q-83 0 -98 -89h2q34 28 89 28zM217 80q26 0 42 14.5t16 40.5t-16 41t-43 15q-23 0 -42.5 -10
t-30.5 -27q2 -35 21.5 -54.5t52.5 -19.5z" />
    <glyph glyph-name="seven.dnom" 
d="M184 0h-112l194 324h-209v86h312v-88z" />
    <glyph glyph-name="eight.dnom" 
d="M310 210q64 -27 64 -97q0 -57 -44.5 -88t-125.5 -31q-79 0 -123.5 31t-44.5 88q0 67 64 93v2q-52 29 -52 91q0 55 41 86t115 31q75 0 116.5 -31t41.5 -86q0 -61 -52 -87v-2zM204 330q-62 0 -62 -43q0 -41 62 -41q64 0 64 41q0 43 -64 43zM204 80q75 0 75 45q0 43 -75 43
q-73 0 -73 -43q0 -45 73 -45z" />
    <glyph glyph-name="nine.dnom" 
d="M190 416q83 0 128.5 -53t45.5 -147q0 -105 -48.5 -163.5t-136.5 -58.5q-72 0 -107 26v96h5q38 -36 92 -36q83 0 98 89h-2q-34 -28 -89 -28q-63 0 -99.5 35.5t-36.5 96.5q0 66 40.5 104.5t109.5 38.5zM194 219q23 0 42.5 10t30.5 27q-2 35 -21.5 54.5t-52.5 19.5
q-26 0 -42 -14.5t-16 -40.5t16 -41t43 -15z" />
    </font>
</defs>
</svg>
